UbuntuMono-BoldItalic.ufo
<glyph name="ampersand" format="2">
	<unicode hex="0026"/>
	<advance width="500"/>
	<outline>
		<contour>
			<point x="384" y="216" type="line"/>
			<point x="400" y="240"/>
			<point x="423" y="300"/>
			<point x="433" y="332" type="qcurve"/>
			<point x="525" y="321" type="line"/>
			<point x="510" y="257"/>
			<point x="459" y="168"/>
			<point x="436" y="136" type="qcurve"/>
			<point x="449" y="109"/>
			<point x="475" y="42"/>
			<point x="486" y="0" type="qcurve"/>
			<point x="373" y="0" type="line"/>
			<point x="368" y="20"/>
			<point x="361" y="43"/>
			<point x="356" y="57" type="qcurve"/>
			<point x="318" y="21"/>
			<point x="233" y="-9"/>
			<point x="188" y="-9" type="qcurve"/>
			<point x="151" y="-9"/>
			<point x="97" y="13"/>
			<point x="62" y="50"/>
			<point x="45" y="100"/>
			<point x="45" y="129" type="qcurve"/>
			<point x="45" y="162"/>
			<point x="62" y="215"/>
			<point x="95" y="261"/>
			<point x="145" y="304"/>
			<point x="177" y="327" type="qcurve"/>
			<point x="188" y="335" type="line"/>
			<point x="175" y="359"/>
			<point x="160" y="410"/>
			<point x="160" y="436" type="qcurve"/>
			<point x="160" y="481"/>
			<point x="189" y="553"/>
			<point x="240" y="605"/>
			<point x="311" y="633"/>
			<point x="352" y="633" type="qcurve"/>
			<point x="417" y="633"/>
			<point x="481" y="570"/>
			<point x="481" y="514" type="qcurve"/>
			<point x="481" y="492"/>
			<point x="468" y="445"/>
			<point x="433" y="394"/>
			<point x="373" y="341"/>
			<point x="326" y="313" type="qcurve"/>
			<point x="321" y="310" type="line"/>
		</contour>
		<contour>
			<point x="154" y="147" type="qcurve"/>
			<point x="154" y="121"/>
			<point x="187" y="83"/>
			<point x="217" y="83" type="qcurve"/>
			<point x="243" y="83"/>
			<point x="298" y="111"/>
			<point x="317" y="132" type="qcurve"/>
			<point x="303" y="157"/>
			<point x="254" y="230"/>
			<point x="230" y="266" type="qcurve"/>
			<point x="205" y="252"/>
			<point x="175" y="221"/>
			<point x="159" y="189"/>
			<point x="154" y="159"/>
		</contour>
		<contour>
			<point x="285" y="380" type="line"/>
			<point x="341" y="408"/>
			<point x="382" y="474"/>
			<point x="382" y="500" type="qcurve"/>
			<point x="382" y="517"/>
			<point x="363" y="542"/>
			<point x="340" y="542" type="qcurve"/>
			<point x="307" y="542"/>
			<point x="261" y="491"/>
			<point x="261" y="447" type="qcurve"/>
			<point x="261" y="424"/>
			<point x="269" y="392"/>
			<point x="277" y="376" type="qcurve"/>
		</contour>
	</outline>
	<guideline y="5"/>
</glyph>
<glyph name="quotesingle" format="2">
	<unicode hex="0027"/>
	<advance width="500"/>
	<outline>
		<contour>
			<point x="453" y="679" type="line"/>
			<point x="434" y="601" type="line"/>
			<point x="422" y="551"/>
			<point x="375" y="432"/>
			<point x="352" y="380" type="qcurve"/>
			<point x="280" y="380" type="line"/>
			<point x="281" y="406"/>
			<point x="285" y="468"/>
			<point x="291" y="531"/>
			<point x="300" y="592"/>
			<point x="306" y="617" type="qcurve"/>
			<point x="321" y="679" type="line"/>
		</contour>
	</outline>
</glyph>
<glyph name="period" format="2">
	<unicode hex="002E"/>
	<advance width="500"/>
	<outline>
		<contour>
			<point x="259" y="167" type="qcurve"/>
			<point x="294" y="167"/>
			<point x="339" y="127"/>
			<point x="339" y="88" type="qcurve"/>
			<point x="339" y="66"/>
			<point x="323" y="29"/>
			<point x="296" y="3"/>
			<point x="261" y="-12"/>
			<point x="243" y="-12" type="qcurve"/>
			<point x="208" y="-12"/>
			<point x="163" y="28"/>
			<point x="163" y="68" type="qcurve"/>
			<point x="163" y="90"/>
			<point x="179" y="126"/>
			<point x="206" y="152"/>
			<point x="241" y="167"/>
		</contour>
	</outline>
</glyph>
<glyph name="two" format="2">
	<unicode hex="0032"/>
	<advance width="500"/>
	<outline>
		<contour>
			<point x="365" y="633" type="qcurve"/>
			<point x="405" y="633"/>
			<point x="467" y="610"/>
			<point x="509" y="570"/>
			<point x="531" y="518"/>
			<point x="531" y="488" type="qcurve"/>
			<point x="531" y="444"/>
			<point x="497" y="372"/>
			<point x="442" y="311"/>
			<point x="370" y="257"/>
			<point x="332" y="230" type="qcurve"/>
			<point x="274" y="190"/>
			<point x="207" y="131"/>
			<point x="190" y="102" type="qcurve"/>
			<point x="466" y="102" type="line"/>
			<point x="442" y="0" type="line"/>
			<point x="41" y="0" type="line"/>
			<point x="47" y="53"/>
			<point x="82" y="136"/>
			<point x="136" y="204"/>
			<point x="206" y="263"/>
			<point x="248" y="293" type="qcurve"/>
			<point x="291" y="324"/>
			<point x="352" y="371"/>
			<point x="390" y="410"/>
			<point x="408" y="446"/>
			<point x="408" y="466" type="qcurve"/>
			<point x="408" y="493"/>
			<point x="376" y="526"/>
			<point x="340" y="526" type="qcurve"/>
			<point x="304" y="526"/>
			<point x="225" y="495"/>
			<point x="187" y="466" type="qcurve"/>
			<point x="147" y="555" type="line"/>
			<point x="199" y="596"/>
			<point x="311" y="633"/>
		</contour>
	</outline>
</glyph>
<glyph name="three" format="2">
	<unicode hex="0033"/>
	<advance width="500"/>
	<outline>
		<contour>
			<point x="388" y="326" type="qcurve"/>
			<point x="434" y="305"/>
			<point x="478" y="234"/>
			<point x="478" y="192" type="qcurve"/>
			<point x="478" y="155"/>
			<point x="450" y="82"/>
			<point x="386" y="23"/>
			<point x="283" y="-13"/>
			<point x="209" y="-13" type="qcurve"/>
			<point x="160" y="-13"/>
			<point x="71" y="7"/>
			<point x="30" y="30" type="qcurve"/>
			<point x="72" y="126" type="line"/>
			<point x="100" y="109"/>
			<point x="176" y="87"/>
			<point x="216" y="87" type="qcurve"/>
			<point x="244" y="87"/>
			<point x="294" y="98"/>
			<point x="332" y="124"/>
			<point x="355" y="166"/>
			<point x="355" y="197" type="qcurve"/>
			<point x="355" y="238"/>
			<point x="292" y="276"/>
			<point x="236" y="276" type="qcurve"/>
			<point x="195" y="276" type="line"/>
			<point x="220" y="373" type="line"/>
			<point x="271" y="373" type="line"/>
			<point x="291" y="373"/>
			<point x="336" y="382"/>
			<point x="375" y="405"/>
			<point x="400" y="442"/>
			<point x="400" y="470" type="qcurve"/>
			<point x="400" y="500"/>
			<point x="355" y="532"/>
			<point x="320" y="532" type="qcurve"/>
			<point x="294" y="532"/>
			<point x="230" y="513"/>
			<point x="198" y="495" type="qcurve"/>
			<point x="167" y="585" type="line"/>
			<point x="209" y="607"/>
			<point x="302" y="633"/>
			<point x="342" y="633" type="qcurve"/>
			<point x="379" y="633"/>
			<point x="444" y="616"/>
			<point x="493" y="582"/>
			<point x="521" y="531"/>
			<point x="521" y="496" type="qcurve"/>
			<point x="521" y="441"/>
			<point x="457" y="353"/>
		</contour>
	</outline>
</glyph>
<glyph name="four" format="2">
	<unicode hex="0034"/>
	<advance width="500"/>
	<outline>
		<contour>
			<point x="396" y="484" type="line"/>
			<point x="340" y="432"/>
			<point x="221" y="305"/>
			<point x="173" y="244" type="qcurve"/>
			<point x="338" y="244" type="line"/>
		</contour>
		<contour>
			<point x="544" y="619" type="line"/>
			<point x="454" y="244" type="line"/>
			<point x="520" y="244" type="line"/>
			<point x="496" y="146" type="line"/>
			<point x="430" y="146" type="line"/>
			<point x="395" y="0" type="line"/>
			<point x="279" y="0" type="line"/>
			<point x="313" y="146" type="line"/>
			<point x="40" y="146" type="line"/>
			<point x="62" y="238" type="line"/>
			<point x="90" y="277"/>
			<point x="175" y="375"/>
			<point x="272" y="478"/>
			<point x="376" y="578"/>
			<point x="424" y="619" type="qcurve"/>
		</contour>
	</outline>
</glyph>
<glyph name="five" format="2">
	<unicode hex="0035"/>
	<advance width="500"/>
	<outline>
		<contour>
			<point x="78" y="128" type="line"/>
			<point x="110" y="108"/>
			<point x="180" y="89"/>
			<point x="213" y="89" type="qcurve"/>
			<point x="355" y="89"/>
			<point x="355" y="197" type="qcurve"/>
			<point x="355" y="242"/>
			<point x="250" y="295"/>
			<point x="129" y="297" type="qcurve"/>
			<point x="158" y="382"/>
			<point x="210" y="543"/>
			<point x="230" y="619" type="qcurve"/>
			<point x="555" y="619" type="line"/>
			<point x="531" y="517" type="line"/>
			<point x="305" y="517" type="line"/>
			<point x="295" y="480"/>
			<point x="273" y="410"/>
			<point x="264" y="387" type="qcurve"/>
			<point x="319" y="382"/>
			<point x="399" y="351"/>
			<point x="451" y="303"/>
			<point x="477" y="241"/>
			<point x="477" y="207" type="qcurve"/>
			<point x="477" y="107"/>
			<point x="345" y="-13"/>
			<point x="216" y="-13" type="qcurve"/>
			<point x="168" y="-13"/>
			<point x="74" y="7"/>
			<point x="32" y="29" type="qcurve"/>
		</contour>
	</outline>
</glyph>
<glyph name="eight" format="2">
	<unicode hex="0038"/>
	<advance width="500"/>
	<outline>
		<contour>
			<point x="62" y="138" type="qcurve"/>
			<point x="62" y="167"/>
			<point x="78" y="216"/>
			<point x="112" y="261"/>
			<point x="166" y="304"/>
			<point x="204" y="328" type="qcurve"/>
			<point x="181" y="352"/>
			<point x="149" y="406"/>
			<point x="149" y="443" type="qcurve"/>
			<point x="149" y="478"/>
			<point x="175" y="546"/>
			<point x="229" y="600"/>
			<point x="311" y="633"/>
			<point x="367" y="633" type="qcurve"/>
			<point x="404" y="633"/>
			<point x="467" y="612"/>
			<point x="513" y="575"/>
			<point x="540" y="522"/>
			<point x="540" y="489" type="qcurve"/>
			<point x="540" y="469"/>
			<point x="530" y="426"/>
			<point x="502" y="381"/>
			<point x="450" y="335"/>
			<point x="407" y="314" type="qcurve"/>
			<point x="440" y="291"/>
			<point x="487" y="229"/>
			<point x="487" y="180" type="qcurve"/>
			<point x="487" y="140"/>
			<point x="456" y="70"/>
			<point x="396" y="17"/>
			<point x="307" y="-13"/>
			<point x="249" y="-13" type="qcurve"/>
			<point x="217" y="-13"/>
			<point x="150" y="3"/>
			<point x="96" y="38"/>
			<point x="62" y="96"/>
		</contour>
		<contour>
			<point x="368" y="177" type="qcurve"/>
			<point x="368" y="215"/>
			<point x="316" y="260"/>
			<point x="278" y="280" type="qcurve"/>
			<point x="247" y="265"/>
			<point x="209" y="234"/>
			<point x="187" y="202"/>
			<point x="179" y="170"/>
			<point x="179" y="154" type="qcurve"/>
			<point x="179" y="119"/>
			<point x="228" y="84"/>
			<point x="263" y="84" type="qcurve"/>
			<point x="284" y="84"/>
			<point x="322" y="97"/>
			<point x="351" y="121"/>
			<point x="368" y="156"/>
		</contour>
		<contour>
			<point x="262" y="451" type="qcurve"/>
			<point x="262" y="419"/>
			<point x="302" y="377"/>
			<point x="330" y="360" type="qcurve"/>
			<point x="387" y="387"/>
			<point x="425" y="443"/>
			<point x="425" y="470" type="qcurve"/>
			<point x="425" y="502"/>
			<point x="386" y="535"/>
			<point x="351" y="535" type="qcurve"/>
			<point x="309" y="535"/>
			<point x="262" y="487"/>
		</contour>
	</outline>
	<guideline x="246"/>
	<guideline x="356"/>
	<guideline x="431"/>
	<guideline y="148"/>
	<guideline y="464"/>
</glyph>
<glyph name="less" format="2">
	<unicode hex="003C"/>
	<advance width="500"/>
	<outline>
		<contour>
			<point x="102" y="312" type="line"/>
			<point x="525" y="474" type="line"/>
			<point x="534" y="364" type="line"/>
			<point x="224" y="256" type="line"/>
			<point x="479" y="139" type="line"/>
			<point x="428" y="44" type="line"/>
			<point x="78" y="213" type="line"/>
		</contour>
	</outline>
	<guideline x="98"/>
	<guideline x="475"/>
	<guideline y="39"/>
	<guideline y="255"/>
	<guideline y="474"/>
</glyph>
<glyph name="question" format="2">
	<unicode hex="003F"/>
	<advance width="500"/>
	<outline>
		<contour>
			<point x="335" y="530" type="qcurve"/>
			<point x="302" y="530"/>
			<point x="246" y="509"/>
			<point x="207" y="492" type="qcurve"/>
			<point x="192" y="587" type="line"/>
			<point x="233" y="609"/>
			<point x="321" y="633"/>
			<point x="369" y="633" type="qcurve"/>
			<point x="413" y="633"/>
			<point x="474" y="613"/>
			<point x="513" y="578"/>
			<point x="531" y="532"/>
			<point x="531" y="505" type="qcurve"/>
			<point x="531" y="475"/>
			<point x="513" y="428"/>
			<point x="482" y="388"/>
			<point x="440" y="353"/>
			<point x="415" y="336" type="qcurve"/>
			<point x="392" y="319"/>
			<point x="360" y="295"/>
			<point x="337" y="271"/>
			<point x="321" y="244"/>
			<point x="315" y="225" type="qcurve"/>
			<point x="201" y="225" type="line"/>
			<point x="208" y="271"/>
			<point x="257" y="341"/>
			<point x="313" y="381" type="qcurve"/>
			<point x="337" y="399"/>
			<point x="370" y="424"/>
			<point x="389" y="446"/>
			<point x="398" y="469"/>
			<point x="398" y="484" type="qcurve"/>
			<point x="398" y="530"/>
		</contour>
		<contour>
			<point x="244" y="155" type="qcurve"/>
			<point x="276" y="155"/>
			<point x="318" y="118"/>
			<point x="318" y="81" type="qcurve"/>
			<point x="318" y="61"/>
			<point x="303" y="27"/>
			<point x="278" y="2"/>
			<point x="246" y="-12"/>
			<point x="228" y="-12" type="qcurve"/>
			<point x="197" y="-12"/>
			<point x="154" y="26"/>
			<point x="154" y="63" type="qcurve"/>
			<point x="154" y="84"/>
			<point x="169" y="118"/>
			<point x="194" y="142"/>
			<point x="227" y="155"/>
		</contour>
	</outline>
</glyph>
<glyph name="A" format="2">
	<unicode hex="0041"/>
	<advance width="500"/>
	<outline>
		<contour>
			<point x="356" y="144" type="line"/>
			<point x="180" y="144" type="line"/>
			<point x="165" y="110"/>
			<point x="133" y="38"/>
			<point x="119" y="0" type="qcurve"/>
			<point x="-6" y="0" type="line"/>
			<point x="79" y="186"/>
			<point x="237" y="497"/>
			<point x="312" y="619" type="qcurve"/>
			<point x="443" y="619" type="line"/>
			<point x="457" y="501"/>
			<point x="474" y="238"/>
			<point x="476" y="89" type="qcurve"/>
			<point x="476" y="0" type="line"/>
			<point x="352" y="0" type="line"/>
		</contour>
		<contour>
			<point x="352" y="502" type="qcurve"/>
			<point x="339" y="477"/>
			<point x="314" y="429"/>
			<point x="285" y="370"/>
			<point x="249" y="294"/>
			<point x="226" y="243" type="qcurve"/>
			<point x="358" y="243" type="line"/>
			<point x="359" y="294"/>
			<point x="358" y="370"/>
			<point x="356" y="429"/>
			<point x="353" y="478"/>
		</contour>
	</outline>
</glyph>
<glyph name="K" format="2">
	<unicode hex="004B"/>
	<advance width="500"/>
	<outline>
		<contour>
			<point x="338" y="322" type="qcurve"/>
			<point x="362" y="292"/>
			<point x="406" y="217"/>
			<point x="443" y="132"/>
			<point x="472" y="43"/>
			<point x="481" y="0" type="qcurve"/>
			<point x="352" y="0" type="line"/>
			<point x="345" y="35"/>
			<point x="318" y="116"/>
			<point x="283" y="194"/>
			<point x="243" y="263"/>
			<point x="223" y="287" type="qcurve"/>
			<point x="154" y="0" type="line"/>
			<point x="31" y="0" type="line"/>
			<point x="179" y="619" type="line"/>
			<point x="303" y="619" type="line"/>
			<point x="241" y="362" type="line"/>
			<point x="272" y="390"/>
			<point x="335" y="457"/>
			<point x="393" y="526"/>
			<point x="444" y="592"/>
			<point x="462" y="619" type="qcurve"/>
			<point x="603" y="619" type="line"/>
			<point x="580" y="588"/>
			<point x="522" y="514"/>
			<point x="454" y="435"/>
			<point x="378" y="357"/>
		</contour>
	</outline>
</glyph>
<glyph name="U" format="2">
	<unicode hex="0055"/>
	<advance width="500"/>
	<outline>
		<contour>
			<point x="237" y="-13" type="qcurve"/>
			<point x="149" y="-13"/>
			<point x="67" y="71"/>
			<point x="67" y="146" type="qcurve"/>
			<point x="67" y="187"/>
			<point x="79" y="238" type="qcurve"/>
			<point x="171" y="619" type="line"/>
			<point x="294" y="619" type="line"/>
			<point x="203" y="239" type="line"/>
			<point x="198" y="216"/>
			<point x="190" y="175"/>
			<point x="190" y="158" type="qcurve"/>
			<point x="190" y="128"/>
			<point x="218" y="94"/>
			<point x="255" y="94" type="qcurve"/>
			<point x="277" y="94"/>
			<point x="309" y="107"/>
			<point x="333" y="138"/>
			<point x="352" y="190"/>
			<point x="361" y="229" type="qcurve"/>
			<point x="455" y="619" type="line"/>
			<point x="578" y="619" type="line"/>
			<point x="482" y="220" type="line"/>
			<point x="469" y="165"/>
			<point x="436" y="79"/>
			<point x="382" y="19"/>
			<point x="299" y="-13"/>
		</contour>
	</outline>
</glyph>
<glyph name="V" format="2">
  <advance width="500"/>
  <unicode hex="0056"/>
  <outline>
    <contour>
      <point x="301" y="0" type="line"/>
      <point x="430" y="212"/>
      <point x="548" y="460"/>
      <point x="617" y="619" type="curve"/>
      <point x="489" y="619" type="line"/>
      <point x="438" y="491"/>
      <point x="338" y="264"/>
      <point x="265" y="125" type="curve"/>
      <point x="261" y="200"/>
      <point x="259" y="293"/>
      <point x="259" y="386" type="curve" smooth="yes"/>
      <point x="259" y="472"/>
      <point x="261" y="557"/>
      <point x="263" y="619" type="curve"/>
      <point x="137" y="619" type="line"/>
      <point x="136" y="603"/>
      <point x="136" y="584"/>
      <point x="136" y="563" type="curve" smooth="yes"/>
      <point x="136" y="378"/>
      <point x="149" y="156"/>
      <point x="170" y="0" type="curve"/>
    </contour>
  </outline>
</glyph>
<glyph name="W" format="2">
	<unicode hex="0057"/>
	<advance width="500"/>
	<outline>
		<contour>
			<point x="324" y="0" type="line"/>
			<point x="322" y="21"/>
			<point x="315" y="90"/>
			<point x="309" y="169"/>
			<point x="303" y="252"/>
			<point x="302" y="288" type="qcurve"/>
			<point x="153" y="0" type="line"/>
			<point x="39" y="0" type="line"/>
			<point x="59" y="151"/>
			<point x="120" y="458"/>
			<point x="155" y="619" type="qcurve"/>
			<point x="268" y="619" type="line"/>
			<point x="145" y="133" type="line"/>
			<point x="282" y="400" type="line"/>
			<point x="369" y="400" type="line"/>
			<point x="371" y="334"/>
			<point x="381" y="198"/>
			<point x="386" y="138" type="qcurve"/>
			<point x="497" y="619" type="line"/>
			<point x="609" y="619" type="line"/>
			<point x="588" y="543"/>
			<point x="544" y="379"/>
			<point x="498" y="216"/>
			<point x="452" y="64"/>
			<point x="430" y="0" type="qcurve"/>
		</contour>
	</outline>
	<guideline y="81"/>
	<guideline y="112"/>
	<guideline y="146"/>
	<guideline y="357"/>
	<guideline y="384"/>
</glyph>
<glyph name="underscore" format="2">
	<unicode hex="005F"/>
	<advance width="500"/>
	<outline>
		<contour>
			<point x="-8" y="-58" type="line"/>
			<point x="439" y="-58" type="line"/>
			<point x="413" y="-165" type="line"/>
			<point x="-34" y="-165" type="line"/>
		</contour>
	</outline>
</glyph>
<glyph name="a" format="2">
	<unicode hex="0061"/>
	<advance width="500"/>
	<outline>
		<contour>
			<point x="251" y="94" type="qcurve"/>
			<point x="279" y="94"/>
			<point x="317" y="119"/>
			<point x="331" y="136" type="qcurve"/>
			<point x="333" y="150"/>
			<point x="337" y="176"/>
			<point x="341" y="193" type="qcurve"/>
			<point x="384" y="371" type="line"/>
			<point x="373" y="374"/>
			<point x="349" y="376"/>
			<point x="338" y="376" type="qcurve"/>
			<point x="303" y="376"/>
			<point x="247" y="343"/>
			<point x="207" y="289"/>
			<point x="186" y="219"/>
			<point x="186" y="182" type="qcurve"/>
			<point x="186" y="156"/>
			<point x="195" y="122"/>
			<point x="212" y="102"/>
			<point x="236" y="94"/>
		</contour>
		<contour>
			<point x="206" y="-11" type="qcurve"/>
			<point x="140" y="-10"/>
			<point x="64" y="83"/>
			<point x="64" y="172" type="qcurve"/>
			<point x="64" y="240"/>
			<point x="110" y="354"/>
			<point x="190" y="435"/>
			<point x="297" y="480"/>
			<point x="357" y="480" type="qcurve"/>
			<point x="398" y="480"/>
			<point x="482" y="464"/>
			<point x="525" y="447" type="qcurve"/>
			<point x="463" y="192" type="line"/>
			<point x="459" y="174"/>
			<point x="455" y="139"/>
			<point x="455" y="121" type="qcurve"/>
			<point x="455" y="92"/>
			<point x="466" y="37"/>
			<point x="475" y="10" type="qcurve"/>
			<point x="367" y="-8" type="line"/>
			<point x="365" y="-4"/>
			<point x="359" y="8"/>
			<point x="353" y="22"/>
			<point x="349" y="33"/>
			<point x="348" y="36" type="qcurve"/>
			<point x="328" y="21"/>
			<point x="260" y="-11"/>
		</contour>
	</outline>
</glyph>
<glyph name="c" format="2">
	<unicode hex="0063"/>
	<advance width="500"/>
	<outline>
		<contour>
			<point x="77" y="182" type="qcurve"/>
			<point x="77" y="247"/>
			<point x="123" y="357"/>
			<point x="206" y="436"/>
			<point x="320" y="481"/>
			<point x="389" y="481" type="qcurve"/>
			<point x="416" y="481"/>
			<point x="457" y="477"/>
			<point x="491" y="470"/>
			<point x="518" y="461"/>
			<point x="531" y="455" type="qcurve"/>
			<point x="487" y="357" type="line"/>
			<point x="471" y="364"/>
			<point x="421" y="375"/>
			<point x="389" y="375" type="qcurve"/>
			<point x="348" y="375"/>
			<point x="280" y="350"/>
			<point x="229" y="302"/>
			<point x="201" y="232"/>
			<point x="201" y="187" type="qcurve"/>
			<point x="201" y="167"/>
			<point x="211" y="134"/>
			<point x="238" y="110"/>
			<point x="285" y="96"/>
			<point x="321" y="96" type="qcurve"/>
			<point x="360" y="96"/>
			<point x="427" y="111"/>
			<point x="444" y="119" type="qcurve"/>
			<point x="456" y="21" type="line"/>
			<point x="444" y="15"/>
			<point x="416" y="3"/>
			<point x="378" y="-6"/>
			<point x="327" y="-11"/>
			<point x="292" y="-11" type="qcurve"/>
			<point x="231" y="-11"/>
			<point x="149" y="20"/>
			<point x="99" y="72"/>
			<point x="77" y="143"/>
		</contour>
	</outline>
	<guideline x="377"/>
	<guideline x="302" y="0" angle="103.5"/>
</glyph>
<glyph name="e" format="2">
	<unicode hex="0065"/>
	<advance width="500"/>
	<outline>
		<contour>
			<point x="196" y="167" type="qcurve"/>
			<point x="196" y="149"/>
			<point x="208" y="120"/>
			<point x="235" y="100"/>
			<point x="280" y="89"/>
			<point x="314" y="89" type="qcurve"/>
			<point x="354" y="89"/>
			<point x="426" y="106"/>
			<point x="443" y="114" type="qcurve"/>
			<point x="451" y="21" type="line"/>
			<point x="427" y="9"/>
			<point x="341" y="-12"/>
			<point x="290" y="-12" type="qcurve"/>
			<point x="233" y="-12"/>
			<point x="151" y="17"/>
			<point x="99" y="69"/>
			<point x="75" y="140"/>
			<point x="75" y="183" type="qcurve"/>
			<point x="75" y="241"/>
			<point x="114" y="350"/>
			<point x="189" y="432"/>
			<point x="296" y="482"/>
			<point x="365" y="482" type="qcurve"/>
			<point x="434" y="482"/>
			<point x="522" y="414"/>
			<point x="522" y="353" type="qcurve"/>
			<point x="522" y="302"/>
			<point x="472" y="231"/>
			<point x="384" y="187"/>
			<point x="265" y="167"/>
		</contour>
		<contour>
			<point x="342" y="384" type="qcurve"/>
			<point x="296" y="384"/>
			<point x="213" y="321"/>
			<point x="197" y="252" type="qcurve"/>
			<point x="260" y="252"/>
			<point x="341" y="268"/>
			<point x="387" y="293"/>
			<point x="405" y="323"/>
			<point x="405" y="336" type="qcurve"/>
			<point x="405" y="359"/>
			<point x="372" y="384"/>
		</contour>
	</outline>
	<guideline x="443"/>
</glyph>
<glyph name="n" format="2">
	<unicode hex="006E"/>
	<advance width="500"/>
	<outline>
		<contour>
			<point x="152" y="450" type="line"/>
			<point x="183" y="460"/>
			<point x="283" y="480"/>
			<point x="340" y="480" type="qcurve"/>
			<point x="424" y="480"/>
			<point x="497" y="408"/>
			<point x="497" y="344" type="qcurve"/>
			<point x="497" y="327"/>
			<point x="492" y="287"/>
			<point x="487" y="265" type="qcurve"/>
			<point x="422" y="0" type="line"/>
			<point x="299" y="0" type="line"/>
			<point x="360" y="249" type="line"/>
			<point x="363" y="265"/>
			<point x="371" y="299"/>
			<point x="371" y="316" type="qcurve"/>
			<point x="371" y="339"/>
			<point x="346" y="374"/>
			<point x="313" y="374" type="qcurve"/>
			<point x="299" y="374"/>
			<point x="269" y="369"/>
			<point x="255" y="363" type="qcurve"/>
			<point x="167" y="0" type="line"/>
			<point x="44" y="0" type="line"/>
		</contour>
	</outline>
	<guideline x="409"/>
</glyph>
<glyph name="p" format="2">
	<unicode hex="0070"/>
	<advance width="500"/>
	<outline>
		<contour>
			<point x="327" y="480" type="qcurve"/>
			<point x="420" y="480"/>
			<point x="506" y="385"/>
			<point x="506" y="310" type="qcurve"/>
			<point x="506" y="248"/>
			<point x="470" y="132"/>
			<point x="397" y="43"/>
			<point x="285" y="-10"/>
			<point x="210" y="-10" type="qcurve"/>
			<point x="190" y="-10"/>
			<point x="168" y="-8"/>
			<point x="160" y="-6" type="qcurve"/>
			<point x="121" y="-165" type="line"/>
			<point x="-2" y="-165" type="line"/>
			<point x="146" y="448" type="line"/>
			<point x="167" y="457"/>
			<point x="215" y="469"/>
			<point x="264" y="477"/>
			<point x="309" y="480"/>
		</contour>
		<contour>
			<point x="185" y="98" type="line"/>
			<point x="190" y="96"/>
			<point x="202" y="96"/>
			<point x="209" y="96" type="qcurve"/>
			<point x="250" y="96"/>
			<point x="316" y="129"/>
			<point x="361" y="185"/>
			<point x="385" y="260"/>
			<point x="385" y="301" type="qcurve"/>
			<point x="385" y="316"/>
			<point x="379" y="344"/>
			<point x="363" y="366"/>
			<point x="333" y="379"/>
			<point x="309" y="379" type="qcurve"/>
			<point x="289" y="379"/>
			<point x="262" y="375"/>
			<point x="251" y="372" type="qcurve"/>
		</contour>
	</outline>
</glyph>
<glyph name="v" format="2">
	<unicode hex="0076"/>
	<advance width="500"/>
	<outline>
		<contour>
			<point x="174" y="0" type="line"/>
			<point x="151" y="91"/>
			<point x="114" y="328"/>
			<point x="106" y="470" type="qcurve"/>
			<point x="234" y="470" type="line"/>
			<point x="235" y="434"/>
			<point x="239" y="348"/>
			<point x="246" y="261"/>
			<point x="255" y="175"/>
			<point x="260" y="139" type="qcurve"/>
			<point x="281" y="169"/>
			<point x="329" y="252"/>
			<point x="374" y="343"/>
			<point x="412" y="433"/>
			<point x="423" y="470" type="qcurve"/>
			<point x="555" y="470" type="line"/>
			<point x="531" y="406"/>
			<point x="465" y="271"/>
			<point x="392" y="146"/>
			<point x="317" y="38"/>
			<point x="285" y="0" type="qcurve"/>
		</contour>
	</outline>
</glyph>
<glyph name="z" format="2">
	<unicode hex="007A"/>
	<advance width="500"/>
	<outline>
		<contour>
			<point x="509" y="380" type="line"/>
			<point x="489" y="363"/>
			<point x="424" y="302"/>
			<point x="346" y="227"/>
			<point x="262" y="143"/>
			<point x="224" y="102" type="qcurve"/>
			<point x="449" y="102" type="line"/>
			<point x="424" y="0" type="line"/>
			<point x="49" y="0" type="line"/>
			<point x="70" y="81" type="line"/>
			<point x="97" y="113"/>
			<point x="166" y="188"/>
			<point x="241" y="265"/>
			<point x="315" y="338"/>
			<point x="347" y="368" type="qcurve"/>
			<point x="144" y="368" type="line"/>
			<point x="169" y="470" type="line"/>
			<point x="530" y="470" type="line"/>
		</contour>
	</outline>
	<guideline x="140"/>
	<guideline x="449"/>
	<guideline y="390"/>
</glyph>
<glyph name="asciitilde" format="2">
	<unicode hex="007E"/>
	<advance width="500"/>
	<outline>
		<contour>
			<point x="530" y="328" type="line"/>
			<point x="518" y="296"/>
			<point x="486" y="239"/>
			<point x="445" y="197"/>
			<point x="393" y="172"/>
			<point x="361" y="172" type="qcurve"/>
			<point x="329" y="172"/>
			<point x="284" y="198"/>
			<point x="265" y="212" type="qcurve"/>
			<point x="250" y="222"/>
			<point x="218" y="240"/>
			<point x="201" y="240" type="qcurve"/>
			<point x="191" y="240"/>
			<point x="175" y="236"/>
			<point x="160" y="223"/>
			<point x="143" y="197"/>
			<point x="133" y="175" type="qcurve"/>
			<point x="50" y="200" type="line"/>
			<point x="60" y="230"/>
			<point x="91" y="287"/>
			<point x="133" y="330"/>
			<point x="186" y="356"/>
			<point x="218" y="356" type="qcurve"/>
			<point x="250" y="356"/>
			<point x="295" y="331"/>
			<point x="315" y="317" type="qcurve"/>
			<point x="329" y="307"/>
			<point x="362" y="288"/>
			<point x="378" y="288" type="qcurve"/>
			<point x="388" y="288"/>
			<point x="404" y="292"/>
			<point x="419" y="306"/>
			<point x="435" y="332"/>
			<point x="446" y="354" type="qcurve"/>
		</contour>
	</outline>
	<guideline y="171"/>
	<guideline y="356"/>
</glyph>
<glyph name="sterling" format="2">
	<unicode hex="00A3"/>
	<advance width="500"/>
	<outline>
		<contour>
			<point x="310" y="349" type="line"/>
			<point x="468" y="349" type="line"/>
			<point x="444" y="247" type="line"/>
			<point x="286" y="247" type="line"/>
			<point x="278" y="215"/>
			<point x="251" y="137"/>
			<point x="238" y="103" type="qcurve"/>
			<point x="484" y="103" type="line"/>
			<point x="460" y="0" type="line"/>
			<point x="76" y="0" type="line"/>
			<point x="110" y="75"/>
			<point x="149" y="196"/>
			<point x="163" y="247" type="qcurve"/>
			<point x="84" y="247" type="line"/>
			<point x="108" y="350" type="line"/>
			<point x="188" y="350" type="line"/>
			<point x="211" y="442" type="line"/>
			<point x="224" y="494"/>
			<point x="272" y="567"/>
			<point x="335" y="612"/>
			<point x="409" y="632"/>
			<point x="447" y="632" type="qcurve"/>
			<point x="485" y="632"/>
			<point x="555" y="617"/>
			<point x="581" y="600" type="qcurve"/>
			<point x="531" y="507" type="line"/>
			<point x="511" y="518"/>
			<point x="468" y="528"/>
			<point x="447" y="528" type="qcurve"/>
			<point x="426" y="528"/>
			<point x="390" y="519"/>
			<point x="359" y="494"/>
			<point x="335" y="450"/>
			<point x="326" y="414" type="qcurve"/>
		</contour>
	</outline>
	<guideline x="445" y="0" angle="103.5"/>
</glyph>
<glyph name="yen" format="2">
	<unicode hex="00A5"/>
	<advance width="500"/>
	<outline>
		<contour>
			<point x="322" y="376" type="qcurve"/>
			<point x="411" y="483"/>
			<point x="488" y="619" type="qcurve"/>
			<point x="621" y="619" type="line"/>
			<point x="596" y="579"/>
			<point x="548" y="508"/>
			<point x="497" y="439"/>
			<point x="442" y="368"/>
			<point x="409" y="328" type="qcurve"/>
			<point x="507" y="328" type="line"/>
			<point x="488" y="250" type="line"/>
			<point x="357" y="250" type="line"/>
			<point x="341" y="179" type="line"/>
			<point x="472" y="179" type="line"/>
			<point x="453" y="101" type="line"/>
			<point x="321" y="101" type="line"/>
			<point x="297" y="0" type="line"/>
			<point x="167" y="0" type="line"/>
			<point x="192" y="101" type="line"/>
			<point x="62" y="101" type="line"/>
			<point x="80" y="179" type="line"/>
			<point x="211" y="179" type="line"/>
			<point x="227" y="250" type="line"/>
			<point x="97" y="250" type="line"/>
			<point x="116" y="328" type="line"/>
			<point x="222" y="328" type="line"/>
			<point x="193" y="405"/>
			<point x="143" y="559"/>
			<point x="129" y="619" type="qcurve"/>
			<point x="257" y="619" type="line"/>
			<point x="263" y="589"/>
			<point x="275" y="535"/>
			<point x="290" y="478"/>
			<point x="309" y="415"/>
		</contour>
	</outline>
</glyph>
<glyph name="copyright" format="2">
	<unicode hex="00A9"/>
	<advance width="500"/>
	<outline>
		<contour>
			<point x="364" y="120" type="line"/>
			<point x="347" y="112"/>
			<point x="310" y="104"/>
			<point x="294" y="104" type="qcurve"/>
			<point x="265" y="104"/>
			<point x="222" y="125"/>
			<point x="193" y="160"/>
			<point x="179" y="205"/>
			<point x="179" y="229" type="qcurve"/>
			<point x="179" y="253"/>
			<point x="193" y="299"/>
			<point x="221" y="335"/>
			<point x="265" y="357"/>
			<point x="295" y="357" type="qcurve"/>
			<point x="310" y="357"/>
			<point x="345" y="352"/>
			<point x="363" y="344" type="qcurve"/>
			<point x="342" y="290" type="line"/>
			<point x="331" y="295"/>
			<point x="310" y="298"/>
			<point x="300" y="298" type="qcurve"/>
			<point x="269" y="298"/>
			<point x="242" y="258"/>
			<point x="242" y="233" type="qcurve"/>
			<point x="242" y="201"/>
			<point x="274" y="164"/>
			<point x="305" y="164" type="qcurve"/>
			<point x="313" y="164"/>
			<point x="337" y="168"/>
			<point x="347" y="173" type="qcurve"/>
		</contour>
		<contour>
			<point x="63" y="231" type="qcurve"/>
			<point x="63" y="292"/>
			<point x="101" y="384"/>
			<point x="163" y="445"/>
			<point x="244" y="475"/>
			<point x="288" y="475" type="qcurve"/>
			<point x="332" y="475"/>
			<point x="413" y="445"/>
			<point x="476" y="384"/>
			<point x="514" y="292"/>
			<point x="514" y="231" type="qcurve"/>
			<point x="514" y="170"/>
			<point x="476" y="79"/>
			<point x="413" y="18"/>
			<point x="332" y="-13"/>
			<point x="288" y="-13" type="qcurve"/>
			<point x="244" y="-13"/>
			<point x="163" y="18"/>
			<point x="101" y="79"/>
			<point x="63" y="170"/>
		</contour>
		<contour>
			<point x="288" y="51" type="qcurve"/>
			<point x="317" y="51"/>
			<point x="374" y="74"/>
			<point x="419" y="120"/>
			<point x="446" y="188"/>
			<point x="446" y="232" type="qcurve"/>
			<point x="446" y="275"/>
			<point x="419" y="342"/>
			<point x="374" y="388"/>
			<point x="318" y="412"/>
			<point x="288" y="412" type="qcurve"/>
			<point x="258" y="412"/>
			<point x="201" y="388"/>
			<point x="156" y="342"/>
			<point x="129" y="275"/>
			<point x="129" y="232" type="qcurve"/>
			<point x="129" y="188"/>
			<point x="156" y="120"/>
			<point x="201" y="74"/>
			<point x="258" y="51"/>
		</contour>
	</outline>
	<guideline x="370"/>
	<guideline y="310"/>
</glyph>
<glyph name="ordfeminine" format="2">
	<unicode hex="00AA"/>
	<advance width="500"/>
	<outline>
		<contour>
			<point x="398" y="542" type="line"/>
			<point x="392" y="543"/>
			<point x="380" y="544"/>
			<point x="375" y="544" type="qcurve"/>
			<point x="351" y="544"/>
			<point x="308" y="527"/>
			<point x="275" y="497"/>
			<point x="256" y="454"/>
			<point x="256" y="427" type="qcurve"/>
			<point x="256" y="400"/>
			<point x="284" y="362"/>
			<point x="313" y="362" type="qcurve"/>
			<point x="326" y="362"/>
			<point x="352" y="370"/>
			<point x="366" y="381" type="qcurve"/>
			<point x="365" y="384"/>
			<point x="365" y="394" type="qcurve"/>
			<point x="365" y="408"/>
			<point x="371" y="435"/>
			<point x="374" y="449" type="qcurve"/>
		</contour>
		<contour>
			<point x="472" y="450" type="line"/>
			<point x="469" y="435"/>
			<point x="462" y="399"/>
			<point x="461" y="358"/>
			<point x="468" y="313"/>
			<point x="478" y="288" type="qcurve"/>
			<point x="394" y="276" type="line"/>
			<point x="382" y="304" type="line"/>
			<point x="335" y="272"/>
			<point x="288" y="272" type="qcurve"/>
			<point x="257" y="272"/>
			<point x="210" y="296"/>
			<point x="178" y="336"/>
			<point x="162" y="388"/>
			<point x="162" y="417" type="qcurve"/>
			<point x="162" y="454"/>
			<point x="190" y="531"/>
			<point x="249" y="593"/>
			<point x="337" y="632"/>
			<point x="397" y="632" type="qcurve"/>
			<point x="423" y="632"/>
			<point x="480" y="625"/>
			<point x="512" y="616" type="qcurve"/>
		</contour>
	</outline>
</glyph>
<glyph name="logicalnot" format="2">
	<unicode hex="00AC"/>
	<advance width="500"/>
	<outline>
		<contour>
			<point x="439" y="42" type="line"/>
			<point x="334" y="42" type="line"/>
			<point x="387" y="261" type="line"/>
			<point x="88" y="261" type="line"/>
			<point x="113" y="363" type="line"/>
			<point x="516" y="363" type="line"/>
		</contour>
	</outline>
</glyph>
<glyph name="registered" format="2">
	<unicode hex="00AE"/>
	<advance width="500"/>
	<outline>
		<contour>
			<point x="257" y="187" type="line"/>
			<point x="257" y="110" type="line"/>
			<point x="204" y="110" type="line"/>
			<point x="204" y="348" type="line"/>
			<point x="217" y="352"/>
			<point x="252" y="357"/>
			<point x="271" y="357" type="qcurve"/>
			<point x="328" y="357"/>
			<point x="382" y="313"/>
			<point x="382" y="271" type="qcurve"/>
			<point x="382" y="222"/>
			<point x="343" y="200" type="qcurve"/>
			<point x="354" y="183"/>
			<point x="381" y="136"/>
			<point x="394" y="110" type="qcurve"/>
			<point x="337" y="110" type="line"/>
			<point x="324" y="134"/>
			<point x="303" y="171"/>
			<point x="294" y="187" type="qcurve"/>
		</contour>
		<contour>
			<point x="257" y="237" type="line"/>
			<point x="276" y="237" type="line"/>
			<point x="303" y="237"/>
			<point x="329" y="251"/>
			<point x="329" y="274" type="qcurve"/>
			<point x="329" y="294"/>
			<point x="297" y="307"/>
			<point x="280" y="307" type="qcurve"/>
			<point x="273" y="307"/>
			<point x="262" y="306"/>
			<point x="257" y="305" type="qcurve"/>
		</contour>
		<contour>
			<point x="63" y="231" type="qcurve"/>
			<point x="63" y="292"/>
			<point x="101" y="384"/>
			<point x="163" y="445"/>
			<point x="244" y="475"/>
			<point x="288" y="475" type="qcurve"/>
			<point x="332" y="475"/>
			<point x="413" y="445"/>
			<point x="476" y="384"/>
			<point x="514" y="292"/>
			<point x="514" y="231" type="qcurve"/>
			<point x="514" y="170"/>
			<point x="476" y="79"/>
			<point x="413" y="18"/>
			<point x="332" y="-13"/>
			<point x="288" y="-13" type="qcurve"/>
			<point x="244" y="-13"/>
			<point x="163" y="18"/>
			<point x="101" y="79"/>
			<point x="63" y="170"/>
		</contour>
		<contour>
			<point x="288" y="51" type="qcurve"/>
			<point x="317" y="51"/>
			<point x="374" y="74"/>
			<point x="419" y="120"/>
			<point x="446" y="188"/>
			<point x="446" y="232" type="qcurve"/>
			<point x="446" y="275"/>
			<point x="419" y="342"/>
			<point x="374" y="388"/>
			<point x="318" y="412"/>
			<point x="288" y="412" type="qcurve"/>
			<point x="258" y="412"/>
			<point x="201" y="388"/>
			<point x="156" y="342"/>
			<point x="129" y="275"/>
			<point x="129" y="232" type="qcurve"/>
			<point x="129" y="188"/>
			<point x="156" y="120"/>
			<point x="201" y="74"/>
			<point x="258" y="51"/>
		</contour>
	</outline>
</glyph>
<glyph name="acute" format="2">
	<unicode hex="00B4"/>
	<advance width="500"/>
	<outline>
		<contour>
			<point x="495" y="597" type="line"/>
			<point x="321" y="506" type="line"/>
			<point x="276" y="573" type="line"/>
			<point x="434" y="691" type="line"/>
		</contour>
	</outline>
</glyph>
<glyph name="questiondown" format="2">
	<unicode hex="00BF"/>
	<advance width="500"/>
	<outline>
		<contour>
			<point x="341" y="303" type="qcurve"/>
			<point x="309" y="303"/>
			<point x="267" y="340"/>
			<point x="267" y="377" type="qcurve"/>
			<point x="267" y="397"/>
			<point x="282" y="431"/>
			<point x="307" y="456"/>
			<point x="339" y="470"/>
			<point x="357" y="470" type="qcurve"/>
			<point x="388" y="470"/>
			<point x="431" y="432"/>
			<point x="431" y="395" type="qcurve"/>
			<point x="431" y="374"/>
			<point x="416" y="340"/>
			<point x="391" y="316"/>
			<point x="358" y="303"/>
		</contour>
		<contour>
			<point x="247" y="-67" type="qcurve"/>
			<point x="280" y="-67"/>
			<point x="336" y="-46"/>
			<point x="375" y="-29" type="qcurve"/>
			<point x="390" y="-124" type="line"/>
			<point x="349" y="-146"/>
			<point x="261" y="-170"/>
			<point x="213" y="-170" type="qcurve"/>
			<point x="169" y="-170"/>
			<point x="108" y="-150"/>
			<point x="69" y="-115"/>
			<point x="51" y="-69"/>
			<point x="51" y="-42" type="qcurve"/>
			<point x="51" y="-12"/>
			<point x="69" y="35"/>
			<point x="100" y="75"/>
			<point x="142" y="110"/>
			<point x="167" y="127" type="qcurve"/>
			<point x="190" y="143"/>
			<point x="222" y="168"/>
			<point x="245" y="192"/>
			<point x="261" y="219"/>
			<point x="267" y="238" type="qcurve"/>
			<point x="381" y="238" type="line"/>
			<point x="377" y="215"/>
			<point x="362" y="176"/>
			<point x="336" y="138"/>
			<point x="297" y="102"/>
			<point x="269" y="82" type="qcurve"/>
			<point x="245" y="64"/>
			<point x="212" y="39"/>
			<point x="193" y="17"/>
			<point x="184" y="-6"/>
			<point x="184" y="-21" type="qcurve"/>
			<point x="184" y="-67"/>
		</contour>
	</outline>
</glyph>
<glyph name="Aring" format="2">
	<unicode hex="00C5"/>
	<advance width="500"/>
	<outline>
		<contour>
			<point x="356" y="144" type="line"/>
			<point x="180" y="144" type="line"/>
			<point x="165" y="110"/>
			<point x="133" y="38"/>
			<point x="119" y="0" type="qcurve"/>
			<point x="-6" y="0" type="line"/>
			<point x="78" y="183"/>
			<point x="234" y="491"/>
			<point x="308" y="612" type="qcurve"/>
			<point x="295" y="625"/>
			<point x="280" y="662"/>
			<point x="280" y="685" type="qcurve"/>
			<point x="280" y="710"/>
			<point x="297" y="749"/>
			<point x="326" y="775"/>
			<point x="364" y="788"/>
			<point x="384" y="788" type="qcurve"/>
			<point x="427" y="788"/>
			<point x="490" y="736"/>
			<point x="490" y="685" type="qcurve"/>
			<point x="490" y="654"/>
			<point x="465" y="611"/>
			<point x="445" y="599" type="qcurve"/>
			<point x="459" y="467"/>
			<point x="478" y="171"/>
			<point x="476" y="0" type="qcurve"/>
			<point x="352" y="0" type="line"/>
		</contour>
		<contour>
			<point x="352" y="502" type="qcurve"/>
			<point x="339" y="477"/>
			<point x="314" y="429"/>
			<point x="285" y="370"/>
			<point x="249" y="294"/>
			<point x="226" y="243" type="qcurve"/>
			<point x="358" y="243" type="line"/>
			<point x="359" y="294"/>
			<point x="358" y="370"/>
			<point x="356" y="429"/>
			<point x="353" y="478"/>
		</contour>
		<contour>
			<point x="425" y="685" type="qcurve"/>
			<point x="425" y="706"/>
			<point x="401" y="727"/>
			<point x="384" y="727" type="qcurve"/>
			<point x="369" y="727"/>
			<point x="344" y="706"/>
			<point x="344" y="685" type="qcurve"/>
			<point x="344" y="665"/>
			<point x="369" y="643"/>
			<point x="384" y="643" type="qcurve"/>
			<point x="401" y="643"/>
			<point x="425" y="665"/>
		</contour>
	</outline>
	<guideline y="788"/>
</glyph>
<glyph name="Eth" format="2">
	<unicode hex="00D0"/>
	<advance width="500"/>
	<outline>
		<contour>
			<point x="529" y="409" type="qcurve"/>
			<point x="529" y="329"/>
			<point x="491" y="178"/>
			<point x="409" y="62"/>
			<point x="281" y="-8"/>
			<point x="190" y="-8" type="qcurve"/>
			<point x="157" y="-8"/>
			<point x="85" y="-1"/>
			<point x="50" y="7" type="qcurve"/>
			<point x="113" y="270" type="line"/>
			<point x="55" y="270" type="line"/>
			<point x="80" y="372" type="line"/>
			<point x="137" y="372" type="line"/>
			<point x="195" y="611" type="line"/>
			<point x="233" y="620"/>
			<point x="294" y="626"/>
			<point x="324" y="626" type="qcurve"/>
			<point x="370" y="626"/>
			<point x="445" y="597"/>
			<point x="499" y="541"/>
			<point x="529" y="461"/>
		</contour>
		<contour>
			<point x="234" y="270" type="line"/>
			<point x="193" y="100" type="line"/>
			<point x="198" y="99"/>
			<point x="210" y="99"/>
			<point x="212" y="99" type="qcurve"/>
			<point x="266" y="99"/>
			<point x="340" y="158"/>
			<point x="386" y="249"/>
			<point x="406" y="357"/>
			<point x="406" y="405" type="qcurve"/>
			<point x="406" y="454"/>
			<point x="371" y="519"/>
			<point x="322" y="519" type="qcurve"/>
			<point x="314" y="519"/>
			<point x="299" y="519"/>
			<point x="293" y="518" type="qcurve"/>
			<point x="259" y="372" type="line"/>
			<point x="320" y="372" type="line"/>
			<point x="295" y="270" type="line"/>
		</contour>
	</outline>
</glyph>
<glyph name="Oslash" format="2">
	<unicode hex="00D8"/>
	<advance width="500"/>
	<outline>
		<contour>
			<point x="367" y="633" type="qcurve"/>
			<point x="416" y="633"/>
			<point x="453" y="613" type="qcurve"/>
			<point x="483" y="659" type="line"/>
			<point x="555" y="619" type="line"/>
			<point x="513" y="555" type="line"/>
			<point x="526" y="531"/>
			<point x="540" y="474"/>
			<point x="540" y="441" type="qcurve"/>
			<point x="540" y="402"/>
			<point x="528" y="304"/>
			<point x="500" y="203"/>
			<point x="454" y="107"/>
			<point x="388" y="32"/>
			<point x="299" y="-13"/>
			<point x="241" y="-13" type="qcurve"/>
			<point x="215" y="-13"/>
			<point x="170" y="-2"/>
			<point x="151" y="8" type="qcurve"/>
			<point x="119" y="-40" type="line"/>
			<point x="48" y="0" type="line"/>
			<point x="93" y="68" type="line"/>
			<point x="67" y="114"/>
			<point x="67" y="179" type="qcurve"/>
			<point x="67" y="218"/>
			<point x="79" y="316"/>
			<point x="108" y="417"/>
			<point x="153" y="513"/>
			<point x="220" y="588"/>
			<point x="309" y="633"/>
		</contour>
		<contour>
			<point x="255" y="88" type="qcurve"/>
			<point x="294" y="88"/>
			<point x="355" y="152"/>
			<point x="399" y="250"/>
			<point x="422" y="365"/>
			<point x="422" y="416" type="qcurve"/>
			<point x="213" y="103" type="line"/>
			<point x="220" y="97"/>
			<point x="242" y="88"/>
		</contour>
		<contour>
			<point x="352" y="530" type="qcurve"/>
			<point x="314" y="530"/>
			<point x="252" y="468"/>
			<point x="208" y="374"/>
			<point x="185" y="259"/>
			<point x="185" y="207" type="qcurve"/>
			<point x="391" y="520" type="line"/>
			<point x="384" y="525"/>
			<point x="363" y="530"/>
		</contour>
	</outline>
	<guideline x="114"/>
	<guideline x="308"/>
	<guideline y="310"/>
</glyph>
<glyph name="germandbls" format="2">
	<unicode hex="00DF"/>
	<advance width="500"/>
	<outline>
		<contour>
			<point x="140" y="476" type="line"/>
			<point x="150" y="524"/>
			<point x="185" y="603"/>
			<point x="243" y="661"/>
			<point x="327" y="693"/>
			<point x="387" y="693" type="qcurve"/>
			<point x="428" y="693"/>
			<point x="486" y="673"/>
			<point x="522" y="640"/>
			<point x="538" y="596"/>
			<point x="538" y="573" type="qcurve"/>
			<point x="538" y="525"/>
			<point x="496" y="456"/>
			<point x="471" y="430" type="qcurve"/>
			<point x="446" y="404"/>
			<point x="406" y="361"/>
			<point x="406" y="339" type="qcurve"/>
			<point x="406" y="316"/>
			<point x="438" y="282"/>
			<point x="476" y="244"/>
			<point x="508" y="192"/>
			<point x="508" y="152" type="qcurve"/>
			<point x="508" y="78"/>
			<point x="411" y="-11"/>
			<point x="324" y="-11" type="qcurve"/>
			<point x="277" y="-11"/>
			<point x="230" y="7"/>
			<point x="214" y="16" type="qcurve"/>
			<point x="255" y="112" type="line"/>
			<point x="267" y="104"/>
			<point x="298" y="92"/>
			<point x="320" y="92" type="qcurve"/>
			<point x="346" y="92"/>
			<point x="387" y="119"/>
			<point x="387" y="146" type="qcurve"/>
			<point x="387" y="171"/>
			<point x="357" y="208"/>
			<point x="322" y="244"/>
			<point x="292" y="286"/>
			<point x="292" y="316" type="qcurve"/>
			<point x="292" y="357"/>
			<point x="336" y="418"/>
			<point x="363" y="447" type="qcurve"/>
			<point x="383" y="469"/>
			<point x="418" y="515"/>
			<point x="418" y="547" type="qcurve"/>
			<point x="418" y="567"/>
			<point x="389" y="588"/>
			<point x="364" y="588" type="qcurve"/>
			<point x="326" y="588"/>
			<point x="274" y="530"/>
			<point x="263" y="479" type="qcurve"/>
			<point x="171" y="26" type="line"/>
			<point x="152" y="-68"/>
			<point x="52" y="-168"/>
			<point x="-32" y="-168" type="qcurve"/>
			<point x="-58" y="-168"/>
			<point x="-102" y="-157"/>
			<point x="-122" y="-148" type="qcurve"/>
			<point x="-88" y="-44" type="line"/>
			<point x="-75" y="-49"/>
			<point x="-48" y="-56"/>
			<point x="-34" y="-56" type="qcurve"/>
			<point x="-15" y="-56"/>
			<point x="12" y="-42"/>
			<point x="31" y="-19"/>
			<point x="43" y="12"/>
			<point x="47" y="30" type="qcurve"/>
		</contour>
	</outline>
</glyph>
<glyph name="ae" format="2">
	<unicode hex="00E6"/>
	<advance width="500"/>
	<outline>
		<contour>
			<point x="457" y="359" type="qcurve"/>
			<point x="457" y="373"/>
			<point x="445" y="393"/>
			<point x="427" y="393" type="qcurve"/>
			<point x="417" y="393"/>
			<point x="392" y="377"/>
			<point x="367" y="343"/>
			<point x="344" y="289"/>
			<point x="336" y="250" type="qcurve"/>
			<point x="362" y="250"/>
			<point x="407" y="267"/>
			<point x="439" y="296"/>
			<point x="457" y="336"/>
		</contour>
		<contour>
			<point x="147" y="77" type="qcurve"/>
			<point x="157" y="77"/>
			<point x="182" y="93"/>
			<point x="207" y="127"/>
			<point x="230" y="181"/>
			<point x="238" y="220" type="qcurve"/>
			<point x="212" y="220"/>
			<point x="167" y="203"/>
			<point x="135" y="173"/>
			<point x="117" y="133"/>
			<point x="117" y="111" type="qcurve"/>
			<point x="117" y="97"/>
			<point x="129" y="77"/>
		</contour>
		<contour>
			<point x="30" y="93" type="qcurve"/>
			<point x="30" y="143"/>
			<point x="65" y="218"/>
			<point x="123" y="269"/>
			<point x="201" y="297"/>
			<point x="245" y="301" type="qcurve"/>
			<point x="246" y="305"/>
			<point x="246" y="312"/>
			<point x="246" y="315" type="qcurve"/>
			<point x="246" y="351"/>
			<point x="215" y="391"/>
			<point x="176" y="391" type="qcurve"/>
			<point x="159" y="391"/>
			<point x="123" y="377"/>
			<point x="106" y="365" type="qcurve"/>
			<point x="94" y="453" type="line"/>
			<point x="115" y="467"/>
			<point x="168" y="482"/>
			<point x="196" y="482" type="qcurve"/>
			<point x="241" y="482"/>
			<point x="307" y="436"/>
			<point x="318" y="388" type="qcurve"/>
			<point x="342" y="435"/>
			<point x="410" y="482"/>
			<point x="448" y="482" type="qcurve"/>
			<point x="466" y="482"/>
			<point x="501" y="471"/>
			<point x="528" y="446"/>
			<point x="544" y="406"/>
			<point x="544" y="377" type="qcurve"/>
			<point x="544" y="327"/>
			<point x="510" y="252"/>
			<point x="451" y="201"/>
			<point x="373" y="173"/>
			<point x="330" y="169" type="qcurve"/>
			<point x="329" y="164"/>
			<point x="329" y="158"/>
			<point x="329" y="154" type="qcurve"/>
			<point x="329" y="119"/>
			<point x="359" y="79"/>
			<point x="398" y="79" type="qcurve"/>
			<point x="434" y="79"/>
			<point x="468" y="104" type="qcurve"/>
			<point x="480" y="17" type="line"/>
			<point x="459" y="3"/>
			<point x="406" y="-13"/>
			<point x="379" y="-13" type="qcurve"/>
			<point x="333" y="-13"/>
			<point x="267" y="34"/>
			<point x="256" y="82" type="qcurve"/>
			<point x="232" y="35"/>
			<point x="164" y="-13"/>
			<point x="126" y="-13" type="qcurve"/>
			<point x="108" y="-13"/>
			<point x="73" y="-2"/>
			<point x="46" y="23"/>
			<point x="30" y="63"/>
		</contour>
	</outline>
	<guideline y="59"/>
	<guideline y="210"/>
</glyph>
<glyph name="eth" format="2">
	<unicode hex="00F0"/>
	<advance width="500"/>
	<outline>
		<contour>
			<point x="488" y="534" type="line"/>
			<point x="505" y="463"/>
			<point x="505" y="391" type="qcurve"/>
			<point x="505" y="351"/>
			<point x="495" y="265"/>
			<point x="472" y="181"/>
			<point x="435" y="103"/>
			<point x="407" y="70" type="qcurve"/>
			<point x="375" y="32"/>
			<point x="284" y="-13"/>
			<point x="224" y="-13" type="qcurve"/>
			<point x="182" y="-13"/>
			<point x="122" y="15"/>
			<point x="82" y="61"/>
			<point x="63" y="123"/>
			<point x="63" y="156" type="qcurve"/>
			<point x="63" y="207"/>
			<point x="94" y="303"/>
			<point x="155" y="377"/>
			<point x="245" y="421"/>
			<point x="304" y="421" type="qcurve"/>
			<point x="331" y="421"/>
			<point x="378" y="407"/>
			<point x="394" y="395" type="qcurve"/>
			<point x="394" y="418"/>
			<point x="389" y="478"/>
			<point x="381" y="501" type="qcurve"/>
			<point x="280" y="470" type="line"/>
			<point x="271" y="544" type="line"/>
			<point x="350" y="569" type="line"/>
			<point x="341" y="585"/>
			<point x="306" y="623"/>
			<point x="289" y="635" type="qcurve"/>
			<point x="371" y="693" type="line"/>
			<point x="397" y="675"/>
			<point x="445" y="629"/>
			<point x="461" y="603" type="qcurve"/>
			<point x="572" y="638" type="line"/>
			<point x="586" y="564" type="line"/>
		</contour>
		<contour>
			<point x="373" y="294" type="qcurve"/>
			<point x="359" y="311"/>
			<point x="318" y="323"/>
			<point x="298" y="323" type="qcurve"/>
			<point x="269" y="323"/>
			<point x="226" y="294"/>
			<point x="198" y="248"/>
			<point x="183" y="192"/>
			<point x="183" y="166" type="qcurve"/>
			<point x="183" y="136"/>
			<point x="208" y="94"/>
			<point x="236" y="94" type="qcurve"/>
			<point x="270" y="94"/>
			<point x="318" y="136"/>
			<point x="349" y="197"/>
			<point x="368" y="266"/>
		</contour>
	</outline>
</glyph>
<glyph name="aogonek" format="2">
	<unicode hex="0105"/>
	<advance width="500"/>
	<outline>
		<contour>
			<point x="437" y="-156" type="line"/>
			<point x="420" y="-162"/>
			<point x="375" y="-170"/>
			<point x="352" y="-170" type="qcurve"/>
			<point x="297" y="-170"/>
			<point x="253" y="-138"/>
			<point x="253" y="-117" type="qcurve"/>
			<point x="253" y="-88"/>
			<point x="299" y="-30"/>
			<point x="360" y="5" type="qcurve"/>
			<point x="356" y="14"/>
			<point x="349" y="32"/>
			<point x="348" y="36" type="qcurve"/>
			<point x="328" y="21"/>
			<point x="260" y="-11"/>
			<point x="206" y="-11" type="qcurve"/>
			<point x="140" y="-10"/>
			<point x="64" y="83"/>
			<point x="64" y="172" type="qcurve"/>
			<point x="64" y="240"/>
			<point x="110" y="354"/>
			<point x="190" y="435"/>
			<point x="297" y="480"/>
			<point x="357" y="480" type="qcurve"/>
			<point x="398" y="480"/>
			<point x="482" y="464"/>
			<point x="525" y="447" type="qcurve"/>
			<point x="463" y="192" type="line"/>
			<point x="459" y="174"/>
			<point x="455" y="139"/>
			<point x="455" y="121" type="qcurve"/>
			<point x="455" y="92"/>
			<point x="466" y="37"/>
			<point x="475" y="10" type="qcurve"/>
			<point x="456" y="-3" type="line"/>
			<point x="410" y="-35"/>
			<point x="375" y="-75"/>
			<point x="375" y="-87" type="qcurve"/>
			<point x="375" y="-101"/>
			<point x="397" y="-101" type="qcurve"/>
			<point x="410" y="-101"/>
			<point x="439" y="-94"/>
			<point x="445" y="-92" type="qcurve"/>
		</contour>
		<contour>
			<point x="251" y="94" type="qcurve"/>
			<point x="279" y="94"/>
			<point x="317" y="119"/>
			<point x="331" y="136" type="qcurve"/>
			<point x="333" y="150"/>
			<point x="337" y="176"/>
			<point x="341" y="193" type="qcurve"/>
			<point x="384" y="371" type="line"/>
			<point x="373" y="374"/>
			<point x="349" y="376"/>
			<point x="338" y="376" type="qcurve"/>
			<point x="303" y="376"/>
			<point x="247" y="343"/>
			<point x="207" y="289"/>
			<point x="186" y="219"/>
			<point x="186" y="182" type="qcurve"/>
			<point x="186" y="156"/>
			<point x="195" y="122"/>
			<point x="212" y="102"/>
			<point x="236" y="94"/>
		</contour>
	</outline>
</glyph>
<glyph name="hcircumflex" format="2">
	<unicode hex="0125"/>
	<advance width="500"/>
	<outline>
		<contour>
			<point x="279" y="468" type="line"/>
			<point x="296" y="473"/>
			<point x="332" y="480"/>
			<point x="349" y="480" type="qcurve"/>
			<point x="423" y="480"/>
			<point x="497" y="409"/>
			<point x="497" y="344" type="qcurve"/>
			<point x="497" y="327"/>
			<point x="492" y="287"/>
			<point x="487" y="265" type="qcurve"/>
			<point x="423" y="0" type="line"/>
			<point x="300" y="0" type="line"/>
			<point x="360" y="249" type="line"/>
			<point x="363" y="265"/>
			<point x="371" y="299"/>
			<point x="371" y="316" type="qcurve"/>
			<point x="371" y="339"/>
			<point x="347" y="374"/>
			<point x="313" y="374" type="qcurve"/>
			<point x="300" y="374"/>
			<point x="269" y="369"/>
			<point x="255" y="363" type="qcurve"/>
			<point x="167" y="0" type="line"/>
			<point x="44" y="0" type="line"/>
			<point x="196" y="633" type="line"/>
			<point x="324" y="654" type="line"/>
		</contour>
		<contour>
			<point x="471" y="730" type="line"/>
			<point x="423" y="678" type="line"/>
			<point x="351" y="731" type="line"/>
			<point x="251" y="677" type="line"/>
			<point x="220" y="729" type="line"/>
			<point x="361" y="829" type="line"/>
		</contour>
	</outline>
</glyph>
<glyph name="hbar" format="2">
	<unicode hex="0127"/>
	<advance width="500"/>
	<outline>
		<contour>
			<point x="204" y="615" type="line"/>
			<point x="219" y="673" type="line"/>
			<point x="346" y="694" type="line"/>
			<point x="327" y="615" type="line"/>
			<point x="455" y="615" type="line"/>
			<point x="435" y="532" type="line"/>
			<point x="307" y="532" type="line"/>
			<point x="291" y="466" type="line"/>
			<point x="303" y="471"/>
			<point x="341" y="479"/>
			<point x="367" y="479" type="qcurve"/>
			<point x="401" y="479"/>
			<point x="450" y="457"/>
			<point x="482" y="419"/>
			<point x="496" y="368"/>
			<point x="496" y="338" type="qcurve"/>
			<point x="496" y="320"/>
			<point x="491" y="283"/>
			<point x="486" y="263" type="qcurve"/>
			<point x="423" y="0" type="line"/>
			<point x="300" y="0" type="line"/>
			<point x="359" y="247" type="line"/>
			<point x="362" y="260"/>
			<point x="369" y="294"/>
			<point x="369" y="312" type="qcurve"/>
			<point x="369" y="336"/>
			<point x="350" y="374"/>
			<point x="321" y="374" type="qcurve"/>
			<point x="307" y="374"/>
			<point x="283" y="371"/>
			<point x="269" y="369" type="qcurve"/>
			<point x="180" y="0" type="line"/>
			<point x="57" y="0" type="line"/>
			<point x="185" y="532" type="line"/>
			<point x="130" y="532" type="line"/>
			<point x="150" y="615" type="line"/>
		</contour>
	</outline>
	<guideline y="615"/>
</glyph>
<glyph name="IJ" format="2">
	<unicode hex="0132"/>
	<advance width="500"/>
	<outline>
		<contour>
			<point x="13" y="0" type="line"/>
			<point x="163" y="619" type="line"/>
			<point x="277" y="619" type="line"/>
			<point x="128" y="0" type="line"/>
		</contour>
		<contour>
			<point x="504" y="207" type="line"/>
			<point x="495" y="160"/>
			<point x="467" y="79"/>
			<point x="421" y="20"/>
			<point x="354" y="-13"/>
			<point x="305" y="-13" type="qcurve"/>
			<point x="256" y="-13"/>
			<point x="184" y="22"/>
			<point x="165" y="45" type="qcurve"/>
			<point x="222" y="124" type="line"/>
			<point x="236" y="109"/>
			<point x="278" y="85"/>
			<point x="297" y="85" type="qcurve"/>
			<point x="316" y="85"/>
			<point x="343" y="97"/>
			<point x="364" y="125"/>
			<point x="380" y="171"/>
			<point x="388" y="205" type="qcurve"/>
			<point x="488" y="619" type="line"/>
			<point x="602" y="619" type="line"/>
		</contour>
	</outline>
</glyph>
<glyph name="Jcircumflex" format="2">
  <advance width="500"/>
  <unicode hex="0134"/>
  <outline>
    <contour>
      <point x="254" y="619" type="line"/>
      <point x="238" y="549" type="line"/>
      <point x="448" y="549" type="line"/>
      <point x="366" y="207" type="line" smooth="yes"/>
      <point x="341" y="103"/>
      <point x="299" y="58"/>
      <point x="220" y="58" type="curve" smooth="yes"/>
      <point x="162" y="58"/>
      <point x="122" y="90"/>
      <point x="103" y="109" type="curve"/>
      <point x="60" y="44" type="line"/>
      <point x="79" y="23"/>
      <point x="136" y="-13"/>
      <point x="218" y="-13" type="curve" smooth="yes"/>
      <point x="379" y="-13"/>
      <point x="419" y="84"/>
      <point x="447" y="199" type="curve" smooth="yes"/>
      <point x="547" y="619" type="line"/>
    </contour>
    <contour>
      <point x="507" y="657" type="line"/>
      <point x="546" y="694" type="line"/>
      <point x="452" y="826" type="line"/>
      <point x="307" y="702" type="line"/>
      <point x="336" y="661" type="line"/>
      <point x="436" y="735" type="line"/>
    </contour>
  </outline>
</glyph>
<glyph name="lacute" format="2">
	<unicode hex="013A"/>
	<advance width="500"/>
	<outline>
		<contour>
			<point x="455" y="20" type="line"/>
			<point x="451" y="18"/>
			<point x="428" y="7"/>
			<point x="390" y="-3"/>
			<point x="339" y="-11"/>
			<point x="308" y="-11" type="qcurve"/>
			<point x="240" y="-11"/>
			<point x="172" y="59"/>
			<point x="172" y="122" type="qcurve"/>
			<point x="172" y="139"/>
			<point x="177" y="176"/>
			<point x="182" y="196" type="qcurve"/>
			<point x="264" y="543" type="line"/>
			<point x="134" y="543" type="line"/>
			<point x="158" y="645" type="line"/>
			<point x="411" y="645" type="line"/>
			<point x="304" y="188" type="line"/>
			<point x="302" y="178"/>
			<point x="297" y="155"/>
			<point x="297" y="146" type="qcurve"/>
			<point x="297" y="126"/>
			<point x="319" y="96"/>
			<point x="353" y="96" type="qcurve"/>
			<point x="367" y="96"/>
			<point x="396" y="101"/>
			<point x="422" y="109"/>
			<point x="442" y="115"/>
			<point x="447" y="117" type="qcurve"/>
		</contour>
		<contour>
			<point x="488" y="738" type="line"/>
			<point x="285" y="678" type="line"/>
			<point x="269" y="736" type="line"/>
			<point x="463" y="830" type="line"/>
		</contour>
	</outline>
</glyph>
<glyph name="lcaron" format="2">
  <advance width="500"/>
  <unicode hex="013E"/>
  <outline>
    <contour>
      <point x="583" y="119" type="line"/>
      <point x="573" y="115"/>
      <point x="537" y="96"/>
      <point x="488" y="96" type="curve" smooth="yes"/>
      <point x="450" y="96"/>
      <point x="421" y="114"/>
      <point x="421" y="178" type="curve" smooth="yes"/>
      <point x="421" y="688" type="line"/>
      <point x="168" y="688" type="line"/>
      <point x="168" y="586" type="line"/>
      <point x="298" y="586" type="line"/>
      <point x="298" y="187" type="line" smooth="yes"/>
      <point x="298" y="59"/>
      <point x="348" y="-11"/>
      <point x="461" y="-11" type="curve" smooth="yes"/>
      <point x="544" y="-11"/>
      <point x="591" y="15"/>
      <point x="599" y="20" type="curve"/>
    </contour>
    <contour>
      <point x="500" y="693" type="line"/>
      <point x="500" y="475" type="line"/>
      <point x="579" y="475" type="line"/>
      <point x="609" y="693" type="line"/>
    </contour>
  </outline>
</glyph>
<glyph name="OE" format="2">
	<unicode hex="0152"/>
	<advance width="500"/>
	<outline>
		<contour>
			<point x="229" y="99" type="qcurve"/>
			<point x="244" y="99"/>
			<point x="262" y="104" type="qcurve"/>
			<point x="361" y="516" type="line"/>
			<point x="346" y="521"/>
			<point x="330" y="521" type="qcurve"/>
			<point x="293" y="521"/>
			<point x="234" y="449"/>
			<point x="192" y="344"/>
			<point x="169" y="227"/>
			<point x="169" y="182" type="qcurve"/>
			<point x="169" y="142"/>
			<point x="195" y="99"/>
		</contour>
		<contour>
			<point x="262" y="0" type="line"/>
			<point x="249" y="-3"/>
			<point x="223" y="-5"/>
			<point x="209" y="-5" type="qcurve"/>
			<point x="134" y="-5"/>
			<point x="54" y="88"/>
			<point x="54" y="174" type="qcurve"/>
			<point x="54" y="215"/>
			<point x="67" y="315"/>
			<point x="95" y="415"/>
			<point x="141" y="509"/>
			<point x="206" y="581"/>
			<point x="293" y="625"/>
			<point x="349" y="625" type="qcurve"/>
			<point x="364" y="625"/>
			<point x="397" y="621"/>
			<point x="410" y="619" type="qcurve"/>
			<point x="609" y="619" type="line"/>
			<point x="585" y="517" type="line"/>
			<point x="472" y="517" type="line"/>
			<point x="438" y="378" type="line"/>
			<point x="528" y="378" type="line"/>
			<point x="504" y="276" type="line"/>
			<point x="414" y="276" type="line"/>
			<point x="372" y="102" type="line"/>
			<point x="498" y="102" type="line"/>
			<point x="474" y="0" type="line"/>
		</contour>
	</outline>
	<guideline x="-1175"/>
</glyph>
<glyph name="uni0163" format="2">
	<unicode hex="0163"/>
	<advance width="500"/>
	<outline>
		<contour>
			<point x="322" y="-25" type="line"/>
			<point x="344" y="-36"/>
			<point x="362" y="-66"/>
			<point x="362" y="-84" type="qcurve"/>
			<point x="362" y="-125"/>
			<point x="293" y="-170"/>
			<point x="239" y="-170" type="qcurve"/>
			<point x="191" y="-170"/>
			<point x="153" y="-150" type="qcurve"/>
			<point x="179" y="-92" type="line"/>
			<point x="190" y="-98"/>
			<point x="219" y="-105"/>
			<point x="233" y="-105" type="qcurve"/>
			<point x="256" y="-105"/>
			<point x="271" y="-87"/>
			<point x="271" y="-80" type="qcurve"/>
			<point x="271" y="-69"/>
			<point x="260" y="-54"/>
			<point x="245" y="-49" type="qcurve"/>
			<point x="227" y="-43" type="line"/>
			<point x="234" y="-32"/>
			<point x="245" y="-15"/>
			<point x="251" y="-7" type="qcurve"/>
			<point x="195" y="2"/>
			<point x="140" y="69"/>
			<point x="140" y="124" type="qcurve"/>
			<point x="140" y="140"/>
			<point x="144" y="173"/>
			<point x="149" y="192" type="qcurve"/>
			<point x="191" y="368" type="line"/>
			<point x="97" y="368" type="line"/>
			<point x="122" y="470" type="line"/>
			<point x="215" y="470" type="line"/>
			<point x="243" y="588" type="line"/>
			<point x="372" y="608" type="line"/>
			<point x="338" y="470" type="line"/>
			<point x="517" y="470" type="line"/>
			<point x="492" y="368" type="line"/>
			<point x="314" y="368" type="line"/>
			<point x="270" y="185" type="line"/>
			<point x="265" y="160"/>
			<point x="265" y="146" type="qcurve"/>
			<point x="265" y="116"/>
			<point x="306" y="96"/>
			<point x="332" y="96" type="qcurve"/>
			<point x="359" y="96"/>
			<point x="416" y="109"/>
			<point x="443" y="120" type="qcurve"/>
			<point x="442" y="17" type="line"/>
			<point x="393" y="-4"/>
			<point x="332" y="-9" type="qcurve"/>
		</contour>
	</outline>
</glyph>
<glyph name="tbar" format="2">
	<unicode hex="0167"/>
	<advance width="500"/>
	<outline>
		<contour>
			<point x="164" y="204" type="line"/>
			<point x="71" y="204" type="line"/>
			<point x="90" y="287" type="line"/>
			<point x="184" y="287" type="line"/>
			<point x="204" y="368" type="line"/>
			<point x="110" y="368" type="line"/>
			<point x="135" y="470" type="line"/>
			<point x="228" y="470" type="line"/>
			<point x="256" y="588" type="line"/>
			<point x="385" y="608" type="line"/>
			<point x="351" y="470" type="line"/>
			<point x="530" y="470" type="line"/>
			<point x="505" y="368" type="line"/>
			<point x="327" y="368" type="line"/>
			<point x="307" y="287" type="line"/>
			<point x="497" y="287" type="line"/>
			<point x="477" y="204" type="line"/>
			<point x="288" y="204" type="line"/>
			<point x="283" y="185" type="line"/>
			<point x="278" y="160"/>
			<point x="278" y="146" type="qcurve"/>
			<point x="278" y="116"/>
			<point x="319" y="96"/>
			<point x="345" y="96" type="qcurve"/>
			<point x="372" y="96"/>
			<point x="429" y="109"/>
			<point x="456" y="120" type="qcurve"/>
			<point x="455" y="17" type="line"/>
			<point x="424" y="3"/>
			<point x="349" y="-11"/>
			<point x="312" y="-11" type="qcurve"/>
			<point x="232" y="-11"/>
			<point x="153" y="58"/>
			<point x="153" y="124" type="qcurve"/>
			<point x="153" y="140"/>
			<point x="157" y="173"/>
			<point x="162" y="192" type="qcurve"/>
		</contour>
	</outline>
</glyph>
<glyph name="uni0180" format="2">
	<unicode hex="0180"/>
	<advance width="500"/>
	<outline>
		<contour>
			<point x="280" y="452" type="line"/>
			<point x="326" y="474"/>
			<point x="371" y="474" type="qcurve"/>
			<point x="434" y="474"/>
			<point x="510" y="390"/>
			<point x="510" y="295" type="qcurve"/>
			<point x="510" y="227"/>
			<point x="469" y="113"/>
			<point x="395" y="32"/>
			<point x="291" y="-13"/>
			<point x="228" y="-13" type="qcurve"/>
			<point x="187" y="-13"/>
			<point x="93" y="3"/>
			<point x="55" y="17" type="qcurve"/>
			<point x="179" y="532" type="line"/>
			<point x="124" y="532" type="line"/>
			<point x="144" y="615" type="line"/>
			<point x="198" y="615" type="line"/>
			<point x="213" y="673" type="line"/>
			<point x="339" y="694" type="line"/>
			<point x="320" y="615" type="line"/>
			<point x="447" y="615" type="line"/>
			<point x="428" y="532" type="line"/>
			<point x="300" y="532" type="line"/>
		</contour>
		<contour>
			<point x="196" y="97" type="line"/>
			<point x="207" y="95"/>
			<point x="230" y="93"/>
			<point x="241" y="93" type="qcurve"/>
			<point x="277" y="93"/>
			<point x="332" y="125"/>
			<point x="370" y="178"/>
			<point x="390" y="247"/>
			<point x="390" y="285" type="qcurve"/>
			<point x="390" y="337"/>
			<point x="354" y="371"/>
			<point x="328" y="371" type="qcurve"/>
			<point x="311" y="371"/>
			<point x="271" y="359"/>
			<point x="256" y="348" type="qcurve"/>
		</contour>
	</outline>
</glyph>
<glyph name="uni0184" format="2">
	<unicode hex="0184"/>
	<advance width="500"/>
	<outline>
		<contour>
			<point x="115" y="611" type="line"/>
			<point x="163" y="636"/>
			<point x="271" y="677"/>
			<point x="334" y="693" type="qcurve"/>
			<point x="277" y="456" type="line"/>
			<point x="298" y="467"/>
			<point x="345" y="479"/>
			<point x="367" y="479" type="qcurve"/>
			<point x="433" y="479"/>
			<point x="510" y="390"/>
			<point x="510" y="295" type="qcurve"/>
			<point x="510" y="227"/>
			<point x="468" y="113"/>
			<point x="392" y="32"/>
			<point x="286" y="-13"/>
			<point x="222" y="-13" type="qcurve"/>
			<point x="182" y="-13"/>
			<point x="86" y="3"/>
			<point x="48" y="17" type="qcurve"/>
			<point x="172" y="531" type="line"/>
		</contour>
		<contour>
			<point x="190" y="97" type="line"/>
			<point x="201" y="95"/>
			<point x="225" y="93"/>
			<point x="236" y="93" type="qcurve"/>
			<point x="273" y="93"/>
			<point x="329" y="125"/>
			<point x="368" y="178"/>
			<point x="388" y="247"/>
			<point x="388" y="285" type="qcurve"/>
			<point x="388" y="337"/>
			<point x="353" y="376"/>
			<point x="324" y="376" type="qcurve"/>
			<point x="308" y="376"/>
			<point x="267" y="364"/>
			<point x="253" y="353" type="qcurve"/>
		</contour>
	</outline>
</glyph>
<glyph name="uni0185" format="2">
	<unicode hex="0185"/>
	<advance width="500"/>
	<outline>
		<contour>
			<point x="277" y="403" type="line"/>
			<point x="285" y="405"/>
			<point x="310" y="405"/>
			<point x="318" y="405" type="qcurve"/>
			<point x="409" y="405"/>
			<point x="505" y="314"/>
			<point x="505" y="241" type="qcurve"/>
			<point x="505" y="185"/>
			<point x="465" y="94"/>
			<point x="391" y="28"/>
			<point x="284" y="-8"/>
			<point x="218" y="-8" type="qcurve"/>
			<point x="184" y="-8"/>
			<point x="99" y="0"/>
			<point x="63" y="11" type="qcurve"/>
			<point x="173" y="464" type="line"/>
			<point x="113" y="545" type="line"/>
			<point x="164" y="570"/>
			<point x="269" y="612"/>
			<point x="331" y="628" type="qcurve"/>
		</contour>
		<contour>
			<point x="287" y="306" type="qcurve"/>
			<point x="283" y="306"/>
			<point x="263" y="306"/>
			<point x="255" y="305" type="qcurve"/>
			<point x="205" y="100" type="line"/>
			<point x="211" y="99"/>
			<point x="237" y="99"/>
			<point x="243" y="99" type="qcurve"/>
			<point x="279" y="99"/>
			<point x="332" y="119"/>
			<point x="367" y="155"/>
			<point x="384" y="203"/>
			<point x="384" y="231" type="qcurve"/>
			<point x="384" y="266"/>
			<point x="334" y="306"/>
		</contour>
	</outline>
</glyph>
<glyph name="uni0187" format="2">
	<unicode hex="0187"/>
	<advance width="500"/>
	<outline>
		<contour>
			<point x="266" y="-13" type="qcurve"/>
			<point x="218" y="-13"/>
			<point x="148" y="18"/>
			<point x="101" y="75"/>
			<point x="79" y="156"/>
			<point x="79" y="205" type="qcurve"/>
			<point x="79" y="280"/>
			<point x="118" y="433"/>
			<point x="198" y="556"/>
			<point x="317" y="633"/>
			<point x="398" y="633" type="qcurve"/>
			<point x="418" y="633"/>
			<point x="450" y="629"/>
			<point x="468" y="622" type="qcurve"/>
			<point x="491" y="670"/>
			<point x="543" y="702"/>
			<point x="577" y="702" type="qcurve"/>
			<point x="619" y="702"/>
			<point x="655" y="682" type="qcurve"/>
			<point x="611" y="589" type="line"/>
			<point x="600" y="595"/>
			<point x="581" y="599"/>
			<point x="574" y="599" type="qcurve"/>
			<point x="555" y="599"/>
			<point x="536" y="573"/>
			<point x="526" y="551" type="qcurve"/>
			<point x="497" y="490" type="line"/>
			<point x="477" y="505"/>
			<point x="425" y="526"/>
			<point x="386" y="526" type="qcurve"/>
			<point x="340" y="526"/>
			<point x="271" y="468"/>
			<point x="226" y="378"/>
			<point x="203" y="269"/>
			<point x="203" y="217" type="qcurve"/>
			<point x="203" y="190"/>
			<point x="212" y="146"/>
			<point x="234" y="113"/>
			<point x="270" y="95"/>
			<point x="297" y="95" type="qcurve"/>
			<point x="341" y="95"/>
			<point x="401" y="117"/>
			<point x="421" y="129" type="qcurve"/>
			<point x="434" y="30" type="line"/>
			<point x="409" y="14"/>
			<point x="322" y="-13"/>
		</contour>
	</outline>
</glyph>
<glyph name="uni0188" format="2">
	<unicode hex="0188"/>
	<advance width="500"/>
	<outline>
		<contour>
			<point x="71" y="188" type="qcurve"/>
			<point x="71" y="248"/>
			<point x="112" y="355"/>
			<point x="187" y="435"/>
			<point x="290" y="482"/>
			<point x="353" y="482" type="qcurve"/>
			<point x="364" y="482"/>
			<point x="392" y="479"/>
			<point x="403" y="477" type="qcurve"/>
			<point x="424" y="524"/>
			<point x="486" y="562"/>
			<point x="528" y="562" type="qcurve"/>
			<point x="548" y="562"/>
			<point x="586" y="554"/>
			<point x="606" y="546" type="qcurve"/>
			<point x="561" y="453" type="line"/>
			<point x="539" y="461"/>
			<point x="522" y="461" type="qcurve"/>
			<point x="482" y="461"/>
			<point x="465" y="422" type="qcurve"/>
			<point x="437" y="356" type="line"/>
			<point x="419" y="364"/>
			<point x="380" y="375"/>
			<point x="353" y="375" type="qcurve"/>
			<point x="320" y="375"/>
			<point x="262" y="350"/>
			<point x="220" y="304"/>
			<point x="196" y="241"/>
			<point x="196" y="202" type="qcurve"/>
			<point x="196" y="148"/>
			<point x="247" y="97"/>
			<point x="301" y="97" type="qcurve"/>
			<point x="327" y="97"/>
			<point x="375" y="108"/>
			<point x="394" y="116" type="qcurve"/>
			<point x="407" y="14" type="line"/>
			<point x="382" y="4"/>
			<point x="318" y="-13"/>
			<point x="276" y="-13" type="qcurve"/>
			<point x="221" y="-13"/>
			<point x="143" y="19"/>
			<point x="94" y="74"/>
			<point x="71" y="147"/>
		</contour>
	</outline>
	<guideline x="192"/>
	<guideline y="97"/>
	<guideline y="375"/>
</glyph>
<glyph name="uni0195" format="2">
	<unicode hex="0195"/>
	<advance width="500"/>
	<outline>
		<contour>
			<point x="174" y="673" type="line"/>
			<point x="276" y="694" type="line"/>
			<point x="221" y="463" type="line"/>
			<point x="233" y="470"/>
			<point x="273" y="478"/>
			<point x="287" y="478" type="qcurve"/>
			<point x="311" y="478"/>
			<point x="343" y="462"/>
			<point x="363" y="435"/>
			<point x="371" y="400"/>
			<point x="371" y="381" type="qcurve"/>
			<point x="371" y="354"/>
			<point x="363" y="325" type="qcurve"/>
			<point x="341" y="232" type="line"/>
			<point x="333" y="199"/>
			<point x="321" y="137"/>
			<point x="321" y="114" type="qcurve"/>
			<point x="321" y="97"/>
			<point x="331" y="76"/>
			<point x="345" y="76" type="qcurve"/>
			<point x="359" y="76"/>
			<point x="377" y="88"/>
			<point x="391" y="121"/>
			<point x="406" y="179"/>
			<point x="417" y="224" type="qcurve"/>
			<point x="475" y="470" type="line"/>
			<point x="572" y="470" type="line"/>
			<point x="511" y="215" type="line"/>
			<point x="498" y="161"/>
			<point x="473" y="76"/>
			<point x="435" y="17"/>
			<point x="377" y="-13"/>
			<point x="330" y="-13" type="qcurve"/>
			<point x="298" y="-13"/>
			<point x="256" y="4"/>
			<point x="231" y="33"/>
			<point x="221" y="73"/>
			<point x="221" y="96" type="qcurve"/>
			<point x="221" y="128"/>
			<point x="235" y="196"/>
			<point x="243" y="228" type="qcurve"/>
			<point x="268" y="333" type="line"/>
			<point x="271" y="346"/>
			<point x="271" y="357" type="qcurve"/>
			<point x="271" y="371"/>
			<point x="257" y="389"/>
			<point x="238" y="389" type="qcurve"/>
			<point x="225" y="389"/>
			<point x="210" y="386"/>
			<point x="202" y="382" type="qcurve"/>
			<point x="110" y="0" type="line"/>
			<point x="13" y="0" type="line"/>
		</contour>
	</outline>
	<guideline x="109" y="0" angle="103.5"/>
</glyph>
<glyph name="uni0199" format="2">
	<unicode hex="0199"/>
	<advance width="500"/>
	<outline>
		<contour>
			<point x="181" y="525" type="line"/>
			<point x="193" y="573"/>
			<point x="227" y="638"/>
			<point x="272" y="677"/>
			<point x="331" y="693"/>
			<point x="368" y="693" type="qcurve"/>
			<point x="386" y="693"/>
			<point x="419" y="687"/>
			<point x="439" y="680" type="qcurve"/>
			<point x="409" y="588" type="line"/>
			<point x="400" y="590"/>
			<point x="384" y="593"/>
			<point x="376" y="593" type="qcurve"/>
			<point x="352" y="593"/>
			<point x="314" y="567"/>
			<point x="305" y="528" type="qcurve"/>
			<point x="247" y="290" type="line"/>
			<point x="265" y="305"/>
			<point x="313" y="349"/>
			<point x="363" y="398"/>
			<point x="410" y="449"/>
			<point x="427" y="470" type="qcurve"/>
			<point x="567" y="470" type="line"/>
			<point x="519" y="412"/>
			<point x="399" y="299"/>
			<point x="345" y="254" type="qcurve"/>
			<point x="363" y="232"/>
			<point x="400" y="169"/>
			<point x="436" y="99"/>
			<point x="466" y="29"/>
			<point x="476" y="0" type="qcurve"/>
			<point x="343" y="0" type="line"/>
			<point x="335" y="25"/>
			<point x="309" y="89"/>
			<point x="279" y="153"/>
			<point x="247" y="209"/>
			<point x="232" y="227" type="qcurve"/>
			<point x="178" y="0" type="line"/>
			<point x="54" y="0" type="line"/>
		</contour>
	</outline>
	<guideline y="525"/>
	<guideline y="528"/>
</glyph>
<glyph name="uni019D" format="2">
	<unicode hex="019D"/>
	<advance width="500"/>
	<outline>
		<contour>
			<point x="181" y="619" type="line"/>
			<point x="285" y="619" type="line"/>
			<point x="299" y="575"/>
			<point x="328" y="471"/>
			<point x="353" y="365"/>
			<point x="375" y="261"/>
			<point x="382" y="218" type="qcurve"/>
			<point x="477" y="619" type="line"/>
			<point x="585" y="619" type="line"/>
			<point x="437" y="0" type="line"/>
			<point x="338" y="0" type="line"/>
			<point x="321" y="103"/>
			<point x="279" y="319"/>
			<point x="247" y="444" type="qcurve"/>
			<point x="146" y="18" type="line"/>
			<point x="136" y="-23"/>
			<point x="112" y="-90"/>
			<point x="72" y="-140"/>
			<point x="11" y="-167"/>
			<point x="-34" y="-167" type="qcurve"/>
			<point x="-47" y="-167"/>
			<point x="-83" y="-163"/>
			<point x="-103" y="-155" type="qcurve"/>
			<point x="-72" y="-56" type="line"/>
			<point x="-61" y="-61"/>
			<point x="-45" y="-63"/>
			<point x="-31" y="-63" type="qcurve"/>
			<point x="18" y="-63"/>
			<point x="33" y="0" type="qcurve"/>
		</contour>
	</outline>
</glyph>
<glyph name="uni01A4" format="2">
	<unicode hex="01A4"/>
	<advance width="500"/>
	<outline>
		<contour>
			<point x="374" y="626" type="qcurve"/>
			<point x="459" y="626"/>
			<point x="563" y="550"/>
			<point x="563" y="465" type="qcurve"/>
			<point x="563" y="420"/>
			<point x="536" y="330"/>
			<point x="477" y="258"/>
			<point x="386" y="212"/>
			<point x="323" y="212" type="qcurve"/>
			<point x="295" y="212" type="line"/>
			<point x="244" y="0" type="line"/>
			<point x="136" y="0" type="line"/>
			<point x="263" y="531" type="line"/>
			<point x="223" y="527"/>
			<point x="187" y="477"/>
			<point x="187" y="442" type="qcurve"/>
			<point x="187" y="435"/>
			<point x="188" y="430" type="qcurve"/>
			<point x="98" y="418" type="line"/>
			<point x="96" y="426"/>
			<point x="96" y="436" type="qcurve"/>
			<point x="96" y="499"/>
			<point x="143" y="574"/>
			<point x="220" y="614"/>
			<point x="320" y="626"/>
		</contour>
		<contour>
			<point x="390" y="533" type="qcurve"/>
			<point x="385" y="533"/>
			<point x="376" y="533"/>
			<point x="371" y="532" type="qcurve"/>
			<point x="318" y="308" type="line"/>
			<point x="344" y="308" type="line"/>
			<point x="371" y="308"/>
			<point x="413" y="336"/>
			<point x="440" y="380"/>
			<point x="454" y="434"/>
			<point x="454" y="459" type="qcurve"/>
			<point x="454" y="494"/>
			<point x="420" y="533"/>
		</contour>
	</outline>
	<guideline y="95"/>
	<guideline y="418"/>
	<guideline x="285" y="0" angle="103.5"/>
</glyph>
<glyph name="uni01A7" format="2">
	<unicode hex="01A7"/>
	<advance width="500"/>
	<outline>
		<contour>
			<point x="187" y="158" type="qcurve"/>
			<point x="187" y="137"/>
			<point x="204" y="111"/>
			<point x="232" y="96"/>
			<point x="266" y="90"/>
			<point x="284" y="90" type="qcurve"/>
			<point x="336" y="90"/>
			<point x="422" y="110"/>
			<point x="452" y="123" type="qcurve"/>
			<point x="462" y="23" type="line"/>
			<point x="412" y="3"/>
			<point x="316" y="-13"/>
			<point x="265" y="-13" type="qcurve"/>
			<point x="221" y="-13"/>
			<point x="147" y="4"/>
			<point x="93" y="42"/>
			<point x="63" y="102"/>
			<point x="63" y="144" type="qcurve"/>
			<point x="63" y="197"/>
			<point x="101" y="269"/>
			<point x="162" y="319"/>
			<point x="240" y="352"/>
			<point x="279" y="366" type="qcurve"/>
			<point x="308" y="376"/>
			<point x="361" y="397"/>
			<point x="401" y="421"/>
			<point x="425" y="452"/>
			<point x="425" y="473" type="qcurve"/>
			<point x="425" y="507"/>
			<point x="375" y="530"/>
			<point x="338" y="530" type="qcurve"/>
			<point x="307" y="530"/>
			<point x="227" y="513"/>
			<point x="196" y="500" type="qcurve"/>
			<point x="182" y="591" type="line"/>
			<point x="226" y="614"/>
			<point x="329" y="633"/>
			<point x="375" y="633" type="qcurve"/>
			<point x="412" y="633"/>
			<point x="475" y="615"/>
			<point x="521" y="579"/>
			<point x="547" y="527"/>
			<point x="547" y="494" type="qcurve"/>
			<point x="547" y="440"/>
			<point x="510" y="368"/>
			<point x="449" y="319"/>
			<point x="369" y="285"/>
			<point x="327" y="269" type="qcurve"/>
			<point x="297" y="257"/>
			<point x="246" y="236"/>
			<point x="208" y="210"/>
			<point x="187" y="179"/>
		</contour>
	</outline>
</glyph>
<glyph name="uni01B5" format="2">
	<unicode hex="01B5"/>
	<advance width="500"/>
	<outline>
		<contour>
			<point x="459" y="101" type="line"/>
			<point x="434" y="0" type="line"/>
			<point x="28" y="0" type="line"/>
			<point x="47" y="79" type="line"/>
			<point x="108" y="162"/>
			<point x="195" y="267" type="qcurve"/>
			<point x="99" y="267" type="line"/>
			<point x="123" y="365" type="line"/>
			<point x="277" y="365" type="line"/>
			<point x="307" y="400"/>
			<point x="374" y="476"/>
			<point x="412" y="518" type="qcurve"/>
			<point x="160" y="518" type="line"/>
			<point x="185" y="619" type="line"/>
			<point x="571" y="619" type="line"/>
			<point x="547" y="521" type="line"/>
			<point x="509" y="478"/>
			<point x="441" y="401"/>
			<point x="409" y="365" type="qcurve"/>
			<point x="512" y="365" type="line"/>
			<point x="488" y="267" type="line"/>
			<point x="325" y="267" type="line"/>
			<point x="288" y="223"/>
			<point x="220" y="141"/>
			<point x="188" y="101" type="qcurve"/>
		</contour>
	</outline>
</glyph>
<glyph name="uni01B6" format="2">
	<unicode hex="01B6"/>
	<advance width="500"/>
	<outline>
		<contour>
			<point x="449" y="102" type="line"/>
			<point x="424" y="0" type="line"/>
			<point x="49" y="0" type="line"/>
			<point x="69" y="78" type="line"/>
			<point x="92" y="105"/>
			<point x="147" y="166"/>
			<point x="178" y="198" type="qcurve"/>
			<point x="118" y="198" type="line"/>
			<point x="137" y="277" type="line"/>
			<point x="255" y="277" type="line"/>
			<point x="280" y="302"/>
			<point x="328" y="348"/>
			<point x="350" y="368" type="qcurve"/>
			<point x="144" y="368" type="line"/>
			<point x="169" y="470" type="line"/>
			<point x="530" y="470" type="line"/>
			<point x="510" y="383" type="line"/>
			<point x="490" y="366"/>
			<point x="430" y="311"/>
			<point x="395" y="277" type="qcurve"/>
			<point x="474" y="277" type="line"/>
			<point x="455" y="198" type="line"/>
			<point x="314" y="198" type="line"/>
			<point x="290" y="174"/>
			<point x="244" y="125"/>
			<point x="221" y="102" type="qcurve"/>
		</contour>
	</outline>
</glyph>
<glyph name="uni01B8" format="2">
	<unicode hex="01B8"/>
	<advance width="500"/>
	<outline>
		<contour>
			<point x="411" y="285" type="line"/>
			<point x="394" y="285" type="line"/>
			<point x="304" y="285"/>
			<point x="206" y="226"/>
			<point x="206" y="173" type="qcurve"/>
			<point x="206" y="131"/>
			<point x="257" y="89"/>
			<point x="312" y="89" type="qcurve"/>
			<point x="350" y="89"/>
			<point x="426" y="104"/>
			<point x="459" y="120" type="qcurve"/>
			<point x="472" y="21" type="line"/>
			<point x="421" y="-1"/>
			<point x="332" y="-16"/>
			<point x="294" y="-16" type="qcurve"/>
			<point x="247" y="-16"/>
			<point x="169" y="5"/>
			<point x="112" y="47"/>
			<point x="80" y="109"/>
			<point x="80" y="150" type="qcurve"/>
			<point x="80" y="185"/>
			<point x="100" y="250"/>
			<point x="150" y="306"/>
			<point x="235" y="350"/>
			<point x="299" y="364" type="qcurve"/>
			<point x="285" y="385"/>
			<point x="255" y="438"/>
			<point x="225" y="491"/>
			<point x="200" y="538"/>
			<point x="191" y="555" type="qcurve"/>
			<point x="205" y="619" type="line"/>
			<point x="585" y="619" type="line"/>
			<point x="561" y="517" type="line"/>
			<point x="333" y="517" type="line"/>
			<point x="350" y="485"/>
			<point x="400" y="395"/>
			<point x="428" y="353" type="qcurve"/>
		</contour>
	</outline>
	<guideline x="88"/>
	<guideline y="-16"/>
	<guideline y="89"/>
	<guideline y="285"/>
	<guideline y="353"/>
	<guideline y="517"/>
</glyph>
<glyph name="uni01BA" format="2">
	<unicode hex="01BA"/>
	<advance width="500"/>
	<outline>
		<contour>
			<point x="6" y="-170" type="line"/>
			<point x="-1" y="-150"/>
			<point x="-4" y="-124"/>
			<point x="-4" y="-109" type="qcurve"/>
			<point x="-4" y="-76"/>
			<point x="20" y="-29"/>
			<point x="65" y="5"/>
			<point x="129" y="28"/>
			<point x="168" y="38" type="qcurve"/>
			<point x="233" y="54" type="line"/>
			<point x="250" y="58"/>
			<point x="282" y="67"/>
			<point x="306" y="82"/>
			<point x="321" y="106"/>
			<point x="321" y="124" type="qcurve"/>
			<point x="321" y="139"/>
			<point x="311" y="163"/>
			<point x="281" y="180"/>
			<point x="228" y="189"/>
			<point x="185" y="188" type="qcurve"/>
			<point x="199" y="253" type="line"/>
			<point x="217" y="266"/>
			<point x="258" y="298"/>
			<point x="298" y="329"/>
			<point x="334" y="358"/>
			<point x="346" y="368" type="qcurve"/>
			<point x="139" y="368" type="line"/>
			<point x="163" y="470" type="line"/>
			<point x="523" y="470" type="line"/>
			<point x="504" y="389" type="line"/>
			<point x="487" y="376"/>
			<point x="442" y="339"/>
			<point x="392" y="299"/>
			<point x="343" y="260"/>
			<point x="324" y="247" type="qcurve"/>
			<point x="361" y="241"/>
			<point x="408" y="217"/>
			<point x="436" y="184"/>
			<point x="447" y="144"/>
			<point x="447" y="123" type="qcurve"/>
			<point x="447" y="66"/>
			<point x="374" y="-17"/>
			<point x="296" y="-36" type="qcurve"/>
			<point x="179" y="-63" type="line"/>
			<point x="134" y="-74"/>
			<point x="104" y="-104"/>
			<point x="104" y="-124" type="qcurve"/>
			<point x="104" y="-132"/>
			<point x="106" y="-141"/>
			<point x="108" y="-149" type="qcurve"/>
		</contour>
	</outline>
	<guideline y="368"/>
</glyph>
<glyph name="uni01BB" format="2">
	<unicode hex="01BB"/>
	<advance width="500"/>
	<outline>
		<contour>
			<point x="171" y="558" type="line"/>
			<point x="206" y="599"/>
			<point x="312" y="632"/>
			<point x="369" y="632" type="qcurve"/>
			<point x="410" y="632"/>
			<point x="471" y="611"/>
			<point x="512" y="573"/>
			<point x="532" y="523"/>
			<point x="532" y="493" type="qcurve"/>
			<point x="532" y="458"/>
			<point x="501" y="388"/>
			<point x="463" y="346" type="qcurve"/>
			<point x="525" y="346" type="line"/>
			<point x="504" y="257" type="line"/>
			<point x="368" y="257" type="line"/>
			<point x="324" y="225"/>
			<point x="239" y="156"/>
			<point x="201" y="102" type="qcurve"/>
			<point x="469" y="102" type="line"/>
			<point x="444" y="0" type="line"/>
			<point x="46" y="0" type="line"/>
			<point x="51" y="45"/>
			<point x="82" y="120"/>
			<point x="126" y="182"/>
			<point x="182" y="234"/>
			<point x="212" y="257" type="qcurve"/>
			<point x="133" y="257" type="line"/>
			<point x="153" y="346" type="line"/>
			<point x="318" y="346" type="line"/>
			<point x="367" y="387"/>
			<point x="406" y="441"/>
			<point x="406" y="470" type="qcurve"/>
			<point x="406" y="496"/>
			<point x="374" y="527"/>
			<point x="342" y="527" type="qcurve"/>
			<point x="313" y="527"/>
			<point x="249" y="506"/>
			<point x="211" y="473" type="qcurve"/>
		</contour>
	</outline>
	<guideline x="406"/>
	<guideline y="102"/>
	<guideline y="527"/>
</glyph>
<glyph name="uni01BE" format="2">
	<unicode hex="01BE"/>
	<advance width="500"/>
	<outline>
		<contour>
			<point x="110" y="368" type="line"/>
			<point x="135" y="470" type="line"/>
			<point x="228" y="470" type="line"/>
			<point x="256" y="588" type="line"/>
			<point x="385" y="608" type="line"/>
			<point x="351" y="470" type="line"/>
			<point x="530" y="470" type="line"/>
			<point x="505" y="368" type="line"/>
			<point x="327" y="368" type="line"/>
			<point x="322" y="347"/>
			<point x="320" y="318"/>
			<point x="328" y="298"/>
			<point x="347" y="285"/>
			<point x="363" y="279" type="qcurve"/>
			<point x="393" y="267"/>
			<point x="437" y="243"/>
			<point x="466" y="213"/>
			<point x="479" y="173"/>
			<point x="479" y="145" type="qcurve"/>
			<point x="479" y="116"/>
			<point x="455" y="60"/>
			<point x="403" y="15"/>
			<point x="322" y="-13"/>
			<point x="264" y="-13" type="qcurve"/>
			<point x="223" y="-13"/>
			<point x="161" y="-3"/>
			<point x="116" y="11"/>
			<point x="85" y="26"/>
			<point x="76" y="31" type="qcurve"/>
			<point x="121" y="128" type="line"/>
			<point x="141" y="117"/>
			<point x="212" y="91"/>
			<point x="261" y="91" type="qcurve"/>
			<point x="313" y="91"/>
			<point x="354" y="119"/>
			<point x="354" y="138" type="qcurve"/>
			<point x="354" y="147"/>
			<point x="347" y="161"/>
			<point x="330" y="173"/>
			<point x="300" y="187"/>
			<point x="277" y="196" type="qcurve"/>
			<point x="244" y="209"/>
			<point x="206" y="237"/>
			<point x="191" y="276"/>
			<point x="195" y="330"/>
			<point x="204" y="368" type="qcurve"/>
		</contour>
	</outline>
</glyph>
<glyph name="uni01C4" format="2">
	<unicode hex="01C4"/>
	<advance width="500"/>
	<outline>
		<contour>
			<point x="450" y="772" type="line"/>
			<point x="489" y="810" type="line"/>
			<point x="554" y="743" type="line"/>
			<point x="660" y="811" type="line"/>
			<point x="689" y="764" type="line"/>
			<point x="540" y="663" type="line"/>
		</contour>
		<contour>
			<point x="610" y="541" type="line"/>
			<point x="587" y="499"/>
			<point x="530" y="389"/>
			<point x="470" y="269"/>
			<point x="410" y="147"/>
			<point x="385" y="93" type="qcurve"/>
			<point x="502" y="93" type="line"/>
			<point x="480" y="0" type="line"/>
			<point x="277" y="0" type="line"/>
			<point x="296" y="76" type="line"/>
			<point x="330" y="148"/>
			<point x="386" y="261"/>
			<point x="437" y="363"/>
			<point x="488" y="465"/>
			<point x="518" y="526" type="qcurve"/>
			<point x="421" y="526" type="line"/>
			<point x="444" y="619" type="line"/>
			<point x="629" y="619" type="line"/>
		</contour>
		<contour>
			<point x="247" y="626" type="qcurve"/>
			<point x="314" y="626"/>
			<point x="371" y="547"/>
			<point x="371" y="456" type="qcurve"/>
			<point x="371" y="409"/>
			<point x="355" y="303"/>
			<point x="324" y="200"/>
			<point x="278" y="107"/>
			<point x="216" y="36"/>
			<point x="140" y="-6"/>
			<point x="94" y="-6" type="qcurve"/>
			<point x="90" y="-6"/>
			<point x="71" y="-5"/>
			<point x="46" y="-3"/>
			<point x="19" y="1"/>
			<point x="8" y="4" type="qcurve"/>
			<point x="154" y="615" type="line"/>
			<point x="179" y="620"/>
			<point x="223" y="626"/>
		</contour>
		<contour>
			<point x="115" y="88" type="line"/>
			<point x="119" y="87"/>
			<point x="125" y="87" type="qcurve"/>
			<point x="158" y="87"/>
			<point x="215" y="157"/>
			<point x="259" y="263"/>
			<point x="284" y="389"/>
			<point x="284" y="446" type="qcurve"/>
			<point x="284" y="501"/>
			<point x="264" y="540"/>
			<point x="235" y="540" type="qcurve"/>
			<point x="227" y="540"/>
			<point x="223" y="539" type="qcurve"/>
		</contour>
	</outline>
</glyph>
<glyph name="uni01C6" format="2">
	<unicode hex="01C6"/>
	<advance width="500"/>
	<outline>
		<contour>
			<point x="442" y="622" type="line"/>
			<point x="481" y="660" type="line"/>
			<point x="533" y="605" type="line"/>
			<point x="615" y="660" type="line"/>
			<point x="645" y="613" type="line"/>
			<point x="520" y="524" type="line"/>
		</contour>
		<contour>
			<point x="580" y="388" type="line"/>
			<point x="561" y="359"/>
			<point x="517" y="287"/>
			<point x="471" y="209"/>
			<point x="425" y="129"/>
			<point x="405" y="93" type="qcurve"/>
			<point x="509" y="93" type="line"/>
			<point x="487" y="0" type="line"/>
			<point x="293" y="0" type="line"/>
			<point x="310" y="71" type="line"/>
			<point x="337" y="119"/>
			<point x="380" y="199"/>
			<point x="421" y="271"/>
			<point x="461" y="340"/>
			<point x="484" y="377" type="qcurve"/>
			<point x="393" y="377" type="line"/>
			<point x="414" y="470" type="line"/>
			<point x="599" y="470" type="line"/>
		</contour>
		<contour>
			<point x="247" y="14" type="line"/>
			<point x="220" y="2"/>
			<point x="165" y="-13"/>
			<point x="140" y="-13" type="qcurve"/>
			<point x="117" y="-13"/>
			<point x="76" y="1"/>
			<point x="46" y="36"/>
			<point x="29" y="92"/>
			<point x="29" y="134" type="qcurve"/>
			<point x="29" y="178"/>
			<point x="54" y="297"/>
			<point x="102" y="405"/>
			<point x="171" y="480"/>
			<point x="215" y="480" type="qcurve"/>
			<point x="239" y="480"/>
			<point x="268" y="463" type="qcurve"/>
			<point x="318" y="674" type="line"/>
			<point x="410" y="693" type="line"/>
		</contour>
		<contour>
			<point x="245" y="368" type="line"/>
			<point x="226" y="387"/>
			<point x="213" y="387" type="qcurve"/>
			<point x="198" y="387"/>
			<point x="172" y="358"/>
			<point x="150" y="311"/>
			<point x="133" y="255"/>
			<point x="120" y="200"/>
			<point x="114" y="153"/>
			<point x="114" y="140" type="qcurve"/>
			<point x="114" y="105"/>
			<point x="135" y="80"/>
			<point x="154" y="80" type="qcurve"/>
			<point x="164" y="80"/>
			<point x="177" y="85" type="qcurve"/>
		</contour>
	</outline>
</glyph>
<glyph name="uni01C7" format="2">
	<unicode hex="01C7"/>
	<advance width="500"/>
	<outline>
		<contour>
			<point x="231" y="0" type="line"/>
			<point x="-3" y="0" type="line"/>
			<point x="145" y="619" type="line"/>
			<point x="232" y="619" type="line"/>
			<point x="104" y="86" type="line"/>
			<point x="252" y="86" type="line"/>
		</contour>
		<contour>
			<point x="292" y="74" type="line"/>
			<point x="313" y="74"/>
			<point x="350" y="80"/>
			<point x="381" y="98"/>
			<point x="404" y="132"/>
			<point x="411" y="160" type="qcurve"/>
			<point x="521" y="619" type="line"/>
			<point x="608" y="619" type="line"/>
			<point x="503" y="179" type="line"/>
			<point x="491" y="129"/>
			<point x="464" y="57"/>
			<point x="415" y="10"/>
			<point x="335" y="-12"/>
			<point x="271" y="-12" type="qcurve"/>
		</contour>
	</outline>
</glyph>
<glyph name="uni01C9" format="2">
	<unicode hex="01C9"/>
	<advance width="500"/>
	<outline>
		<contour>
			<point x="210" y="-69" type="line"/>
			<point x="248" y="-82"/>
			<point x="274" y="-82" type="qcurve"/>
			<point x="304" y="-82"/>
			<point x="346" y="-38"/>
			<point x="358" y="13" type="qcurve"/>
			<point x="468" y="470" type="line"/>
			<point x="555" y="470" type="line"/>
			<point x="448" y="24" type="line"/>
			<point x="425" y="-70"/>
			<point x="344" y="-166"/>
			<point x="268" y="-166" type="qcurve"/>
			<point x="248" y="-166"/>
			<point x="205" y="-158"/>
			<point x="180" y="-148" type="qcurve"/>
		</contour>
		<contour>
			<point x="607" y="612" type="qcurve"/>
			<point x="607" y="597"/>
			<point x="594" y="566"/>
			<point x="572" y="541"/>
			<point x="540" y="526"/>
			<point x="522" y="526" type="qcurve"/>
			<point x="499" y="526"/>
			<point x="468" y="553"/>
			<point x="468" y="576" type="qcurve"/>
			<point x="468" y="595"/>
			<point x="484" y="628"/>
			<point x="508" y="650"/>
			<point x="539" y="663"/>
			<point x="554" y="663" type="qcurve"/>
			<point x="577" y="663"/>
			<point x="607" y="635"/>
		</contour>
		<contour>
			<point x="238" y="-9" type="line"/>
			<point x="192" y="-8"/>
			<point x="132" y="8"/>
			<point x="96" y="35"/>
			<point x="82" y="72"/>
			<point x="82" y="95" type="qcurve"/>
			<point x="82" y="115"/>
			<point x="92" y="164"/>
			<point x="99" y="192" type="qcurve"/>
			<point x="215" y="678" type="line"/>
			<point x="307" y="693" type="line"/>
			<point x="180" y="165" type="line"/>
			<point x="159" y="78"/>
			<point x="259" y="75" type="qcurve"/>
		</contour>
	</outline>
</glyph>
<glyph name="uni01D7" format="2">
	<unicode hex="01D7"/>
	<advance width="500"/>
	<outline>
		<contour>
			<point x="237" y="-13" type="qcurve"/>
			<point x="149" y="-13"/>
			<point x="67" y="71"/>
			<point x="67" y="146" type="qcurve"/>
			<point x="67" y="187"/>
			<point x="79" y="238" type="qcurve"/>
			<point x="166" y="599" type="line"/>
			<point x="289" y="599" type="line"/>
			<point x="203" y="239" type="line"/>
			<point x="198" y="216"/>
			<point x="190" y="175"/>
			<point x="190" y="158" type="qcurve"/>
			<point x="190" y="128"/>
			<point x="218" y="94"/>
			<point x="255" y="94" type="qcurve"/>
			<point x="277" y="94"/>
			<point x="309" y="107"/>
			<point x="333" y="138"/>
			<point x="352" y="190"/>
			<point x="361" y="229" type="qcurve"/>
			<point x="450" y="599" type="line"/>
			<point x="573" y="599" type="line"/>
			<point x="482" y="220" type="line"/>
			<point x="469" y="165"/>
			<point x="436" y="79"/>
			<point x="382" y="19"/>
			<point x="299" y="-13"/>
		</contour>
		<contour>
			<point x="501" y="644" type="qcurve"/>
			<point x="480" y="644"/>
			<point x="451" y="670"/>
			<point x="451" y="693" type="qcurve"/>
			<point x="451" y="722"/>
			<point x="488" y="756"/>
			<point x="511" y="756" type="qcurve"/>
			<point x="532" y="756"/>
			<point x="562" y="729"/>
			<point x="562" y="705" type="qcurve"/>
			<point x="562" y="679"/>
			<point x="523" y="644"/>
		</contour>
		<contour>
			<point x="264" y="644" type="qcurve"/>
			<point x="244" y="644"/>
			<point x="214" y="670"/>
			<point x="214" y="693" type="qcurve"/>
			<point x="214" y="722"/>
			<point x="252" y="756"/>
			<point x="274" y="756" type="qcurve"/>
			<point x="296" y="756"/>
			<point x="325" y="729"/>
			<point x="325" y="705" type="qcurve"/>
			<point x="325" y="679"/>
			<point x="286" y="644"/>
		</contour>
		<contour>
			<point x="476" y="782" type="line"/>
			<point x="399" y="687" type="line"/>
			<point x="343" y="726" type="line"/>
			<point x="408" y="830" type="line"/>
		</contour>
	</outline>
</glyph>
<glyph name="uni01E0" format="2">
	<unicode hex="01E0"/>
	<advance width="500"/>
	<outline>
		<contour>
			<point x="379" y="621" type="qcurve"/>
			<point x="358" y="621"/>
			<point x="329" y="648"/>
			<point x="329" y="670" type="qcurve"/>
			<point x="329" y="699"/>
			<point x="366" y="734"/>
			<point x="389" y="734" type="qcurve"/>
			<point x="410" y="734"/>
			<point x="440" y="706"/>
			<point x="440" y="683" type="qcurve"/>
			<point x="440" y="657"/>
			<point x="401" y="621"/>
		</contour>
		<contour>
			<point x="305" y="830" type="line"/>
			<point x="537" y="830" type="line"/>
			<point x="520" y="759" type="line"/>
			<point x="288" y="759" type="line"/>
		</contour>
		<contour>
			<point x="355" y="124" type="line"/>
			<point x="179" y="124" type="line"/>
			<point x="164" y="95"/>
			<point x="133" y="33"/>
			<point x="119" y="0" type="qcurve"/>
			<point x="-6" y="0" type="line"/>
			<point x="76" y="174"/>
			<point x="230" y="464"/>
			<point x="302" y="579" type="qcurve"/>
			<point x="433" y="579" type="line"/>
			<point x="453" y="452"/>
			<point x="478" y="167"/>
			<point x="476" y="0" type="qcurve"/>
			<point x="352" y="0" type="line"/>
		</contour>
		<contour>
			<point x="342" y="462" type="qcurve"/>
			<point x="330" y="439"/>
			<point x="306" y="394"/>
			<point x="279" y="340"/>
			<point x="247" y="270"/>
			<point x="225" y="223" type="qcurve"/>
			<point x="357" y="223" type="line"/>
			<point x="358" y="270"/>
			<point x="356" y="340"/>
			<point x="351" y="395"/>
			<point x="345" y="439"/>
		</contour>
	</outline>
</glyph>
<glyph name="uni01E9" format="2">
	<unicode hex="01E9"/>
	<advance width="500"/>
	<outline>
		<contour>
			<point x="567" y="470" type="line"/>
			<point x="519" y="412"/>
			<point x="399" y="299"/>
			<point x="345" y="254" type="qcurve"/>
			<point x="363" y="232"/>
			<point x="400" y="169"/>
			<point x="436" y="99"/>
			<point x="466" y="29"/>
			<point x="476" y="0" type="qcurve"/>
			<point x="343" y="0" type="line"/>
			<point x="335" y="25"/>
			<point x="309" y="89"/>
			<point x="279" y="153"/>
			<point x="247" y="209"/>
			<point x="232" y="227" type="qcurve"/>
			<point x="178" y="0" type="line"/>
			<point x="54" y="0" type="line"/>
			<point x="201" y="613" type="line"/>
			<point x="329" y="634" type="line"/>
			<point x="247" y="290" type="line"/>
			<point x="265" y="305"/>
			<point x="313" y="349"/>
			<point x="363" y="398"/>
			<point x="410" y="449"/>
			<point x="427" y="470" type="qcurve"/>
		</contour>
		<contour>
			<point x="230" y="787" type="line"/>
			<point x="275" y="829" type="line"/>
			<point x="347" y="773" type="line"/>
			<point x="442" y="829" type="line"/>
			<point x="476" y="781" type="line"/>
			<point x="337" y="677" type="line"/>
		</contour>
	</outline>
</glyph>
<glyph name="uni01F7" format="2">
	<unicode hex="01F7"/>
	<advance width="500"/>
	<outline>
		<contour>
			<point x="135" y="-165" type="line"/>
			<point x="12" y="-165" type="line"/>
			<point x="192" y="591" type="line"/>
			<point x="227" y="605"/>
			<point x="316" y="626"/>
			<point x="362" y="626" type="qcurve"/>
			<point x="555" y="626"/>
			<point x="555" y="436" type="qcurve"/>
			<point x="555" y="371"/>
			<point x="507" y="241"/>
			<point x="411" y="125"/>
			<point x="269" y="30"/>
			<point x="175" y="0" type="qcurve"/>
		</contour>
		<contour>
			<point x="204" y="121" type="line"/>
			<point x="256" y="139"/>
			<point x="340" y="206"/>
			<point x="399" y="288"/>
			<point x="431" y="378"/>
			<point x="431" y="420" type="qcurve"/>
			<point x="431" y="465"/>
			<point x="394" y="519"/>
			<point x="355" y="519" type="qcurve"/>
			<point x="340" y="519"/>
			<point x="309" y="511"/>
			<point x="296" y="506" type="qcurve"/>
		</contour>
	</outline>
	<guideline y="519"/>
	<guideline y="626"/>
</glyph>
<glyph name="uni0228" format="2">
	<unicode hex="0228"/>
	<advance width="500"/>
	<outline>
		<contour>
			<point x="285" y="-25" type="qcurve"/>
			<point x="307" y="-36"/>
			<point x="325" y="-66"/>
			<point x="325" y="-84" type="qcurve"/>
			<point x="325" y="-125"/>
			<point x="256" y="-170"/>
			<point x="202" y="-170" type="qcurve"/>
			<point x="154" y="-170"/>
			<point x="116" y="-150" type="qcurve"/>
			<point x="142" y="-92" type="line"/>
			<point x="153" y="-98"/>
			<point x="182" y="-105"/>
			<point x="196" y="-105" type="qcurve"/>
			<point x="219" y="-105"/>
			<point x="234" y="-87"/>
			<point x="234" y="-80" type="qcurve"/>
			<point x="234" y="-69"/>
			<point x="223" y="-54"/>
			<point x="208" y="-49" type="qcurve"/>
			<point x="190" y="-43" type="line"/>
			<point x="219" y="0" type="line"/>
			<point x="53" y="0" type="line"/>
			<point x="201" y="619" type="line"/>
			<point x="568" y="619" type="line"/>
			<point x="544" y="517" type="line"/>
			<point x="300" y="517" type="line"/>
			<point x="266" y="378" type="line"/>
			<point x="478" y="378" type="line"/>
			<point x="454" y="276" type="line"/>
			<point x="242" y="276" type="line"/>
			<point x="200" y="102" type="line"/>
			<point x="466" y="102" type="line"/>
			<point x="442" y="0" type="line"/>
			<point x="302" y="0" type="line"/>
			<point x="297" y="-6"/>
			<point x="289" y="-18"/>
		</contour>
	</outline>
</glyph>
<glyph name="uni022A" format="2">
	<unicode hex="022A"/>
	<advance width="500"/>
	<outline>
		<contour>
			<point x="367" y="593" type="qcurve"/>
			<point x="448" y="593"/>
			<point x="540" y="499"/>
			<point x="540" y="421" type="qcurve"/>
			<point x="540" y="384"/>
			<point x="528" y="290"/>
			<point x="500" y="194"/>
			<point x="454" y="102"/>
			<point x="388" y="30"/>
			<point x="299" y="-13"/>
			<point x="241" y="-13" type="qcurve"/>
			<point x="159" y="-13"/>
			<point x="67" y="81"/>
			<point x="67" y="159" type="qcurve"/>
			<point x="67" y="196"/>
			<point x="79" y="290"/>
			<point x="108" y="386"/>
			<point x="153" y="478"/>
			<point x="220" y="550"/>
			<point x="309" y="593"/>
		</contour>
		<contour>
			<point x="255" y="94" type="qcurve"/>
			<point x="296" y="94"/>
			<point x="357" y="160"/>
			<point x="397" y="257"/>
			<point x="417" y="367"/>
			<point x="417" y="412" type="qcurve"/>
			<point x="417" y="443"/>
			<point x="391" y="486"/>
			<point x="353" y="486" type="qcurve"/>
			<point x="312" y="486"/>
			<point x="250" y="420"/>
			<point x="210" y="323"/>
			<point x="190" y="213"/>
			<point x="190" y="168" type="qcurve"/>
			<point x="190" y="137"/>
			<point x="217" y="94"/>
		</contour>
		<contour>
			<point x="303" y="621" type="qcurve"/>
			<point x="281" y="621"/>
			<point x="253" y="648"/>
			<point x="253" y="670" type="qcurve"/>
			<point x="253" y="699"/>
			<point x="290" y="734"/>
			<point x="313" y="734" type="qcurve"/>
			<point x="333" y="734"/>
			<point x="363" y="706"/>
			<point x="363" y="683" type="qcurve"/>
			<point x="363" y="670"/>
			<point x="352" y="647"/>
			<point x="334" y="631"/>
			<point x="313" y="621"/>
		</contour>
		<contour>
			<point x="467" y="621" type="qcurve"/>
			<point x="446" y="621"/>
			<point x="417" y="648"/>
			<point x="417" y="670" type="qcurve"/>
			<point x="417" y="699"/>
			<point x="454" y="734"/>
			<point x="477" y="734" type="qcurve"/>
			<point x="498" y="734"/>
			<point x="528" y="706"/>
			<point x="528" y="683" type="qcurve"/>
			<point x="528" y="657"/>
			<point x="489" y="621"/>
		</contour>
		<contour>
			<point x="308" y="830" type="line"/>
			<point x="540" y="830" type="line"/>
			<point x="523" y="759" type="line"/>
			<point x="291" y="759" type="line"/>
		</contour>
	</outline>
</glyph>
<glyph name="uni022C" format="2">
  <advance width="500"/>
  <unicode hex="022C"/>
  <outline>
    <contour>
      <point x="367" y="593" type="curve" smooth="yes"/>
      <point x="136" y="593"/>
      <point x="67" y="309"/>
      <point x="67" y="159" type="curve" smooth="yes"/>
      <point x="67" y="55"/>
      <point x="132" y="-13"/>
      <point x="241" y="-13" type="curve" smooth="yes"/>
      <point x="472" y="-13"/>
      <point x="540" y="271"/>
      <point x="540" y="421" type="curve" smooth="yes"/>
      <point x="540" y="525"/>
      <point x="475" y="593"/>
    </contour>
    <contour>
      <point x="255" y="94" type="curve" smooth="yes"/>
      <point x="204" y="94"/>
      <point x="190" y="127"/>
      <point x="190" y="168" type="curve" smooth="yes"/>
      <point x="190" y="287"/>
      <point x="243" y="486"/>
      <point x="353" y="486" type="curve" smooth="yes"/>
      <point x="403" y="486"/>
      <point x="417" y="453"/>
      <point x="417" y="412" type="curve" smooth="yes"/>
      <point x="417" y="293"/>
      <point x="364" y="94"/>
    </contour>
    <contour>
      <point x="283" y="759" type="line"/>
      <point x="524" y="759" type="line"/>
      <point x="541" y="830" type="line"/>
      <point x="300" y="830" type="line"/>
    </contour>
    <contour>
      <point x="475" y="737" type="line"/>
      <point x="458" y="712"/>
      <point x="443" y="704"/>
      <point x="430" y="704" type="curve" smooth="yes"/>
      <point x="405" y="704"/>
      <point x="385" y="730"/>
      <point x="347" y="730" type="curve" smooth="yes"/>
      <point x="302" y="730"/>
      <point x="270" y="703"/>
      <point x="244" y="653" type="curve"/>
      <point x="292" y="620" type="line"/>
      <point x="309" y="645"/>
      <point x="324" y="653"/>
      <point x="338" y="653" type="curve" smooth="yes"/>
      <point x="362" y="653"/>
      <point x="382" y="628"/>
      <point x="420" y="628" type="curve" smooth="yes"/>
      <point x="465" y="628"/>
      <point x="497" y="655"/>
      <point x="523" y="705" type="curve"/>
    </contour>
  </outline>
</glyph>
<glyph name="uni0238" format="2">
	<unicode hex="0238"/>
	<advance width="500"/>
	<outline>
		<contour>
			<point x="237" y="13" type="qcurve"/>
			<point x="214" y="1"/>
			<point x="169" y="-13"/>
			<point x="149" y="-13" type="qcurve"/>
			<point x="94" y="-13"/>
			<point x="41" y="61"/>
			<point x="41" y="132" type="qcurve"/>
			<point x="41" y="170"/>
			<point x="54" y="251"/>
			<point x="79" y="328"/>
			<point x="114" y="397"/>
			<point x="156" y="449"/>
			<point x="205" y="480"/>
			<point x="232" y="480" type="qcurve"/>
			<point x="245" y="480"/>
			<point x="279" y="471"/>
			<point x="290" y="460" type="qcurve"/>
			<point x="341" y="672" type="line"/>
			<point x="443" y="693" type="line"/>
			<point x="388" y="463" type="line"/>
			<point x="404" y="471"/>
			<point x="428" y="480"/>
			<point x="442" y="480" type="qcurve"/>
			<point x="480" y="480"/>
			<point x="528" y="405"/>
			<point x="528" y="342" type="qcurve"/>
			<point x="528" y="311"/>
			<point x="517" y="233"/>
			<point x="495" y="155"/>
			<point x="460" y="80"/>
			<point x="412" y="22"/>
			<point x="349" y="-13"/>
			<point x="311" y="-13" type="qcurve"/>
			<point x="293" y="-13"/>
			<point x="253" y="0"/>
		</contour>
		<contour>
			<point x="324" y="82" type="qcurve"/>
			<point x="345" y="82"/>
			<point x="384" y="128"/>
			<point x="413" y="200"/>
			<point x="431" y="289"/>
			<point x="431" y="333" type="qcurve"/>
			<point x="431" y="356"/>
			<point x="417" y="385"/>
			<point x="404" y="385" type="qcurve"/>
			<point x="385" y="385"/>
			<point x="365" y="369" type="qcurve"/>
			<point x="297" y="88" type="line"/>
			<point x="302" y="86"/>
			<point x="316" y="82"/>
		</contour>
		<contour>
			<point x="237" y="385" type="qcurve"/>
			<point x="217" y="385"/>
			<point x="181" y="333"/>
			<point x="154" y="257"/>
			<point x="138" y="171"/>
			<point x="138" y="137" type="qcurve"/>
			<point x="138" y="111"/>
			<point x="159" y="82"/>
			<point x="173" y="82" type="qcurve"/>
			<point x="181" y="82"/>
			<point x="196" y="86"/>
			<point x="201" y="88" type="qcurve"/>
			<point x="269" y="369" type="line"/>
			<point x="262" y="377"/>
			<point x="248" y="385"/>
		</contour>
	</outline>
	<guideline x="48"/>
	<guideline x="54"/>
	<guideline x="125"/>
	<guideline x="452"/>
	<guideline x="530"/>
	<guideline y="82"/>
	<guideline y="385"/>
</glyph>
<glyph name="uni0240" format="2">
	<unicode hex="0240"/>
	<advance width="500"/>
	<outline>
		<contour>
			<point x="196" y="71" type="qcurve"/>
			<point x="227" y="66"/>
			<point x="270" y="23"/>
			<point x="308" y="-27"/>
			<point x="349" y="-66"/>
			<point x="379" y="-66" type="qcurve"/>
			<point x="393" y="-66"/>
			<point x="422" y="-63"/>
			<point x="437" y="-61" type="qcurve"/>
			<point x="426" y="-154" type="line"/>
			<point x="403" y="-161"/>
			<point x="361" y="-165"/>
			<point x="345" y="-165" type="qcurve"/>
			<point x="314" y="-165"/>
			<point x="272" y="-141"/>
			<point x="239" y="-104"/>
			<point x="209" y="-61"/>
			<point x="171" y="-24"/>
			<point x="117" y="0"/>
			<point x="78" y="0" type="qcurve"/>
			<point x="49" y="0" type="line"/>
			<point x="70" y="81" type="line"/>
			<point x="97" y="113"/>
			<point x="166" y="188"/>
			<point x="241" y="265"/>
			<point x="315" y="338"/>
			<point x="347" y="368" type="qcurve"/>
			<point x="144" y="368" type="line"/>
			<point x="169" y="470" type="line"/>
			<point x="530" y="470" type="line"/>
			<point x="509" y="380" type="line"/>
			<point x="489" y="363"/>
			<point x="414" y="293"/>
			<point x="325" y="206"/>
			<point x="233" y="112"/>
		</contour>
	</outline>
</glyph>
<glyph name="uni0242" format="2">
	<unicode hex="0242"/>
	<advance width="500"/>
	<outline>
		<contour>
			<point x="267" y="0" type="line"/>
			<point x="144" y="0" type="line"/>
			<point x="171" y="109" type="line"/>
			<point x="180" y="144"/>
			<point x="217" y="192"/>
			<point x="264" y="226"/>
			<point x="313" y="252"/>
			<point x="354" y="278"/>
			<point x="380" y="311"/>
			<point x="380" y="335" type="qcurve"/>
			<point x="380" y="353"/>
			<point x="355" y="377"/>
			<point x="324" y="377" type="qcurve"/>
			<point x="307" y="377"/>
			<point x="268" y="372"/>
			<point x="230" y="364"/>
			<point x="196" y="354"/>
			<point x="185" y="349" type="qcurve"/>
			<point x="176" y="447" type="line"/>
			<point x="194" y="455"/>
			<point x="240" y="468"/>
			<point x="287" y="477"/>
			<point x="331" y="482"/>
			<point x="349" y="482" type="qcurve"/>
			<point x="379" y="482"/>
			<point x="432" y="470"/>
			<point x="473" y="441"/>
			<point x="497" y="395"/>
			<point x="497" y="362" type="qcurve"/>
			<point x="497" y="319"/>
			<point x="470" y="260"/>
			<point x="428" y="218"/>
			<point x="378" y="188"/>
			<point x="333" y="160"/>
			<point x="298" y="129"/>
			<point x="293" y="107" type="qcurve"/>
		</contour>
	</outline>
</glyph>
<glyph name="uni0248" format="2">
	<unicode hex="0248"/>
	<advance width="500"/>
	<outline>
		<contour>
			<point x="482" y="376" type="line"/>
			<point x="555" y="376" type="line"/>
			<point x="531" y="278" type="line"/>
			<point x="459" y="278" type="line"/>
			<point x="442" y="207" type="line"/>
			<point x="431" y="160"/>
			<point x="399" y="79"/>
			<point x="346" y="20"/>
			<point x="265" y="-13"/>
			<point x="204" y="-13" type="qcurve"/>
			<point x="175" y="-13"/>
			<point x="124" y="0"/>
			<point x="82" y="20"/>
			<point x="49" y="44"/>
			<point x="38" y="55" type="qcurve"/>
			<point x="101" y="144" type="line"/>
			<point x="121" y="126"/>
			<point x="174" y="94"/>
			<point x="202" y="94" type="qcurve"/>
			<point x="248" y="94"/>
			<point x="304" y="145"/>
			<point x="321" y="214" type="qcurve"/>
			<point x="336" y="278" type="line"/>
			<point x="208" y="278" type="line"/>
			<point x="231" y="376" type="line"/>
			<point x="359" y="376" type="line"/>
			<point x="393" y="517" type="line"/>
			<point x="211" y="517" type="line"/>
			<point x="235" y="619" type="line"/>
			<point x="540" y="619" type="line"/>
		</contour>
	</outline>
</glyph>
<glyph name="uni024B" format="2">
	<unicode hex="024B"/>
	<advance width="500"/>
	<outline>
		<contour>
			<point x="415" y="4" type="line"/>
			<point x="413" y="-7"/>
			<point x="409" y="-28"/>
			<point x="409" y="-36" type="qcurve"/>
			<point x="409" y="-50"/>
			<point x="422" y="-66"/>
			<point x="439" y="-66" type="qcurve"/>
			<point x="448" y="-66"/>
			<point x="465" y="-64"/>
			<point x="473" y="-62" type="qcurve"/>
			<point x="465" y="-158" type="line"/>
			<point x="445" y="-164"/>
			<point x="414" y="-167"/>
			<point x="391" y="-167" type="qcurve"/>
			<point x="370" y="-167"/>
			<point x="331" y="-156"/>
			<point x="300" y="-130"/>
			<point x="281" y="-91"/>
			<point x="281" y="-62" type="qcurve"/>
			<point x="281" y="-37"/>
			<point x="288" y="-8" type="qcurve"/>
			<point x="294" y="13" type="line"/>
			<point x="272" y="2"/>
			<point x="231" y="-9"/>
			<point x="207" y="-9" type="qcurve"/>
			<point x="142" y="-9"/>
			<point x="70" y="83"/>
			<point x="70" y="172" type="qcurve"/>
			<point x="70" y="241"/>
			<point x="116" y="354"/>
			<point x="194" y="435"/>
			<point x="299" y="480"/>
			<point x="358" y="480" type="qcurve"/>
			<point x="399" y="480"/>
			<point x="478" y="464"/>
			<point x="522" y="447" type="qcurve"/>
		</contour>
		<contour>
			<point x="380" y="371" type="line"/>
			<point x="369" y="374"/>
			<point x="350" y="376"/>
			<point x="339" y="376" type="qcurve"/>
			<point x="305" y="376"/>
			<point x="251" y="343"/>
			<point x="212" y="289"/>
			<point x="191" y="219"/>
			<point x="191" y="182" type="qcurve"/>
			<point x="191" y="156"/>
			<point x="200" y="122"/>
			<point x="216" y="102"/>
			<point x="238" y="94"/>
			<point x="252" y="94" type="qcurve"/>
			<point x="268" y="94"/>
			<point x="304" y="107"/>
			<point x="319" y="118" type="qcurve"/>
		</contour>
	</outline>
</glyph>
<glyph name="uni024F" format="2">
	<unicode hex="024F"/>
	<advance width="500"/>
	<outline>
		<contour>
			<point x="529" y="241" type="line"/>
			<point x="447" y="241" type="line"/>
			<point x="421" y="184"/>
			<point x="363" y="83"/>
			<point x="328" y="33" type="qcurve"/>
			<point x="304" y="-3"/>
			<point x="247" y="-74"/>
			<point x="180" y="-132"/>
			<point x="100" y="-168"/>
			<point x="53" y="-168" type="qcurve"/>
			<point x="-9" y="-168"/>
			<point x="-43" y="-147" type="qcurve"/>
			<point x="-4" y="-49" type="line"/>
			<point x="12" y="-56"/>
			<point x="40" y="-63"/>
			<point x="62" y="-63" type="qcurve"/>
			<point x="135" y="-63"/>
			<point x="183" y="9" type="qcurve"/>
			<point x="169" y="61"/>
			<point x="146" y="175"/>
			<point x="138" y="241" type="qcurve"/>
			<point x="58" y="241" type="line"/>
			<point x="78" y="324" type="line"/>
			<point x="129" y="324" type="line"/>
			<point x="125" y="359"/>
			<point x="121" y="431"/>
			<point x="121" y="470" type="qcurve"/>
			<point x="247" y="470" type="line"/>
			<point x="248" y="439"/>
			<point x="249" y="364"/>
			<point x="251" y="324" type="qcurve"/>
			<point x="364" y="324" type="line"/>
			<point x="377" y="359"/>
			<point x="400" y="432"/>
			<point x="412" y="470" type="qcurve"/>
			<point x="541" y="470" type="line"/>
			<point x="527" y="430"/>
			<point x="498" y="358"/>
			<point x="484" y="324" type="qcurve"/>
			<point x="548" y="324" type="line"/>
		</contour>
		<contour>
			<point x="271" y="129" type="qcurve"/>
			<point x="288" y="155"/>
			<point x="317" y="210"/>
			<point x="331" y="241" type="qcurve"/>
			<point x="255" y="241" type="line"/>
			<point x="258" y="210"/>
			<point x="265" y="153"/>
		</contour>
	</outline>
</glyph>
<glyph name="breve" format="2">
	<unicode hex="02D8"/>
	<advance width="500"/>
	<outline>
		<contour>
			<point x="336" y="682" type="line"/>
			<point x="335" y="677"/>
			<point x="334" y="669"/>
			<point x="334" y="664" type="qcurve"/>
			<point x="334" y="643"/>
			<point x="353" y="619"/>
			<point x="375" y="619" type="qcurve"/>
			<point x="397" y="619"/>
			<point x="430" y="650"/>
			<point x="435" y="682" type="qcurve"/>
			<point x="526" y="682" type="line"/>
			<point x="523" y="645"/>
			<point x="493" y="589"/>
			<point x="448" y="552"/>
			<point x="393" y="534"/>
			<point x="366" y="534" type="qcurve"/>
			<point x="342" y="534"/>
			<point x="297" y="548"/>
			<point x="263" y="578"/>
			<point x="242" y="622"/>
			<point x="242" y="652" type="qcurve"/>
			<point x="242" y="669"/>
			<point x="246" y="682" type="qcurve"/>
		</contour>
	</outline>
</glyph>
<glyph name="Lambda" format="2">
	<unicode hex="039B"/>
	<advance width="500"/>
	<outline>
		<contour>
			<point x="442" y="619" type="line"/>
			<point x="450" y="560"/>
			<point x="462" y="422"/>
			<point x="471" y="275"/>
			<point x="476" y="125"/>
			<point x="476" y="55" type="qcurve"/>
			<point x="476" y="40"/>
			<point x="476" y="12"/>
			<point x="475" y="0" type="qcurve"/>
			<point x="349" y="0" type="line"/>
			<point x="351" y="47"/>
			<point x="353" y="167"/>
			<point x="353" y="233" type="qcurve"/>
			<point x="353" y="303"/>
			<point x="350" y="437"/>
			<point x="346" y="494" type="qcurve"/>
			<point x="319" y="442"/>
			<point x="257" y="310"/>
			<point x="196" y="175"/>
			<point x="141" y="48"/>
			<point x="122" y="0" type="qcurve"/>
			<point x="-5" y="0" type="line"/>
			<point x="20" y="60"/>
			<point x="89" y="208"/>
			<point x="170" y="371"/>
			<point x="262" y="539"/>
			<point x="311" y="619" type="qcurve"/>
		</contour>
	</outline>
</glyph>
<glyph name="beta" format="2">
	<unicode hex="03B2"/>
	<advance width="500"/>
	<outline>
		<contour>
			<point x="532" y="547" type="qcurve"/>
			<point x="532" y="490"/>
			<point x="467" y="398"/>
			<point x="413" y="372" type="qcurve"/>
			<point x="461" y="353"/>
			<point x="502" y="274"/>
			<point x="502" y="230" type="qcurve"/>
			<point x="502" y="178"/>
			<point x="464" y="90"/>
			<point x="399" y="26"/>
			<point x="313" y="-10"/>
			<point x="264" y="-10" type="qcurve"/>
			<point x="225" y="-10"/>
			<point x="176" y="5"/>
			<point x="156" y="18" type="qcurve"/>
			<point x="113" y="-165" type="line"/>
			<point x="-10" y="-165" type="line"/>
			<point x="145" y="480" type="line"/>
			<point x="171" y="593"/>
			<point x="293" y="693"/>
			<point x="384" y="693" type="qcurve"/>
			<point x="448" y="693"/>
			<point x="532" y="616"/>
		</contour>
		<contour>
			<point x="180" y="118" type="line"/>
			<point x="209" y="96"/>
			<point x="255" y="96" type="qcurve"/>
			<point x="281" y="96"/>
			<point x="327" y="116"/>
			<point x="360" y="152"/>
			<point x="379" y="200"/>
			<point x="379" y="228" type="qcurve"/>
			<point x="379" y="244"/>
			<point x="369" y="275"/>
			<point x="349" y="299"/>
			<point x="319" y="313"/>
			<point x="298" y="313" type="qcurve"/>
			<point x="276" y="313" type="line"/>
			<point x="299" y="411" type="line"/>
			<point x="309" y="411" type="line"/>
			<point x="333" y="411"/>
			<point x="370" y="433"/>
			<point x="397" y="467"/>
			<point x="411" y="511"/>
			<point x="411" y="534" type="qcurve"/>
			<point x="411" y="554"/>
			<point x="389" y="588"/>
			<point x="360" y="588" type="qcurve"/>
			<point x="328" y="588"/>
			<point x="281" y="538"/>
			<point x="267" y="479" type="qcurve"/>
		</contour>
	</outline>
</glyph>
<glyph name="gamma" format="2">
	<unicode hex="03B3"/>
	<advance width="500"/>
	<outline>
		<contour>
			<point x="128" y="-165" type="line"/>
			<point x="136" y="-108"/>
			<point x="145" y="-3"/>
			<point x="145" y="50" type="qcurve"/>
			<point x="145" y="163"/>
			<point x="126" y="371"/>
			<point x="113" y="470" type="qcurve"/>
			<point x="240" y="470" type="line"/>
			<point x="245" y="438"/>
			<point x="252" y="354"/>
			<point x="257" y="264"/>
			<point x="259" y="172"/>
			<point x="259" y="132" type="qcurve"/>
			<point x="324" y="208"/>
			<point x="398" y="379"/>
			<point x="424" y="470" type="qcurve"/>
			<point x="553" y="470" type="line"/>
			<point x="531" y="395"/>
			<point x="478" y="266"/>
			<point x="409" y="151"/>
			<point x="319" y="44"/>
			<point x="261" y="-9" type="qcurve"/>
			<point x="258" y="-56"/>
			<point x="252" y="-133"/>
			<point x="247" y="-165" type="qcurve"/>
		</contour>
	</outline>
</glyph>
<glyph name="delta" format="2">
	<unicode hex="03B4"/>
	<advance width="500"/>
	<outline>
		<contour>
			<point x="68" y="179" type="qcurve"/>
			<point x="68" y="260"/>
			<point x="154" y="398"/>
			<point x="246" y="446" type="qcurve"/>
			<point x="223" y="471"/>
			<point x="201" y="516"/>
			<point x="201" y="547" type="qcurve"/>
			<point x="201" y="587"/>
			<point x="233" y="642"/>
			<point x="286" y="677"/>
			<point x="355" y="693"/>
			<point x="391" y="693" type="qcurve"/>
			<point x="436" y="693"/>
			<point x="520" y="673"/>
			<point x="552" y="656" type="qcurve"/>
			<point x="505" y="563" type="line"/>
			<point x="486" y="575"/>
			<point x="420" y="595"/>
			<point x="386" y="595" type="qcurve"/>
			<point x="357" y="595"/>
			<point x="324" y="568"/>
			<point x="324" y="550" type="qcurve"/>
			<point x="324" y="537"/>
			<point x="341" y="507"/>
			<point x="367" y="477"/>
			<point x="397" y="448"/>
			<point x="409" y="437" type="qcurve"/>
			<point x="456" y="394"/>
			<point x="496" y="297"/>
			<point x="496" y="246" type="qcurve"/>
			<point x="496" y="193"/>
			<point x="461" y="98"/>
			<point x="395" y="28"/>
			<point x="303" y="-13"/>
			<point x="246" y="-13" type="qcurve"/>
			<point x="209" y="-13"/>
			<point x="144" y="10"/>
			<point x="96" y="57"/>
			<point x="68" y="129"/>
		</contour>
		<contour>
			<point x="308" y="375" type="qcurve"/>
			<point x="273" y="359"/>
			<point x="227" y="316"/>
			<point x="200" y="268"/>
			<point x="189" y="218"/>
			<point x="189" y="196" type="qcurve"/>
			<point x="189" y="142"/>
			<point x="232" y="95"/>
			<point x="264" y="95" type="qcurve"/>
			<point x="291" y="95"/>
			<point x="332" y="118"/>
			<point x="359" y="156"/>
			<point x="373" y="205"/>
			<point x="373" y="232" type="qcurve"/>
			<point x="373" y="273"/>
			<point x="341" y="351"/>
		</contour>
	</outline>
	<guideline y="93"/>
</glyph>
<glyph name="lambda" format="2">
	<unicode hex="03BB"/>
	<advance width="500"/>
	<outline>
		<contour>
			<point x="330" y="0" type="line"/>
			<point x="329" y="97"/>
			<point x="322" y="273"/>
			<point x="315" y="332" type="qcurve"/>
			<point x="294" y="298"/>
			<point x="247" y="216"/>
			<point x="202" y="129"/>
			<point x="160" y="40"/>
			<point x="144" y="0" type="qcurve"/>
			<point x="14" y="0" type="line"/>
			<point x="77" y="151"/>
			<point x="225" y="384"/>
			<point x="295" y="474" type="qcurve"/>
			<point x="287" y="532"/>
			<point x="254" y="588"/>
			<point x="213" y="588" type="qcurve"/>
			<point x="199" y="588"/>
			<point x="176" y="584"/>
			<point x="166" y="582" type="qcurve"/>
			<point x="171" y="682" type="line"/>
			<point x="201" y="693"/>
			<point x="253" y="693" type="qcurve"/>
			<point x="292" y="693"/>
			<point x="344" y="666"/>
			<point x="378" y="620"/>
			<point x="398" y="558"/>
			<point x="405" y="524" type="qcurve"/>
			<point x="411" y="491"/>
			<point x="422" y="423"/>
			<point x="427" y="388" type="qcurve"/>
			<point x="441" y="288"/>
			<point x="460" y="88"/>
			<point x="462" y="0" type="qcurve"/>
		</contour>
	</outline>
</glyph>
<glyph name="upsilon" format="2">
	<unicode hex="03C5"/>
	<advance width="500"/>
	<outline>
		<contour>
			<point x="234" y="-13" type="qcurve"/>
			<point x="158" y="-13"/>
			<point x="79" y="62"/>
			<point x="79" y="129" type="qcurve"/>
			<point x="79" y="149"/>
			<point x="86" y="193"/>
			<point x="91" y="216" type="qcurve"/>
			<point x="151" y="470" type="line"/>
			<point x="274" y="470" type="line"/>
			<point x="214" y="219" type="line"/>
			<point x="211" y="205"/>
			<point x="205" y="171"/>
			<point x="205" y="154" type="qcurve"/>
			<point x="205" y="130"/>
			<point x="227" y="95"/>
			<point x="255" y="95" type="qcurve"/>
			<point x="296" y="95"/>
			<point x="334" y="151"/>
			<point x="349" y="216" type="qcurve"/>
			<point x="410" y="470" type="line"/>
			<point x="533" y="470" type="line"/>
			<point x="469" y="203" type="line"/>
			<point x="454" y="142"/>
			<point x="416" y="60"/>
			<point x="361" y="9"/>
			<point x="286" y="-13"/>
		</contour>
	</outline>
	<guideline x="66" y="0" angle="103.5"/>
</glyph>
<glyph name="phi" format="2">
	<unicode hex="03C6"/>
	<advance width="500"/>
	<outline>
		<contour>
			<point x="302" y="84" type="line"/>
			<point x="331" y="89"/>
			<point x="377" y="127"/>
			<point x="408" y="181"/>
			<point x="425" y="245"/>
			<point x="425" y="276" type="qcurve"/>
			<point x="425" y="318"/>
			<point x="404" y="375"/>
			<point x="375" y="387" type="qcurve"/>
		</contour>
		<contour>
			<point x="51" y="196" type="qcurve"/>
			<point x="51" y="262"/>
			<point x="98" y="367"/>
			<point x="177" y="441"/>
			<point x="280" y="480"/>
			<point x="335" y="480" type="qcurve"/>
			<point x="372" y="480"/>
			<point x="441" y="460"/>
			<point x="495" y="413"/>
			<point x="527" y="335"/>
			<point x="527" y="277" type="qcurve"/>
			<point x="527" y="225"/>
			<point x="493" y="128"/>
			<point x="428" y="51"/>
			<point x="337" y="1"/>
			<point x="280" y="-4" type="qcurve"/>
			<point x="242" y="-165" type="line"/>
			<point x="146" y="-165" type="line"/>
			<point x="185" y="-2" type="line"/>
			<point x="114" y="15"/>
			<point x="51" y="118"/>
		</contour>
		<contour>
			<point x="153" y="194" type="qcurve"/>
			<point x="153" y="152"/>
			<point x="179" y="97"/>
			<point x="205" y="86" type="qcurve"/>
			<point x="279" y="387" type="line"/>
			<point x="250" y="382"/>
			<point x="204" y="343"/>
			<point x="171" y="288"/>
			<point x="153" y="224"/>
		</contour>
	</outline>
	<guideline y="78"/>
	<guideline y="408"/>
</glyph>
<glyph name="psi" format="2">
  <advance width="500"/>
  <unicode hex="03C8"/>
  <outline>
    <contour>
      <point x="364" y="357" type="line"/>
      <point x="268" y="357" type="line"/>
      <point x="201" y="79" type="line"/>
      <point x="164" y="86"/>
      <point x="153" y="114"/>
      <point x="153" y="148" type="curve" smooth="yes"/>
      <point x="153" y="179"/>
      <point x="161" y="213"/>
      <point x="166" y="236" type="curve" smooth="yes"/>
      <point x="222" y="470" type="line"/>
      <point x="126" y="470" type="line"/>
      <point x="73" y="246" type="line" smooth="yes"/>
      <point x="65" y="213"/>
      <point x="59" y="171"/>
      <point x="59" y="137" type="curve" smooth="yes"/>
      <point x="59" y="67"/>
      <point x="87" y="4"/>
      <point x="180" y="-10" type="curve"/>
      <point x="142" y="-165" type="line"/>
      <point x="238" y="-165" type="line"/>
      <point x="275" y="-13" type="line"/>
      <point x="397" y="-6"/>
      <point x="458" y="45"/>
      <point x="496" y="206" type="curve" smooth="yes"/>
      <point x="559" y="470" type="line"/>
      <point x="463" y="470" type="line"/>
      <point x="406" y="236" type="line" smooth="yes"/>
      <point x="375" y="107"/>
      <point x="344" y="81"/>
      <point x="297" y="78" type="curve"/>
    </contour>
  </outline>
</glyph>
<glyph name="afii10026" format="2">
	<unicode hex="0418"/>
	<advance width="500"/>
	<outline>
		<contour>
			<point x="26" y="0" type="line"/>
			<point x="174" y="619" type="line"/>
			<point x="284" y="619" type="line"/>
			<point x="185" y="208" type="line"/>
			<point x="211" y="250"/>
			<point x="281" y="355"/>
			<point x="359" y="465"/>
			<point x="439" y="574"/>
			<point x="476" y="619" type="qcurve"/>
			<point x="585" y="619" type="line"/>
			<point x="437" y="0" type="line"/>
			<point x="327" y="0" type="line"/>
			<point x="430" y="428" type="line"/>
			<point x="347" y="314"/>
			<point x="210" y="108"/>
			<point x="143" y="0" type="qcurve"/>
		</contour>
	</outline>
	<guideline x="26" y="0" angle="103.5"/>
	<guideline x="437" y="0" angle="103.5"/>
</glyph>
<glyph name="afii10029" format="2">
  <advance width="500"/>
  <unicode hex="041B"/>
  <outline>
    <contour>
      <point x="18" y="-12" type="line"/>
      <point x="230" y="3"/>
      <point x="286" y="263"/>
      <point x="349" y="517" type="curve"/>
      <point x="444" y="517" type="line"/>
      <point x="320" y="0" type="line"/>
      <point x="440" y="0" type="line"/>
      <point x="588" y="619" type="line"/>
      <point x="265" y="619" type="line"/>
      <point x="240" y="513" type="line" smooth="yes"/>
      <point x="191" y="306"/>
      <point x="148" y="119"/>
      <point x="8" y="93" type="curve"/>
    </contour>
  </outline>
</glyph>
<glyph name="afii10044" format="2">
	<unicode hex="042A"/>
	<advance width="500"/>
	<outline>
		<contour>
			<point x="118" y="517" type="line"/>
			<point x="142" y="619" type="line"/>
			<point x="343" y="619" type="line"/>
			<point x="290" y="403" type="line"/>
			<point x="298" y="405"/>
			<point x="318" y="405"/>
			<point x="326" y="405" type="qcurve"/>
			<point x="366" y="405"/>
			<point x="432" y="381"/>
			<point x="477" y="338"/>
			<point x="502" y="277"/>
			<point x="502" y="241" type="qcurve"/>
			<point x="502" y="185"/>
			<point x="462" y="94"/>
			<point x="390" y="28"/>
			<point x="288" y="-8"/>
			<point x="226" y="-8" type="qcurve"/>
			<point x="192" y="-8"/>
			<point x="112" y="0"/>
			<point x="77" y="11" type="qcurve"/>
			<point x="199" y="517" type="line"/>
		</contour>
		<contour>
			<point x="295" y="306" type="qcurve"/>
			<point x="291" y="306"/>
			<point x="277" y="306"/>
			<point x="268" y="305" type="qcurve"/>
			<point x="219" y="100" type="line"/>
			<point x="225" y="99"/>
			<point x="245" y="99"/>
			<point x="251" y="99" type="qcurve"/>
			<point x="282" y="99"/>
			<point x="330" y="119"/>
			<point x="363" y="155"/>
			<point x="380" y="203"/>
			<point x="380" y="231" type="qcurve"/>
			<point x="380" y="266"/>
			<point x="333" y="306"/>
		</contour>
	</outline>
	<guideline y="733"/>
</glyph>
<glyph name="afii10066" format="2">
	<unicode hex="0431"/>
	<advance width="500"/>
	<outline>
		<contour>
			<point x="558" y="595" type="line"/>
			<point x="543" y="590"/>
			<point x="474" y="581"/>
			<point x="432" y="574" type="qcurve"/>
			<point x="403" y="570"/>
			<point x="350" y="555"/>
			<point x="301" y="525"/>
			<point x="259" y="473"/>
			<point x="242" y="433" type="qcurve"/>
			<point x="271" y="446"/>
			<point x="322" y="457"/>
			<point x="345" y="457" type="qcurve"/>
			<point x="375" y="457"/>
			<point x="433" y="439"/>
			<point x="477" y="399"/>
			<point x="504" y="336"/>
			<point x="504" y="290" type="qcurve"/>
			<point x="504" y="218"/>
			<point x="463" y="105"/>
			<point x="392" y="28"/>
			<point x="294" y="-13"/>
			<point x="237" y="-13" type="qcurve"/>
			<point x="199" y="-13"/>
			<point x="137" y="9"/>
			<point x="91" y="55"/>
			<point x="66" y="129"/>
			<point x="66" y="180" type="qcurve"/>
			<point x="66" y="249"/>
			<point x="105" y="383"/>
			<point x="128" y="444" type="qcurve"/>
			<point x="162" y="539"/>
			<point x="304" y="659"/>
			<point x="431" y="678" type="qcurve"/>
			<point x="481" y="685"/>
			<point x="541" y="692"/>
			<point x="562" y="697" type="qcurve"/>
		</contour>
		<contour>
			<point x="311" y="356" type="qcurve"/>
			<point x="286" y="356"/>
			<point x="234" y="340"/>
			<point x="216" y="329" type="qcurve"/>
			<point x="187" y="253"/>
			<point x="187" y="195" type="qcurve"/>
			<point x="187" y="138"/>
			<point x="222" y="93"/>
			<point x="256" y="93" type="qcurve"/>
			<point x="280" y="93"/>
			<point x="324" y="120"/>
			<point x="359" y="168"/>
			<point x="380" y="232"/>
			<point x="380" y="270" type="qcurve"/>
			<point x="380" y="318"/>
			<point x="342" y="356"/>
		</contour>
	</outline>
</glyph>
<glyph name="afii10069" format="2">
	<unicode hex="0434"/>
	<advance width="500"/>
	<outline>
		<contour>
			<point x="258" y="588" type="qcurve"/>
			<point x="235" y="588"/>
			<point x="194" y="580"/>
			<point x="170" y="570" type="qcurve"/>
			<point x="162" y="675" type="line"/>
			<point x="192" y="685"/>
			<point x="243" y="693"/>
			<point x="272" y="693" type="qcurve"/>
			<point x="324" y="693"/>
			<point x="413" y="664"/>
			<point x="478" y="597"/>
			<point x="514" y="488"/>
			<point x="514" y="409" type="qcurve"/>
			<point x="514" y="297"/>
			<point x="473" y="137"/>
			<point x="401" y="35"/>
			<point x="301" y="-13"/>
			<point x="242" y="-13" type="qcurve"/>
			<point x="157" y="-13"/>
			<point x="68" y="87"/>
			<point x="68" y="173" type="qcurve"/>
			<point x="68" y="236"/>
			<point x="107" y="343"/>
			<point x="174" y="419"/>
			<point x="264" y="462"/>
			<point x="316" y="462" type="qcurve"/>
			<point x="340" y="462"/>
			<point x="382" y="455"/>
			<point x="396" y="447" type="qcurve"/>
			<point x="394" y="490"/>
			<point x="373" y="545"/>
			<point x="336" y="577"/>
			<point x="287" y="588"/>
		</contour>
		<contour>
			<point x="329" y="363" type="qcurve"/>
			<point x="295" y="363"/>
			<point x="243" y="333"/>
			<point x="208" y="281"/>
			<point x="190" y="212"/>
			<point x="190" y="173" type="qcurve"/>
			<point x="190" y="138"/>
			<point x="219" y="94"/>
			<point x="256" y="94" type="qcurve"/>
			<point x="280" y="94"/>
			<point x="326" y="120"/>
			<point x="363" y="179"/>
			<point x="388" y="275"/>
			<point x="392" y="346" type="qcurve"/>
			<point x="373" y="354"/>
			<point x="345" y="363"/>
		</contour>
	</outline>
</glyph>
<glyph name="afii10072" format="2">
	<unicode hex="0436"/>
	<advance width="500"/>
	<outline>
		<contour>
			<point x="529" y="479" type="qcurve"/>
			<point x="541" y="479"/>
			<point x="565" y="476"/>
			<point x="576" y="471" type="qcurve"/>
			<point x="557" y="387" type="line"/>
			<point x="546" y="390"/>
			<point x="534" y="390" type="qcurve"/>
			<point x="514" y="390"/>
			<point x="480" y="344"/>
			<point x="456" y="273"/>
			<point x="443" y="188"/>
			<point x="443" y="150" type="qcurve"/>
			<point x="443" y="118"/>
			<point x="455" y="77"/>
			<point x="470" y="77" type="qcurve"/>
			<point x="478" y="77"/>
			<point x="485" y="77"/>
			<point x="493" y="79" type="qcurve"/>
			<point x="484" y="-3" type="line"/>
			<point x="476" y="-6"/>
			<point x="459" y="-10"/>
			<point x="447" y="-10" type="qcurve"/>
			<point x="417" y="-10"/>
			<point x="382" y="16"/>
			<point x="364" y="57"/>
			<point x="359" y="107"/>
			<point x="359" y="132" type="qcurve"/>
			<point x="359" y="152"/>
			<point x="362" y="184"/>
			<point x="364" y="201" type="qcurve"/>
			<point x="319" y="201" type="line"/>
			<point x="271" y="0" type="line"/>
			<point x="191" y="0" type="line"/>
			<point x="238" y="201" type="line"/>
			<point x="194" y="201" type="line"/>
			<point x="184" y="161"/>
			<point x="161" y="86"/>
			<point x="127" y="27"/>
			<point x="76" y="-9"/>
			<point x="39" y="-9" type="qcurve"/>
			<point x="27" y="-9"/>
			<point x="8" y="-6"/>
			<point x="-8" y="1" type="qcurve"/>
			<point x="9" y="82" type="line"/>
			<point x="16" y="78"/>
			<point x="32" y="78" type="qcurve"/>
			<point x="54" y="78"/>
			<point x="89" y="125"/>
			<point x="114" y="198"/>
			<point x="128" y="285"/>
			<point x="128" y="325" type="qcurve"/>
			<point x="128" y="354"/>
			<point x="113" y="391"/>
			<point x="96" y="391" type="qcurve"/>
			<point x="91" y="391"/>
			<point x="83" y="390"/>
			<point x="79" y="389" type="qcurve"/>
			<point x="87" y="472" type="line"/>
			<point x="99" y="477"/>
			<point x="117" y="479"/>
			<point x="126" y="479" type="qcurve"/>
			<point x="153" y="479"/>
			<point x="187" y="450"/>
			<point x="206" y="405"/>
			<point x="212" y="351"/>
			<point x="212" y="325" type="qcurve"/>
			<point x="212" y="311"/>
			<point x="210" y="286"/>
			<point x="208" y="275" type="qcurve"/>
			<point x="255" y="275" type="line"/>
			<point x="301" y="470" type="line"/>
			<point x="381" y="470" type="line"/>
			<point x="335" y="275" type="line"/>
			<point x="380" y="275" type="line"/>
			<point x="390" y="313"/>
			<point x="414" y="387"/>
			<point x="448" y="444"/>
			<point x="496" y="479"/>
		</contour>
	</outline>
	<guideline y="479"/>
</glyph>
<glyph name="afii10073" format="2">
	<unicode hex="0437"/>
	<advance width="500"/>
	<outline>
		<contour>
			<point x="154" y="455" type="line"/>
			<point x="190" y="469"/>
			<point x="281" y="482"/>
			<point x="323" y="482" type="qcurve"/>
			<point x="369" y="482"/>
			<point x="434" y="463"/>
			<point x="475" y="431"/>
			<point x="493" y="387"/>
			<point x="493" y="363" type="qcurve"/>
			<point x="493" y="334"/>
			<point x="453" y="263"/>
			<point x="401" y="241" type="qcurve"/>
			<point x="434" y="229"/>
			<point x="463" y="177"/>
			<point x="463" y="150" type="qcurve"/>
			<point x="463" y="106"/>
			<point x="420" y="44"/>
			<point x="349" y="5"/>
			<point x="258" y="-13"/>
			<point x="209" y="-13" type="qcurve"/>
			<point x="161" y="-13"/>
			<point x="69" y="3"/>
			<point x="35" y="17" type="qcurve"/>
			<point x="79" y="113" type="line"/>
			<point x="104" y="102"/>
			<point x="171" y="89"/>
			<point x="209" y="89" type="qcurve"/>
			<point x="231" y="89"/>
			<point x="278" y="95"/>
			<point x="316" y="109"/>
			<point x="340" y="132"/>
			<point x="340" y="149" type="qcurve"/>
			<point x="340" y="162"/>
			<point x="325" y="180"/>
			<point x="300" y="190"/>
			<point x="268" y="194"/>
			<point x="251" y="194" type="qcurve"/>
			<point x="169" y="194" type="line"/>
			<point x="190" y="283" type="line"/>
			<point x="276" y="283" type="line"/>
			<point x="324" y="283"/>
			<point x="373" y="316"/>
			<point x="373" y="339" type="qcurve"/>
			<point x="373" y="351"/>
			<point x="358" y="367"/>
			<point x="334" y="377"/>
			<point x="303" y="382"/>
			<point x="287" y="382" type="qcurve"/>
			<point x="236" y="382"/>
			<point x="175" y="369"/>
			<point x="158" y="363" type="qcurve"/>
		</contour>
	</outline>
	<guideline x="497"/>
</glyph>
<glyph name="afii10077" format="2">
	<unicode hex="043B"/>
	<advance width="500"/>
	<outline>
		<contour>
			<point x="12" y="93" type="line"/>
			<point x="33" y="97"/>
			<point x="63" y="110"/>
			<point x="84" y="127"/>
			<point x="100" y="146"/>
			<point x="108" y="157" type="qcurve"/>
			<point x="125" y="181"/>
			<point x="153" y="244"/>
			<point x="176" y="314"/>
			<point x="194" y="385"/>
			<point x="202" y="416" type="qcurve"/>
			<point x="215" y="470" type="line"/>
			<point x="535" y="470" type="line"/>
			<point x="421" y="0" type="line"/>
			<point x="301" y="0" type="line"/>
			<point x="388" y="368" type="line"/>
			<point x="301" y="368" type="line"/>
			<point x="283" y="303"/>
			<point x="243" y="171"/>
			<point x="180" y="63"/>
			<point x="88" y="-9"/>
			<point x="18" y="-12" type="qcurve"/>
		</contour>
	</outline>
</glyph>
<glyph name="afii10086" format="2">
	<unicode hex="0444"/>
	<advance width="500"/>
	<outline>
		<contour>
			<point x="302" y="84" type="line"/>
			<point x="331" y="89"/>
			<point x="377" y="127"/>
			<point x="408" y="181"/>
			<point x="425" y="245"/>
			<point x="425" y="276" type="qcurve"/>
			<point x="425" y="318"/>
			<point x="404" y="375"/>
			<point x="375" y="387" type="qcurve"/>
		</contour>
		<contour>
			<point x="153" y="194" type="qcurve"/>
			<point x="153" y="152"/>
			<point x="179" y="97"/>
			<point x="205" y="86" type="qcurve"/>
			<point x="279" y="387" type="line"/>
			<point x="250" y="382"/>
			<point x="204" y="343"/>
			<point x="171" y="288"/>
			<point x="153" y="224"/>
		</contour>
		<contour>
			<point x="395" y="470" type="line"/>
			<point x="423" y="464"/>
			<point x="472" y="436"/>
			<point x="507" y="389"/>
			<point x="527" y="322"/>
			<point x="527" y="277" type="qcurve"/>
			<point x="527" y="225"/>
			<point x="493" y="128"/>
			<point x="428" y="51"/>
			<point x="337" y="1"/>
			<point x="280" y="-4" type="qcurve"/>
			<point x="242" y="-165" type="line"/>
			<point x="146" y="-165" type="line"/>
			<point x="185" y="-2" type="line"/>
			<point x="114" y="15"/>
			<point x="51" y="118"/>
			<point x="51" y="196" type="qcurve"/>
			<point x="51" y="257"/>
			<point x="93" y="357"/>
			<point x="162" y="429"/>
			<point x="252" y="471"/>
			<point x="300" y="475" type="qcurve"/>
			<point x="346" y="672" type="line"/>
			<point x="448" y="693" type="line"/>
		</contour>
	</outline>
</glyph>
<glyph name="afii10089" format="2">
	<unicode hex="0447"/>
	<advance width="500"/>
	<outline>
		<contour>
			<point x="252" y="470" type="line"/>
			<point x="218" y="327" type="line"/>
			<point x="215" y="313"/>
			<point x="215" y="303" type="qcurve"/>
			<point x="215" y="287"/>
			<point x="228" y="267"/>
			<point x="249" y="255"/>
			<point x="277" y="251"/>
			<point x="293" y="251" type="qcurve"/>
			<point x="309" y="251"/>
			<point x="338" y="253"/>
			<point x="349" y="255" type="qcurve"/>
			<point x="400" y="470" type="line"/>
			<point x="524" y="470" type="line"/>
			<point x="411" y="0" type="line"/>
			<point x="287" y="0" type="line"/>
			<point x="324" y="154" type="line"/>
			<point x="280" y="148"/>
			<point x="242" y="148" type="qcurve"/>
			<point x="209" y="148"/>
			<point x="153" y="162"/>
			<point x="112" y="193"/>
			<point x="88" y="242"/>
			<point x="88" y="276" type="qcurve"/>
			<point x="88" y="300"/>
			<point x="96" y="334" type="qcurve"/>
			<point x="129" y="470" type="line"/>
		</contour>
	</outline>
</glyph>
<glyph name="afii10091" format="2">
	<unicode hex="0449"/>
	<advance width="500"/>
	<outline>
		<contour>
			<point x="383" y="38" type="qcurve"/>
			<point x="366" y="15"/>
			<point x="316" y="-11"/>
			<point x="293" y="-11" type="qcurve"/>
			<point x="271" y="-11"/>
			<point x="236" y="3"/>
			<point x="221" y="20" type="qcurve"/>
			<point x="204" y="3"/>
			<point x="156" y="-12"/>
			<point x="136" y="-12" type="qcurve"/>
			<point x="85" y="-12"/>
			<point x="39" y="52"/>
			<point x="39" y="98" type="qcurve"/>
			<point x="39" y="118"/>
			<point x="44" y="160"/>
			<point x="49" y="180" type="qcurve"/>
			<point x="119" y="470" type="line"/>
			<point x="213" y="470" type="line"/>
			<point x="143" y="176" type="line"/>
			<point x="141" y="168"/>
			<point x="134" y="134"/>
			<point x="134" y="118" type="qcurve"/>
			<point x="134" y="101"/>
			<point x="146" y="79"/>
			<point x="163" y="79" type="qcurve"/>
			<point x="178" y="79"/>
			<point x="196" y="89"/>
			<point x="204" y="95" type="qcurve"/>
			<point x="204" y="114"/>
			<point x="207" y="154"/>
			<point x="213" y="177" type="qcurve"/>
			<point x="256" y="357" type="line"/>
			<point x="346" y="357" type="line"/>
			<point x="303" y="174" type="line"/>
			<point x="298" y="157"/>
			<point x="293" y="127"/>
			<point x="293" y="115" type="qcurve"/>
			<point x="293" y="98"/>
			<point x="305" y="79"/>
			<point x="321" y="79" type="qcurve"/>
			<point x="335" y="79"/>
			<point x="355" y="94"/>
			<point x="361" y="102" type="qcurve"/>
			<point x="363" y="132"/>
			<point x="369" y="165"/>
			<point x="372" y="179" type="qcurve"/>
			<point x="442" y="470" type="line"/>
			<point x="537" y="470" type="line"/>
			<point x="471" y="195" type="line"/>
			<point x="466" y="178"/>
			<point x="461" y="143"/>
			<point x="461" y="127" type="qcurve"/>
			<point x="461" y="105"/>
			<point x="476" y="72"/>
			<point x="497" y="67" type="qcurve"/>
			<point x="450" y="-129" type="line"/>
			<point x="362" y="-129" type="line"/>
			<point x="396" y="14" type="line"/>
			<point x="393" y="17"/>
			<point x="385" y="30"/>
		</contour>
	</outline>
</glyph>
<glyph name="afii10095" format="2">
	<unicode hex="044D"/>
	<advance width="500"/>
	<outline>
		<contour>
			<point x="494" y="284" type="qcurve"/>
			<point x="494" y="215"/>
			<point x="455" y="106"/>
			<point x="380" y="30"/>
			<point x="268" y="-11"/>
			<point x="196" y="-11" type="qcurve"/>
			<point x="155" y="-11"/>
			<point x="73" y="5"/>
			<point x="50" y="19" type="qcurve"/>
			<point x="88" y="117" type="line"/>
			<point x="104" y="110"/>
			<point x="161" y="96"/>
			<point x="197" y="96" type="qcurve"/>
			<point x="264" y="96"/>
			<point x="343" y="144"/>
			<point x="360" y="191" type="qcurve"/>
			<point x="168" y="191" type="line"/>
			<point x="190" y="284" type="line"/>
			<point x="371" y="284" type="line"/>
			<point x="369" y="327"/>
			<point x="317" y="375"/>
			<point x="255" y="375" type="qcurve"/>
			<point x="215" y="375"/>
			<point x="165" y="360"/>
			<point x="147" y="352" type="qcurve"/>
			<point x="138" y="451" type="line"/>
			<point x="163" y="464"/>
			<point x="232" y="481"/>
			<point x="283" y="481" type="qcurve"/>
			<point x="341" y="481"/>
			<point x="421" y="450"/>
			<point x="471" y="396"/>
			<point x="494" y="324"/>
		</contour>
	</outline>
	<guideline y="61"/>
	<guideline y="404"/>
</glyph>
<glyph name="afii10101" format="2">
	<unicode hex="0454"/>
	<advance width="500"/>
	<outline>
		<contour>
			<point x="86" y="182" type="qcurve"/>
			<point x="86" y="247"/>
			<point x="129" y="357"/>
			<point x="209" y="436"/>
			<point x="320" y="481"/>
			<point x="389" y="481" type="qcurve"/>
			<point x="431" y="481"/>
			<point x="505" y="463"/>
			<point x="531" y="452" type="qcurve"/>
			<point x="487" y="354" type="line"/>
			<point x="471" y="361"/>
			<point x="421" y="375"/>
			<point x="389" y="375" type="qcurve"/>
			<point x="332" y="375"/>
			<point x="248" y="329"/>
			<point x="227" y="284" type="qcurve"/>
			<point x="413" y="284" type="line"/>
			<point x="390" y="191" type="line"/>
			<point x="210" y="191" type="line"/>
			<point x="212" y="146"/>
			<point x="265" y="96"/>
			<point x="330" y="96" type="qcurve"/>
			<point x="369" y="96"/>
			<point x="427" y="114"/>
			<point x="444" y="121" type="qcurve"/>
			<point x="456" y="23" type="line"/>
			<point x="432" y="11"/>
			<point x="352" y="-11"/>
			<point x="301" y="-11" type="qcurve"/>
			<point x="243" y="-11"/>
			<point x="162" y="17"/>
			<point x="110" y="68"/>
			<point x="86" y="139"/>
		</contour>
	</outline>
</glyph>
<glyph name="afii10107" format="2">
	<unicode hex="045A"/>
	<advance width="500"/>
	<outline>
		<contour>
			<point x="237" y="204" type="line"/>
			<point x="155" y="204" type="line"/>
			<point x="107" y="0" type="line"/>
			<point x="17" y="0" type="line"/>
			<point x="129" y="470" type="line"/>
			<point x="220" y="470" type="line"/>
			<point x="176" y="288" type="line"/>
			<point x="257" y="288" type="line"/>
			<point x="301" y="470" type="line"/>
			<point x="390" y="470" type="line"/>
			<point x="348" y="296" type="line"/>
			<point x="379" y="296" type="line"/>
			<point x="436" y="296"/>
			<point x="500" y="231"/>
			<point x="500" y="185" type="qcurve"/>
			<point x="500" y="93"/>
			<point x="401" y="-8"/>
			<point x="312" y="-8" type="qcurve"/>
			<point x="286" y="-8"/>
			<point x="214" y="-1"/>
			<point x="189" y="8" type="qcurve"/>
		</contour>
		<contour>
			<point x="410" y="165" type="qcurve"/>
			<point x="410" y="188"/>
			<point x="381" y="218"/>
			<point x="350" y="218" type="qcurve"/>
			<point x="344" y="218"/>
			<point x="335" y="218"/>
			<point x="330" y="217" type="qcurve"/>
			<point x="296" y="74" type="line"/>
			<point x="303" y="72"/>
			<point x="317" y="71"/>
			<point x="323" y="71" type="qcurve"/>
			<point x="365" y="71"/>
			<point x="410" y="125"/>
		</contour>
	</outline>
	<guideline y="228"/>
	<guideline y="277"/>
</glyph>
<glyph name="uni048B" format="2">
	<unicode hex="048B"/>
	<advance width="500"/>
	<outline>
		<contour>
			<point x="221" y="-11" type="qcurve"/>
			<point x="140" y="-11"/>
			<point x="76" y="65"/>
			<point x="76" y="131" type="qcurve"/>
			<point x="76" y="177"/>
			<point x="90" y="238" type="qcurve"/>
			<point x="146" y="470" type="line"/>
			<point x="269" y="470" type="line"/>
			<point x="216" y="246" type="line"/>
			<point x="208" y="216"/>
			<point x="200" y="167"/>
			<point x="200" y="148" type="qcurve"/>
			<point x="200" y="96"/>
			<point x="250" y="96" type="qcurve"/>
			<point x="278" y="96"/>
			<point x="311" y="119"/>
			<point x="326" y="136" type="qcurve"/>
			<point x="328" y="150"/>
			<point x="331" y="176"/>
			<point x="336" y="193" type="qcurve"/>
			<point x="402" y="470" type="line"/>
			<point x="525" y="470" type="line"/>
			<point x="458" y="192" type="line"/>
			<point x="454" y="174"/>
			<point x="449" y="139"/>
			<point x="449" y="119" type="qcurve"/>
			<point x="449" y="106"/>
			<point x="461" y="89"/>
			<point x="476" y="78"/>
			<point x="492" y="72"/>
			<point x="497" y="71" type="qcurve"/>
			<point x="491" y="45"/>
			<point x="472" y="-2"/>
			<point x="440" y="-52"/>
			<point x="392" y="-105"/>
			<point x="356" y="-137" type="qcurve"/>
			<point x="290" y="-82" type="line"/>
			<point x="313" y="-65"/>
			<point x="354" y="-24"/>
			<point x="370" y="11" type="qcurve"/>
			<point x="362" y="14"/>
			<point x="346" y="29"/>
			<point x="343" y="36" type="qcurve"/>
			<point x="323" y="21"/>
			<point x="259" y="-11"/>
		</contour>
		<contour>
			<point x="344" y="534" type="qcurve"/>
			<point x="289" y="534"/>
			<point x="214" y="600"/>
			<point x="212" y="662" type="qcurve"/>
			<point x="305" y="685" type="line"/>
			<point x="306" y="650"/>
			<point x="337" y="623"/>
			<point x="359" y="623" type="qcurve"/>
			<point x="382" y="623"/>
			<point x="418" y="649"/>
			<point x="435" y="684" type="qcurve"/>
			<point x="519" y="655" type="line"/>
			<point x="497" y="592"/>
			<point x="409" y="534"/>
		</contour>
	</outline>
</glyph>
<glyph name="uni048D" format="2">
	<unicode hex="048D"/>
	<advance width="500"/>
	<outline>
		<contour>
			<point x="295" y="209" type="qcurve"/>
			<point x="277" y="209"/>
			<point x="252" y="205"/>
			<point x="241" y="202" type="qcurve"/>
			<point x="214" y="90" type="line"/>
			<point x="231" y="88"/>
			<point x="251" y="86"/>
			<point x="266" y="86" type="qcurve"/>
			<point x="372" y="86"/>
			<point x="372" y="154" type="qcurve"/>
			<point x="372" y="182"/>
			<point x="337" y="209"/>
		</contour>
		<contour>
			<point x="263" y="292" type="line"/>
			<point x="282" y="297"/>
			<point x="321" y="300"/>
			<point x="336" y="300" type="qcurve"/>
			<point x="411" y="300"/>
			<point x="492" y="231"/>
			<point x="492" y="164" type="qcurve"/>
			<point x="492" y="126"/>
			<point x="461" y="63"/>
			<point x="400" y="16"/>
			<point x="307" y="-10"/>
			<point x="245" y="-10" type="qcurve"/>
			<point x="202" y="-10"/>
			<point x="122" y="0"/>
			<point x="74" y="12" type="qcurve"/>
			<point x="155" y="352" type="line"/>
			<point x="101" y="352" type="line"/>
			<point x="121" y="435" type="line"/>
			<point x="175" y="435" type="line"/>
			<point x="188" y="488" type="line"/>
			<point x="310" y="488" type="line"/>
			<point x="297" y="435" type="line"/>
			<point x="426" y="435" type="line"/>
			<point x="406" y="352" type="line"/>
			<point x="278" y="352" type="line"/>
		</contour>
	</outline>
</glyph>
<glyph name="uni048F" format="2">
	<unicode hex="048F"/>
	<advance width="500"/>
	<outline>
		<contour>
			<point x="327" y="480" type="qcurve"/>
			<point x="420" y="480"/>
			<point x="506" y="385"/>
			<point x="506" y="310" type="qcurve"/>
			<point x="506" y="231"/>
			<point x="448" y="91"/>
			<point x="390" y="46" type="qcurve"/>
			<point x="428" y="-59" type="line"/>
			<point x="343" y="-93" type="line"/>
			<point x="307" y="4" type="line"/>
			<point x="286" y="-2"/>
			<point x="237" y="-10"/>
			<point x="210" y="-10" type="qcurve"/>
			<point x="190" y="-10"/>
			<point x="168" y="-8"/>
			<point x="160" y="-6" type="qcurve"/>
			<point x="121" y="-165" type="line"/>
			<point x="-2" y="-165" type="line"/>
			<point x="146" y="448" type="line"/>
			<point x="167" y="457"/>
			<point x="215" y="469"/>
			<point x="264" y="477"/>
			<point x="309" y="480"/>
		</contour>
		<contour>
			<point x="184" y="93" type="line"/>
			<point x="193" y="90"/>
			<point x="208" y="90" type="qcurve"/>
			<point x="244" y="90"/>
			<point x="272" y="101" type="qcurve"/>
			<point x="243" y="183" type="line"/>
			<point x="328" y="217" type="line"/>
			<point x="351" y="152" type="line"/>
			<point x="360" y="164"/>
			<point x="374" y="198"/>
			<point x="383" y="235"/>
			<point x="388" y="272"/>
			<point x="388" y="288" type="qcurve"/>
			<point x="388" y="307"/>
			<point x="383" y="340"/>
			<point x="367" y="365"/>
			<point x="336" y="379"/>
			<point x="311" y="379" type="qcurve"/>
			<point x="290" y="379"/>
			<point x="262" y="375"/>
			<point x="251" y="372" type="qcurve"/>
		</contour>
	</outline>
</glyph>
<glyph name="uni0493" format="2">
	<unicode hex="0493"/>
	<advance width="500"/>
	<outline>
		<contour>
			<point x="276" y="84" type="qcurve"/>
			<point x="314" y="84"/>
			<point x="388" y="96"/>
			<point x="425" y="106" type="qcurve"/>
			<point x="430" y="14" type="line"/>
			<point x="407" y="6"/>
			<point x="320" y="-13"/>
			<point x="248" y="-13" type="qcurve"/>
			<point x="203" y="-13"/>
			<point x="137" y="7"/>
			<point x="94" y="42"/>
			<point x="74" y="86"/>
			<point x="74" y="110" type="qcurve"/>
			<point x="74" y="136"/>
			<point x="92" y="178"/>
			<point x="124" y="210"/>
			<point x="165" y="233"/>
			<point x="188" y="241" type="qcurve"/>
			<point x="113" y="269" type="line"/>
			<point x="143" y="333" type="line"/>
			<point x="286" y="280" type="line"/>
			<point x="324" y="291"/>
			<point x="368" y="323"/>
			<point x="368" y="346" type="qcurve"/>
			<point x="368" y="363"/>
			<point x="338" y="387"/>
			<point x="294" y="387" type="qcurve"/>
			<point x="254" y="387"/>
			<point x="191" y="372"/>
			<point x="165" y="364" type="qcurve"/>
			<point x="159" y="454" type="line"/>
			<point x="173" y="459"/>
			<point x="214" y="469"/>
			<point x="261" y="477"/>
			<point x="311" y="482"/>
			<point x="334" y="482" type="qcurve"/>
			<point x="412" y="482"/>
			<point x="490" y="417"/>
			<point x="490" y="360" type="qcurve"/>
			<point x="490" y="309"/>
			<point x="438" y="249"/>
			<point x="403" y="235" type="qcurve"/>
			<point x="473" y="209" type="line"/>
			<point x="444" y="145" type="line"/>
			<point x="309" y="195" type="line"/>
			<point x="255" y="179"/>
			<point x="196" y="145"/>
			<point x="196" y="122" type="qcurve"/>
			<point x="196" y="102"/>
			<point x="231" y="84"/>
		</contour>
	</outline>
</glyph>
<glyph name="uni0496" format="2">
	<unicode hex="0496"/>
	<advance width="500"/>
	<outline>
		<contour>
			<point x="396" y="0" type="line"/>
			<point x="379" y="0" type="line"/>
			<point x="380" y="42"/>
			<point x="378" y="126"/>
			<point x="371" y="204"/>
			<point x="360" y="272"/>
			<point x="353" y="298" type="qcurve"/>
			<point x="281" y="0" type="line"/>
			<point x="185" y="0" type="line"/>
			<point x="258" y="302" type="line"/>
			<point x="238" y="274"/>
			<point x="193" y="204"/>
			<point x="148" y="126"/>
			<point x="107" y="42"/>
			<point x="91" y="0" type="qcurve"/>
			<point x="-11" y="0" type="line"/>
			<point x="10" y="48"/>
			<point x="60" y="142"/>
			<point x="114" y="229"/>
			<point x="171" y="305"/>
			<point x="198" y="336" type="qcurve"/>
			<point x="177" y="411"/>
			<point x="151" y="552"/>
			<point x="144" y="619" type="qcurve"/>
			<point x="244" y="619" type="line"/>
			<point x="246" y="543"/>
			<point x="262" y="420"/>
			<point x="274" y="370" type="qcurve"/>
			<point x="334" y="619" type="line"/>
			<point x="430" y="619" type="line"/>
			<point x="369" y="366" type="line"/>
			<point x="412" y="423"/>
			<point x="488" y="543"/>
			<point x="524" y="619" type="qcurve"/>
			<point x="627" y="619" type="line"/>
			<point x="586" y="546"/>
			<point x="486" y="391"/>
			<point x="427" y="319" type="qcurve"/>
			<point x="444" y="281"/>
			<point x="467" y="166"/>
			<point x="472" y="99" type="qcurve"/>
			<point x="505" y="99" type="line"/>
			<point x="442" y="-165" type="line"/>
			<point x="356" y="-165" type="line"/>
		</contour>
	</outline>
</glyph>
<glyph name="uni049C" format="2">
	<unicode hex="049C"/>
	<advance width="500"/>
	<outline>
		<contour>
			<point x="321" y="359" type="line"/>
			<point x="372" y="424"/>
			<point x="459" y="553"/>
			<point x="494" y="619" type="qcurve"/>
			<point x="612" y="619" type="line"/>
			<point x="597" y="592"/>
			<point x="554" y="521"/>
			<point x="498" y="442"/>
			<point x="433" y="360"/>
			<point x="397" y="321" type="qcurve"/>
			<point x="411" y="287"/>
			<point x="437" y="217"/>
			<point x="459" y="139"/>
			<point x="478" y="51"/>
			<point x="485" y="0" type="qcurve"/>
			<point x="375" y="0" type="line"/>
			<point x="370" y="42"/>
			<point x="354" y="123"/>
			<point x="334" y="196"/>
			<point x="312" y="260"/>
			<point x="303" y="284" type="qcurve"/>
			<point x="270" y="146" type="line"/>
			<point x="201" y="146" type="line"/>
			<point x="233" y="280" type="line"/>
			<point x="193" y="280" type="line"/>
			<point x="126" y="0" type="line"/>
			<point x="15" y="0" type="line"/>
			<point x="163" y="619" type="line"/>
			<point x="274" y="619" type="line"/>
			<point x="213" y="366" type="line"/>
			<point x="254" y="366" type="line"/>
			<point x="287" y="503" type="line"/>
			<point x="355" y="503" type="line"/>
		</contour>
	</outline>
	<guideline y="321"/>
	<guideline x="367" y="0" angle="103.5"/>
</glyph>
<glyph name="uni049D" format="2">
	<unicode hex="049D"/>
	<advance width="500"/>
	<outline>
		<contour>
			<point x="587" y="470" type="line"/>
			<point x="568" y="445"/>
			<point x="521" y="389"/>
			<point x="470" y="332"/>
			<point x="419" y="277"/>
			<point x="395" y="253" type="qcurve"/>
			<point x="410" y="230"/>
			<point x="436" y="170"/>
			<point x="457" y="103"/>
			<point x="471" y="33"/>
			<point x="476" y="0" type="qcurve"/>
			<point x="365" y="0" type="line"/>
			<point x="357" y="60"/>
			<point x="322" y="178"/>
			<point x="296" y="223" type="qcurve"/>
			<point x="267" y="104" type="line"/>
			<point x="198" y="104" type="line"/>
			<point x="225" y="218" type="line"/>
			<point x="184" y="218" type="line"/>
			<point x="132" y="0" type="line"/>
			<point x="21" y="0" type="line"/>
			<point x="134" y="470" type="line"/>
			<point x="245" y="470" type="line"/>
			<point x="200" y="284" type="line"/>
			<point x="241" y="284" type="line"/>
			<point x="267" y="392" type="line"/>
			<point x="336" y="392" type="line"/>
			<point x="309" y="280" type="line"/>
			<point x="329" y="301"/>
			<point x="373" y="350"/>
			<point x="415" y="401"/>
			<point x="452" y="450"/>
			<point x="466" y="470" type="qcurve"/>
		</contour>
	</outline>
	<guideline x="21" y="0" angle="103.5"/>
	<guideline x="132" y="0" angle="103.5"/>
	<guideline x="173" y="0" angle="103.5"/>
	<guideline x="242" y="0" angle="103.5"/>
</glyph>
<glyph name="uni04A0" format="2">
	<unicode hex="04A0"/>
	<advance width="500"/>
	<outline>
		<contour>
			<point x="346" y="619" type="line"/>
			<point x="284" y="362" type="line"/>
			<point x="311" y="390"/>
			<point x="365" y="457"/>
			<point x="417" y="526"/>
			<point x="463" y="592"/>
			<point x="481" y="619" type="qcurve"/>
			<point x="615" y="619" type="line"/>
			<point x="592" y="588"/>
			<point x="539" y="515"/>
			<point x="477" y="437"/>
			<point x="409" y="359"/>
			<point x="373" y="324" type="qcurve"/>
			<point x="393" y="294"/>
			<point x="427" y="218"/>
			<point x="455" y="133"/>
			<point x="478" y="43"/>
			<point x="487" y="0" type="qcurve"/>
			<point x="364" y="0" type="line"/>
			<point x="357" y="35"/>
			<point x="338" y="116"/>
			<point x="313" y="194"/>
			<point x="283" y="263"/>
			<point x="266" y="287" type="qcurve"/>
			<point x="197" y="0" type="line"/>
			<point x="81" y="0" type="line"/>
			<point x="205" y="517" type="line"/>
			<point x="120" y="517" type="line"/>
			<point x="144" y="619" type="line"/>
		</contour>
	</outline>
</glyph>
<glyph name="uni04B3" format="2">
	<unicode hex="04B3"/>
	<advance width="500"/>
	<outline>
		<contour>
			<point x="346" y="238" type="qcurve"/>
			<point x="365" y="200"/>
			<point x="399" y="132"/>
			<point x="413" y="99" type="qcurve"/>
			<point x="480" y="99" type="line"/>
			<point x="424" y="-129" type="line"/>
			<point x="313" y="-129" type="line"/>
			<point x="346" y="0" type="line"/>
			<point x="325" y="0" type="line"/>
			<point x="310" y="42"/>
			<point x="275" y="121"/>
			<point x="259" y="152" type="qcurve"/>
			<point x="145" y="0" type="line"/>
			<point x="10" y="0" type="line"/>
			<point x="205" y="239" type="line"/>
			<point x="109" y="470" type="line"/>
			<point x="238" y="470" type="line"/>
			<point x="289" y="320" type="line"/>
			<point x="320" y="356"/>
			<point x="377" y="433"/>
			<point x="402" y="470" type="qcurve"/>
			<point x="532" y="470" type="line"/>
			<point x="494" y="416"/>
			<point x="403" y="301"/>
		</contour>
	</outline>
</glyph>
<glyph name="uni04B6" format="2">
	<unicode hex="04B6"/>
	<advance width="500"/>
	<outline>
		<contour>
			<point x="342" y="0" type="line"/>
			<point x="291" y="0" type="line"/>
			<point x="343" y="217" type="line"/>
			<point x="328" y="213"/>
			<point x="286" y="207"/>
			<point x="263" y="207" type="qcurve"/>
			<point x="220" y="207"/>
			<point x="162" y="229"/>
			<point x="126" y="270"/>
			<point x="110" y="326"/>
			<point x="110" y="361" type="qcurve"/>
			<point x="110" y="394"/>
			<point x="119" y="430" type="qcurve"/>
			<point x="164" y="619" type="line"/>
			<point x="288" y="619" type="line"/>
			<point x="244" y="437" type="line"/>
			<point x="235" y="401"/>
			<point x="235" y="375" type="qcurve"/>
			<point x="235" y="345"/>
			<point x="262" y="311"/>
			<point x="300" y="311" type="qcurve"/>
			<point x="316" y="311"/>
			<point x="350" y="314"/>
			<point x="367" y="319" type="qcurve"/>
			<point x="439" y="619" type="line"/>
			<point x="563" y="619" type="line"/>
			<point x="438" y="102" type="line"/>
			<point x="480" y="102" type="line"/>
			<point x="416" y="-165" type="line"/>
			<point x="302" y="-165" type="line"/>
		</contour>
	</outline>
</glyph>
<glyph name="uni04B7" format="2">
  <advance width="500"/>
  <unicode hex="04B7"/>
  <outline>
    <contour>
      <point x="338" y="0" type="line"/>
      <point x="306" y="-129" type="line"/>
      <point x="417" y="-129" type="line"/>
      <point x="472" y="99" type="line"/>
      <point x="430" y="99" type="line"/>
      <point x="519" y="470" type="line"/>
      <point x="396" y="470" type="line"/>
      <point x="345" y="255" type="line"/>
      <point x="328" y="253"/>
      <point x="301" y="251"/>
      <point x="286" y="251" type="curve" smooth="yes"/>
      <point x="253" y="251"/>
      <point x="229" y="257"/>
      <point x="229" y="296" type="curve" smooth="yes"/>
      <point x="229" y="302"/>
      <point x="230" y="316"/>
      <point x="232" y="324" type="curve" smooth="yes"/>
      <point x="266" y="470" type="line"/>
      <point x="144" y="470" type="line"/>
      <point x="110" y="329" type="line" smooth="yes"/>
      <point x="106" y="309"/>
      <point x="103" y="290"/>
      <point x="103" y="272" type="curve" smooth="yes"/>
      <point x="103" y="198"/>
      <point x="154" y="147"/>
      <point x="241" y="147" type="curve" smooth="yes"/>
      <point x="269" y="147"/>
      <point x="296" y="150"/>
      <point x="321" y="154" type="curve"/>
      <point x="284" y="0" type="line"/>
    </contour>
  </outline>
</glyph>
<glyph name="uni04B9" format="2">
	<unicode hex="04B9"/>
	<advance width="500"/>
	<outline>
		<contour>
			<point x="281" y="74" type="line"/>
			<point x="213" y="74" type="line"/>
			<point x="230" y="149" type="line"/>
			<point x="162" y="152"/>
			<point x="94" y="217"/>
			<point x="94" y="271" type="qcurve"/>
			<point x="94" y="293"/>
			<point x="100" y="317" type="qcurve"/>
			<point x="137" y="470" type="line"/>
			<point x="260" y="470" type="line"/>
			<point x="223" y="318" type="line"/>
			<point x="211" y="268"/>
			<point x="256" y="256" type="qcurve"/>
			<point x="275" y="334" type="line"/>
			<point x="344" y="334" type="line"/>
			<point x="324" y="254" type="line"/>
			<point x="328" y="254"/>
			<point x="342" y="254"/>
			<point x="357" y="255"/>
			<point x="371" y="256"/>
			<point x="374" y="257" type="qcurve"/>
			<point x="425" y="470" type="line"/>
			<point x="549" y="470" type="line"/>
			<point x="435" y="0" type="line"/>
			<point x="312" y="0" type="line"/>
			<point x="349" y="154" type="line"/>
			<point x="342" y="153"/>
			<point x="311" y="151"/>
			<point x="300" y="151" type="qcurve"/>
		</contour>
	</outline>
</glyph>
<glyph name="uni04BC" format="2">
	<unicode hex="04BC"/>
	<advance width="500"/>
	<outline>
		<contour>
			<point x="294" y="275" type="line"/>
			<point x="286" y="245"/>
			<point x="282" y="195"/>
			<point x="282" y="175" type="qcurve"/>
			<point x="282" y="128"/>
			<point x="317" y="85"/>
			<point x="355" y="85" type="qcurve"/>
			<point x="384" y="85"/>
			<point x="439" y="107"/>
			<point x="453" y="118" type="qcurve"/>
			<point x="467" y="31" type="line"/>
			<point x="452" y="17"/>
			<point x="381" y="-13"/>
			<point x="332" y="-13" type="qcurve"/>
			<point x="251" y="-13"/>
			<point x="172" y="82"/>
			<point x="172" y="169" type="qcurve"/>
			<point x="172" y="195"/>
			<point x="178" y="253"/>
			<point x="184" y="282" type="qcurve"/>
			<point x="136" y="290"/>
			<point x="81" y="341"/>
			<point x="81" y="390" type="qcurve"/>
			<point x="81" y="416"/>
			<point x="94" y="463"/>
			<point x="108" y="488" type="qcurve"/>
			<point x="189" y="476" type="line"/>
			<point x="181" y="461"/>
			<point x="172" y="433"/>
			<point x="172" y="416" type="qcurve"/>
			<point x="172" y="402"/>
			<point x="183" y="376"/>
			<point x="207" y="373" type="qcurve"/>
			<point x="226" y="443"/>
			<point x="273" y="542"/>
			<point x="329" y="605"/>
			<point x="394" y="633"/>
			<point x="432" y="633" type="qcurve"/>
			<point x="469" y="633"/>
			<point x="518" y="608"/>
			<point x="548" y="564"/>
			<point x="560" y="507"/>
			<point x="560" y="476" type="qcurve"/>
			<point x="560" y="422"/>
			<point x="540" y="313"/>
			<point x="530" y="275" type="qcurve"/>
		</contour>
		<contour>
			<point x="442" y="367" type="line"/>
			<point x="446" y="384"/>
			<point x="455" y="441"/>
			<point x="455" y="468" type="qcurve"/>
			<point x="455" y="496"/>
			<point x="438" y="535"/>
			<point x="418" y="535" type="qcurve"/>
			<point x="405" y="535"/>
			<point x="378" y="518"/>
			<point x="352" y="479"/>
			<point x="328" y="414"/>
			<point x="317" y="367" type="qcurve"/>
		</contour>
	</outline>
</glyph>
<glyph name="uni04C5" format="2">
	<unicode hex="04C5"/>
	<advance width="500"/>
	<outline>
		<contour>
			<point x="493" y="118" type="line"/>
			<point x="486" y="75"/>
			<point x="460" y="0"/>
			<point x="419" y="-69"/>
			<point x="360" y="-132"/>
			<point x="320" y="-163" type="qcurve"/>
			<point x="262" y="-114" type="line"/>
			<point x="282" y="-95"/>
			<point x="335" y="-38"/>
			<point x="351" y="0" type="qcurve"/>
			<point x="293" y="0" type="line"/>
			<point x="417" y="517" type="line"/>
			<point x="349" y="517" type="line"/>
			<point x="333" y="454"/>
			<point x="301" y="328"/>
			<point x="263" y="213"/>
			<point x="216" y="113"/>
			<point x="153" y="38"/>
			<point x="71" y="-8"/>
			<point x="18" y="-12" type="qcurve"/>
			<point x="8" y="93" type="line"/>
			<point x="60" y="103"/>
			<point x="132" y="178"/>
			<point x="184" y="292"/>
			<point x="222" y="435"/>
			<point x="240" y="513" type="qcurve"/>
			<point x="265" y="619" type="line"/>
			<point x="562" y="619" type="line"/>
			<point x="442" y="118" type="line"/>
		</contour>
	</outline>
</glyph>
<glyph name="uni04C9" format="2">
	<unicode hex="04C9"/>
	<advance width="500"/>
	<outline>
		<contour>
			<point x="490" y="118" type="line"/>
			<point x="483" y="75"/>
			<point x="458" y="0"/>
			<point x="417" y="-69"/>
			<point x="357" y="-132"/>
			<point x="317" y="-163" type="qcurve"/>
			<point x="259" y="-114" type="line"/>
			<point x="280" y="-95"/>
			<point x="333" y="-38"/>
			<point x="348" y="0" type="qcurve"/>
			<point x="288" y="0" type="line"/>
			<point x="355" y="273" type="line"/>
			<point x="215" y="273" type="line"/>
			<point x="149" y="0" type="line"/>
			<point x="26" y="0" type="line"/>
			<point x="175" y="619" type="line"/>
			<point x="298" y="619" type="line"/>
			<point x="239" y="375" type="line"/>
			<point x="379" y="375" type="line"/>
			<point x="438" y="619" type="line"/>
			<point x="561" y="619" type="line"/>
			<point x="439" y="118" type="line"/>
		</contour>
	</outline>
</glyph>
<glyph name="uni04CA" format="2">
	<unicode hex="04CA"/>
	<advance width="500"/>
	<outline>
		<contour>
			<point x="500" y="118" type="line"/>
			<point x="493" y="77"/>
			<point x="474" y="15"/>
			<point x="442" y="-41"/>
			<point x="390" y="-100"/>
			<point x="350" y="-137" type="qcurve"/>
			<point x="288" y="-85" type="line"/>
			<point x="308" y="-65"/>
			<point x="344" y="-26"/>
			<point x="358" y="0" type="qcurve"/>
			<point x="299" y="0" type="line"/>
			<point x="342" y="186" type="line"/>
			<point x="207" y="186" type="line"/>
			<point x="163" y="0" type="line"/>
			<point x="40" y="0" type="line"/>
			<point x="153" y="470" type="line"/>
			<point x="276" y="470" type="line"/>
			<point x="232" y="288" type="line"/>
			<point x="367" y="288" type="line"/>
			<point x="411" y="470" type="line"/>
			<point x="534" y="470" type="line"/>
			<point x="449" y="118" type="line"/>
		</contour>
	</outline>
</glyph>
<glyph name="uni04E8" format="2">
	<unicode hex="04E8"/>
	<advance width="500"/>
	<outline>
		<contour>
			<point x="368" y="633" type="qcurve"/>
			<point x="449" y="633"/>
			<point x="541" y="528"/>
			<point x="541" y="441" type="qcurve"/>
			<point x="541" y="402"/>
			<point x="529" y="304"/>
			<point x="501" y="203"/>
			<point x="455" y="107"/>
			<point x="389" y="32"/>
			<point x="299" y="-13"/>
			<point x="242" y="-13" type="qcurve"/>
			<point x="160" y="-13"/>
			<point x="68" y="92"/>
			<point x="68" y="179" type="qcurve"/>
			<point x="68" y="218"/>
			<point x="80" y="316"/>
			<point x="109" y="417"/>
			<point x="154" y="513"/>
			<point x="221" y="588"/>
			<point x="310" y="633"/>
		</contour>
		<contour>
			<point x="354" y="526" type="qcurve"/>
			<point x="329" y="526"/>
			<point x="286" y="499"/>
			<point x="252" y="452"/>
			<point x="225" y="391"/>
			<point x="215" y="358" type="qcurve"/>
			<point x="413" y="358" type="line"/>
			<point x="415" y="378"/>
			<point x="418" y="415"/>
			<point x="418" y="432" type="qcurve"/>
			<point x="418" y="471"/>
			<point x="391" y="526"/>
		</contour>
		<contour>
			<point x="255" y="94" type="qcurve"/>
			<point x="280" y="94"/>
			<point x="322" y="121"/>
			<point x="356" y="166"/>
			<point x="383" y="227"/>
			<point x="393" y="260" type="qcurve"/>
			<point x="196" y="260" type="line"/>
			<point x="194" y="240"/>
			<point x="191" y="204"/>
			<point x="191" y="188" type="qcurve"/>
			<point x="191" y="168"/>
			<point x="197" y="134"/>
			<point x="212" y="109"/>
			<point x="236" y="94"/>
		</contour>
	</outline>
</glyph>
<glyph name="uni1F08" format="2">
  <advance width="500"/>
  <unicode hex="1F08"/>
  <outline>
    <contour>
      <point x="126" y="456" type="line"/>
      <point x="215" y="516"/>
      <point x="254" y="569"/>
      <point x="254" y="615" type="curve" smooth="yes"/>
      <point x="254" y="658"/>
      <point x="221" y="678"/>
      <point x="188" y="678" type="curve" smooth="yes"/>
      <point x="155" y="678"/>
      <point x="122" y="658"/>
      <point x="122" y="616" type="curve" smooth="yes"/>
      <point x="122" y="596"/>
      <point x="130" y="576"/>
      <point x="154" y="563" type="curve"/>
      <point x="134" y="535"/>
      <point x="117" y="518"/>
      <point x="86" y="494" type="curve"/>
    </contour>
  </outline>
</glyph>
<glyph name="uni1F0A" format="2">
  <advance width="500"/>
  <unicode hex="1F0A"/>
  <outline>
    <contour>
      <point x="52" y="633" type="line"/>
      <point x="142" y="456" type="line"/>
      <point x="207" y="489" type="line"/>
      <point x="140" y="676" type="line"/>
    </contour>
    <contour>
      <point x="-112" y="456" type="line"/>
      <point x="-23" y="516"/>
      <point x="14" y="568"/>
      <point x="14" y="614" type="curve" smooth="yes"/>
      <point x="14" y="658"/>
      <point x="-16" y="678"/>
      <point x="-50" y="678" type="curve" smooth="yes"/>
      <point x="-83" y="678"/>
      <point x="-116" y="658"/>
      <point x="-116" y="616" type="curve" smooth="yes"/>
      <point x="-116" y="596"/>
      <point x="-108" y="576"/>
      <point x="-83" y="563" type="curve"/>
      <point x="-104" y="535"/>
      <point x="-121" y="518"/>
      <point x="-152" y="494" type="curve"/>
    </contour>
  </outline>
</glyph>
<glyph name="uni1F0D" format="2">
  <advance width="500"/>
  <unicode hex="1F0D"/>
  <outline>
    <contour>
      <point x="190" y="678" type="line"/>
      <point x="56" y="500" type="line"/>
      <point x="112" y="457" type="line"/>
      <point x="259" y="616" type="line"/>
    </contour>
    <contour>
      <point x="35" y="494" type="line"/>
      <point x="15" y="516"/>
      <point x="-3" y="539"/>
      <point x="-14" y="563" type="curve"/>
      <point x="18" y="573"/>
      <point x="37" y="594"/>
      <point x="37" y="622" type="curve" smooth="yes"/>
      <point x="37" y="648"/>
      <point x="19" y="678"/>
      <point x="-24" y="678" type="curve" smooth="yes"/>
      <point x="-67" y="678"/>
      <point x="-95" y="647"/>
      <point x="-95" y="605" type="curve" smooth="yes"/>
      <point x="-95" y="561"/>
      <point x="-67" y="509"/>
      <point x="-6" y="456" type="curve"/>
    </contour>
  </outline>
</glyph>
<glyph name="uni1F0E" format="2">
  <advance width="500"/>
  <unicode hex="1F0E"/>
  <outline>
    <contour>
      <point x="54" y="424" type="line"/>
      <point x="136" y="455"/>
      <point x="167" y="500"/>
      <point x="167" y="538" type="curve" smooth="yes"/>
      <point x="167" y="575"/>
      <point x="140" y="591"/>
      <point x="112" y="591" type="curve" smooth="yes"/>
      <point x="85" y="591"/>
      <point x="58" y="575"/>
      <point x="58" y="540" type="curve" smooth="yes"/>
      <point x="58" y="523"/>
      <point x="64" y="506"/>
      <point x="85" y="495" type="curve"/>
      <point x="66" y="477"/>
      <point x="53" y="469"/>
      <point x="32" y="456" type="curve"/>
    </contour>
    <contour>
      <point x="257" y="586" type="line"/>
      <point x="258" y="594"/>
      <point x="259" y="603"/>
      <point x="259" y="611" type="curve" smooth="yes"/>
      <point x="259" y="690"/>
      <point x="199" y="727"/>
      <point x="136" y="727" type="curve" smooth="yes"/>
      <point x="61" y="727"/>
      <point x="-19" y="679"/>
      <point x="-23" y="586" type="curve"/>
      <point x="45" y="586" type="line"/>
      <point x="59" y="636"/>
      <point x="95" y="651"/>
      <point x="130" y="651" type="curve" smooth="yes"/>
      <point x="167" y="651"/>
      <point x="189" y="631"/>
      <point x="189" y="600" type="curve" smooth="yes"/>
      <point x="189" y="593"/>
      <point x="189" y="589"/>
      <point x="188" y="586" type="curve"/>
    </contour>
  </outline>
</glyph>
<glyph name="uni1F19" format="2">
  <advance width="500"/>
  <unicode hex="1F19"/>
  <outline>
    <contour>
      <point x="135" y="494" type="line"/>
      <point x="114" y="516"/>
      <point x="96" y="539"/>
      <point x="85" y="563" type="curve"/>
      <point x="118" y="573"/>
      <point x="136" y="594"/>
      <point x="136" y="622" type="curve" smooth="yes"/>
      <point x="136" y="648"/>
      <point x="118" y="678"/>
      <point x="76" y="678" type="curve" smooth="yes"/>
      <point x="32" y="678"/>
      <point x="4" y="647"/>
      <point x="4" y="605" type="curve" smooth="yes"/>
      <point x="4" y="561"/>
      <point x="32" y="509"/>
      <point x="93" y="456" type="curve"/>
    </contour>
  </outline>
</glyph>
<glyph name="uni1F1C" format="2">
  <advance width="500"/>
  <unicode hex="1F1C"/>
  <outline>
    <contour>
      <point x="85" y="678" type="line"/>
      <point x="-49" y="500" type="line"/>
      <point x="8" y="457" type="line"/>
      <point x="154" y="616" type="line"/>
    </contour>
    <contour>
      <point x="-177" y="456" type="line"/>
      <point x="-88" y="516"/>
      <point x="-51" y="568"/>
      <point x="-51" y="614" type="curve" smooth="yes"/>
      <point x="-51" y="658"/>
      <point x="-82" y="678"/>
      <point x="-115" y="678" type="curve" smooth="yes"/>
      <point x="-148" y="678"/>
      <point x="-181" y="658"/>
      <point x="-181" y="616" type="curve" smooth="yes"/>
      <point x="-181" y="596"/>
      <point x="-173" y="576"/>
      <point x="-149" y="563" type="curve"/>
      <point x="-169" y="535"/>
      <point x="-186" y="518"/>
      <point x="-217" y="494" type="curve"/>
    </contour>
  </outline>
</glyph>
<glyph name="uni1F28" format="2">
  <advance width="500"/>
  <unicode hex="1F28"/>
  <outline>
    <contour>
      <point x="5" y="456" type="line"/>
      <point x="94" y="516"/>
      <point x="133" y="569"/>
      <point x="133" y="615" type="curve" smooth="yes"/>
      <point x="133" y="658"/>
      <point x="100" y="678"/>
      <point x="67" y="678" type="curve" smooth="yes"/>
      <point x="34" y="678"/>
      <point x="1" y="658"/>
      <point x="1" y="616" type="curve" smooth="yes"/>
      <point x="1" y="596"/>
      <point x="9" y="576"/>
      <point x="33" y="563" type="curve"/>
      <point x="13" y="535"/>
      <point x="-4" y="518"/>
      <point x="-35" y="494" type="curve"/>
    </contour>
  </outline>
</glyph>
<glyph name="uni1F2A" format="2">
  <advance width="500"/>
  <unicode hex="1F2A"/>
  <outline>
    <contour>
      <point x="-45" y="633" type="line"/>
      <point x="45" y="456" type="line"/>
      <point x="110" y="489" type="line"/>
      <point x="43" y="676" type="line"/>
    </contour>
    <contour>
      <point x="-209" y="456" type="line"/>
      <point x="-120" y="516"/>
      <point x="-83" y="568"/>
      <point x="-83" y="614" type="curve" smooth="yes"/>
      <point x="-83" y="658"/>
      <point x="-113" y="678"/>
      <point x="-147" y="678" type="curve" smooth="yes"/>
      <point x="-180" y="678"/>
      <point x="-213" y="658"/>
      <point x="-213" y="616" type="curve" smooth="yes"/>
      <point x="-213" y="596"/>
      <point x="-205" y="576"/>
      <point x="-180" y="563" type="curve"/>
      <point x="-201" y="535"/>
      <point x="-218" y="518"/>
      <point x="-249" y="494" type="curve"/>
    </contour>
  </outline>
</glyph>
<glyph name="uni1F2C" format="2">
  <advance width="500"/>
  <unicode hex="1F2C"/>
  <outline>
    <contour>
      <point x="60" y="678" type="line"/>
      <point x="-74" y="500" type="line"/>
      <point x="-17" y="457" type="line"/>
      <point x="129" y="616" type="line"/>
    </contour>
    <contour>
      <point x="-202" y="456" type="line"/>
      <point x="-113" y="516"/>
      <point x="-76" y="568"/>
      <point x="-76" y="614" type="curve" smooth="yes"/>
      <point x="-76" y="658"/>
      <point x="-107" y="678"/>
      <point x="-140" y="678" type="curve" smooth="yes"/>
      <point x="-173" y="678"/>
      <point x="-206" y="658"/>
      <point x="-206" y="616" type="curve" smooth="yes"/>
      <point x="-206" y="596"/>
      <point x="-198" y="576"/>
      <point x="-174" y="563" type="curve"/>
      <point x="-194" y="535"/>
      <point x="-211" y="518"/>
      <point x="-242" y="494" type="curve"/>
    </contour>
  </outline>
</glyph>
<glyph name="uni1F38" format="2">
  <advance width="500"/>
  <unicode hex="1F38"/>
  <outline>
    <contour>
      <point x="11" y="456" type="line"/>
      <point x="100" y="516"/>
      <point x="139" y="569"/>
      <point x="139" y="615" type="curve" smooth="yes"/>
      <point x="139" y="658"/>
      <point x="106" y="678"/>
      <point x="73" y="678" type="curve" smooth="yes"/>
      <point x="40" y="678"/>
      <point x="7" y="658"/>
      <point x="7" y="616" type="curve" smooth="yes"/>
      <point x="7" y="596"/>
      <point x="15" y="576"/>
      <point x="39" y="563" type="curve"/>
      <point x="19" y="535"/>
      <point x="2" y="518"/>
      <point x="-29" y="494" type="curve"/>
    </contour>
  </outline>
</glyph>
<glyph name="uni1F39" format="2">
  <advance width="500"/>
  <unicode hex="1F39"/>
  <outline>
    <contour>
      <point x="117" y="494" type="line"/>
      <point x="96" y="516"/>
      <point x="78" y="539"/>
      <point x="67" y="563" type="curve"/>
      <point x="100" y="573"/>
      <point x="118" y="594"/>
      <point x="118" y="622" type="curve" smooth="yes"/>
      <point x="118" y="648"/>
      <point x="100" y="678"/>
      <point x="58" y="678" type="curve" smooth="yes"/>
      <point x="14" y="678"/>
      <point x="-14" y="647"/>
      <point x="-14" y="605" type="curve" smooth="yes"/>
      <point x="-14" y="561"/>
      <point x="14" y="509"/>
      <point x="75" y="456" type="curve"/>
    </contour>
  </outline>
</glyph>
<glyph name="uni1F3B" format="2">
  <advance width="500"/>
  <unicode hex="1F3B"/>
  <outline>
    <contour>
      <point x="-36" y="633" type="line"/>
      <point x="54" y="456" type="line"/>
      <point x="119" y="489" type="line"/>
      <point x="52" y="676" type="line"/>
    </contour>
    <contour>
      <point x="-74" y="494" type="line"/>
      <point x="-95" y="516"/>
      <point x="-113" y="539"/>
      <point x="-123" y="563" type="curve"/>
      <point x="-91" y="573"/>
      <point x="-73" y="594"/>
      <point x="-73" y="622" type="curve" smooth="yes"/>
      <point x="-73" y="648"/>
      <point x="-90" y="678"/>
      <point x="-133" y="678" type="curve" smooth="yes"/>
      <point x="-177" y="678"/>
      <point x="-205" y="647"/>
      <point x="-205" y="605" type="curve" smooth="yes"/>
      <point x="-205" y="561"/>
      <point x="-177" y="509"/>
      <point x="-115" y="456" type="curve"/>
    </contour>
  </outline>
</glyph>
<glyph name="uni1F3C" format="2">
  <advance width="500"/>
  <unicode hex="1F3C"/>
  <outline>
    <contour>
      <point x="68" y="678" type="line"/>
      <point x="-66" y="500" type="line"/>
      <point x="-9" y="457" type="line"/>
      <point x="137" y="616" type="line"/>
    </contour>
    <contour>
      <point x="-194" y="456" type="line"/>
      <point x="-105" y="516"/>
      <point x="-68" y="568"/>
      <point x="-68" y="614" type="curve" smooth="yes"/>
      <point x="-68" y="658"/>
      <point x="-99" y="678"/>
      <point x="-132" y="678" type="curve" smooth="yes"/>
      <point x="-165" y="678"/>
      <point x="-198" y="658"/>
      <point x="-198" y="616" type="curve" smooth="yes"/>
      <point x="-198" y="596"/>
      <point x="-190" y="576"/>
      <point x="-166" y="563" type="curve"/>
      <point x="-186" y="535"/>
      <point x="-203" y="518"/>
      <point x="-234" y="494" type="curve"/>
    </contour>
  </outline>
</glyph>
<glyph name="uni1F3E" format="2">
  <advance width="500"/>
  <unicode hex="1F3E"/>
  <outline>
    <contour>
      <point x="-66" y="424" type="line"/>
      <point x="16" y="455"/>
      <point x="47" y="500"/>
      <point x="47" y="538" type="curve" smooth="yes"/>
      <point x="47" y="575"/>
      <point x="20" y="591"/>
      <point x="-8" y="591" type="curve" smooth="yes"/>
      <point x="-35" y="591"/>
      <point x="-62" y="575"/>
      <point x="-62" y="540" type="curve" smooth="yes"/>
      <point x="-62" y="523"/>
      <point x="-56" y="506"/>
      <point x="-35" y="495" type="curve"/>
      <point x="-54" y="477"/>
      <point x="-67" y="469"/>
      <point x="-88" y="456" type="curve"/>
    </contour>
    <contour>
      <point x="137" y="586" type="line"/>
      <point x="138" y="594"/>
      <point x="139" y="603"/>
      <point x="139" y="611" type="curve" smooth="yes"/>
      <point x="139" y="690"/>
      <point x="79" y="727"/>
      <point x="16" y="727" type="curve" smooth="yes"/>
      <point x="-59" y="727"/>
      <point x="-139" y="679"/>
      <point x="-143" y="586" type="curve"/>
      <point x="-75" y="586" type="line"/>
      <point x="-61" y="636"/>
      <point x="-25" y="651"/>
      <point x="10" y="651" type="curve" smooth="yes"/>
      <point x="47" y="651"/>
      <point x="69" y="631"/>
      <point x="69" y="600" type="curve" smooth="yes"/>
      <point x="69" y="593"/>
      <point x="69" y="589"/>
      <point x="68" y="586" type="curve"/>
    </contour>
  </outline>
</glyph>
<glyph name="uni1F48" format="2">
  <advance width="500"/>
  <unicode hex="1F48"/>
  <outline>
    <contour>
      <point x="34" y="456" type="line"/>
      <point x="123" y="516"/>
      <point x="162" y="569"/>
      <point x="162" y="615" type="curve" smooth="yes"/>
      <point x="162" y="658"/>
      <point x="129" y="678"/>
      <point x="96" y="678" type="curve" smooth="yes"/>
      <point x="63" y="678"/>
      <point x="30" y="658"/>
      <point x="30" y="616" type="curve" smooth="yes"/>
      <point x="30" y="596"/>
      <point x="38" y="576"/>
      <point x="62" y="563" type="curve"/>
      <point x="42" y="535"/>
      <point x="25" y="518"/>
      <point x="-6" y="494" type="curve"/>
    </contour>
  </outline>
</glyph>
<glyph name="uni1F49" format="2">
  <advance width="500"/>
  <unicode hex="1F49"/>
  <outline>
    <contour>
      <point x="111" y="494" type="line"/>
      <point x="90" y="516"/>
      <point x="72" y="539"/>
      <point x="61" y="563" type="curve"/>
      <point x="94" y="573"/>
      <point x="112" y="594"/>
      <point x="112" y="622" type="curve" smooth="yes"/>
      <point x="112" y="648"/>
      <point x="94" y="678"/>
      <point x="52" y="678" type="curve" smooth="yes"/>
      <point x="8" y="678"/>
      <point x="-20" y="647"/>
      <point x="-20" y="605" type="curve" smooth="yes"/>
      <point x="-20" y="561"/>
      <point x="8" y="509"/>
      <point x="69" y="456" type="curve"/>
    </contour>
  </outline>
</glyph>
<glyph name="uni1F4A" format="2">
  <advance width="500"/>
  <unicode hex="1F4A"/>
  <outline>
    <contour>
      <point x="-43" y="633" type="line"/>
      <point x="47" y="456" type="line"/>
      <point x="112" y="489" type="line"/>
      <point x="45" y="676" type="line"/>
    </contour>
    <contour>
      <point x="-207" y="456" type="line"/>
      <point x="-118" y="516"/>
      <point x="-81" y="568"/>
      <point x="-81" y="614" type="curve" smooth="yes"/>
      <point x="-81" y="658"/>
      <point x="-111" y="678"/>
      <point x="-145" y="678" type="curve" smooth="yes"/>
      <point x="-178" y="678"/>
      <point x="-211" y="658"/>
      <point x="-211" y="616" type="curve" smooth="yes"/>
      <point x="-211" y="596"/>
      <point x="-203" y="576"/>
      <point x="-178" y="563" type="curve"/>
      <point x="-199" y="535"/>
      <point x="-216" y="518"/>
      <point x="-247" y="494" type="curve"/>
    </contour>
  </outline>
</glyph>
<glyph name="uni1F5F" format="2">
  <advance width="500"/>
  <unicode hex="1F5F"/>
  <outline>
    <contour>
      <point x="18" y="456" type="line"/>
      <point x="-4" y="473"/>
      <point x="-12" y="480"/>
      <point x="-23" y="495" type="curve"/>
      <point x="3" y="502"/>
      <point x="18" y="526"/>
      <point x="18" y="546" type="curve" smooth="yes"/>
      <point x="18" y="570"/>
      <point x="3" y="591"/>
      <point x="-32" y="591" type="curve" smooth="yes"/>
      <point x="-69" y="591"/>
      <point x="-91" y="565"/>
      <point x="-91" y="530" type="curve" smooth="yes"/>
      <point x="-91" y="494"/>
      <point x="-62" y="457"/>
      <point x="-15" y="424" type="curve"/>
    </contour>
    <contour>
      <point x="109" y="586" type="line"/>
      <point x="110" y="594"/>
      <point x="111" y="603"/>
      <point x="111" y="611" type="curve" smooth="yes"/>
      <point x="111" y="690"/>
      <point x="51" y="727"/>
      <point x="-12" y="727" type="curve" smooth="yes"/>
      <point x="-87" y="727"/>
      <point x="-167" y="679"/>
      <point x="-171" y="586" type="curve"/>
      <point x="-103" y="586" type="line"/>
      <point x="-89" y="636"/>
      <point x="-53" y="651"/>
      <point x="-18" y="651" type="curve" smooth="yes"/>
      <point x="19" y="651"/>
      <point x="41" y="631"/>
      <point x="41" y="600" type="curve" smooth="yes"/>
      <point x="41" y="593"/>
      <point x="41" y="589"/>
      <point x="40" y="586" type="curve"/>
    </contour>
  </outline>
</glyph>
<glyph name="uni1F69" format="2">
  <advance width="500"/>
  <unicode hex="1F69"/>
  <outline>
    <contour>
      <point x="98" y="494" type="line"/>
      <point x="77" y="516"/>
      <point x="59" y="539"/>
      <point x="48" y="563" type="curve"/>
      <point x="81" y="573"/>
      <point x="99" y="594"/>
      <point x="99" y="622" type="curve" smooth="yes"/>
      <point x="99" y="648"/>
      <point x="81" y="678"/>
      <point x="39" y="678" type="curve" smooth="yes"/>
      <point x="-5" y="678"/>
      <point x="-33" y="647"/>
      <point x="-33" y="605" type="curve" smooth="yes"/>
      <point x="-33" y="561"/>
      <point x="-5" y="509"/>
      <point x="56" y="456" type="curve"/>
    </contour>
  </outline>
</glyph>
<glyph name="uni1F6D" format="2">
  <advance width="500"/>
  <unicode hex="1F6D"/>
  <outline>
    <contour>
      <point x="105" y="678" type="line"/>
      <point x="-29" y="500" type="line"/>
      <point x="27" y="457" type="line"/>
      <point x="174" y="616" type="line"/>
    </contour>
    <contour>
      <point x="-50" y="494" type="line"/>
      <point x="-70" y="516"/>
      <point x="-88" y="539"/>
      <point x="-99" y="563" type="curve"/>
      <point x="-67" y="573"/>
      <point x="-48" y="594"/>
      <point x="-48" y="622" type="curve" smooth="yes"/>
      <point x="-48" y="648"/>
      <point x="-66" y="678"/>
      <point x="-109" y="678" type="curve" smooth="yes"/>
      <point x="-152" y="678"/>
      <point x="-180" y="647"/>
      <point x="-180" y="605" type="curve" smooth="yes"/>
      <point x="-180" y="561"/>
      <point x="-152" y="509"/>
      <point x="-91" y="456" type="curve"/>
    </contour>
  </outline>
</glyph>
<glyph name="uni1F6F" format="2">
  <advance width="500"/>
  <unicode hex="1F6F"/>
  <outline>
    <contour>
      <point x="80" y="456" type="line"/>
      <point x="58" y="473"/>
      <point x="50" y="480"/>
      <point x="39" y="495" type="curve"/>
      <point x="65" y="502"/>
      <point x="80" y="526"/>
      <point x="80" y="546" type="curve" smooth="yes"/>
      <point x="80" y="570"/>
      <point x="65" y="591"/>
      <point x="30" y="591" type="curve" smooth="yes"/>
      <point x="-7" y="591"/>
      <point x="-29" y="565"/>
      <point x="-29" y="530" type="curve" smooth="yes"/>
      <point x="-29" y="494"/>
      <point x="0" y="457"/>
      <point x="47" y="424" type="curve"/>
    </contour>
    <contour>
      <point x="171" y="586" type="line"/>
      <point x="172" y="594"/>
      <point x="173" y="603"/>
      <point x="173" y="611" type="curve" smooth="yes"/>
      <point x="173" y="690"/>
      <point x="113" y="727"/>
      <point x="50" y="727" type="curve" smooth="yes"/>
      <point x="-25" y="727"/>
      <point x="-105" y="679"/>
      <point x="-109" y="586" type="curve"/>
      <point x="-41" y="586" type="line"/>
      <point x="-27" y="636"/>
      <point x="9" y="651"/>
      <point x="44" y="651" type="curve" smooth="yes"/>
      <point x="81" y="651"/>
      <point x="103" y="631"/>
      <point x="103" y="600" type="curve" smooth="yes"/>
      <point x="103" y="593"/>
      <point x="103" y="589"/>
      <point x="102" y="586" type="curve"/>
    </contour>
  </outline>
</glyph>
<glyph name="uni1F88" format="2">
  <advance width="500"/>
  <unicode hex="1F88"/>
  <outline>
    <contour>
      <point x="55" y="456" type="line"/>
      <point x="144" y="516"/>
      <point x="183" y="569"/>
      <point x="183" y="615" type="curve" smooth="yes"/>
      <point x="183" y="658"/>
      <point x="150" y="678"/>
      <point x="117" y="678" type="curve" smooth="yes"/>
      <point x="84" y="678"/>
      <point x="51" y="658"/>
      <point x="51" y="616" type="curve" smooth="yes"/>
      <point x="51" y="596"/>
      <point x="59" y="576"/>
      <point x="83" y="563" type="curve"/>
      <point x="63" y="535"/>
      <point x="46" y="518"/>
      <point x="15" y="494" type="curve"/>
    </contour>
  </outline>
</glyph>
<glyph name="uni1FC0" format="2">
	<unicode hex="1FC0"/>
	<advance width="500"/>
	<outline>
		<contour>
			<point x="413" y="534" type="line"/>
			<point x="413" y="539"/>
			<point x="414" y="547"/>
			<point x="414" y="552" type="qcurve"/>
			<point x="414" y="573"/>
			<point x="389" y="597"/>
			<point x="367" y="597" type="qcurve"/>
			<point x="345" y="597"/>
			<point x="311" y="572"/>
			<point x="303" y="534" type="qcurve"/>
			<point x="213" y="534" type="line"/>
			<point x="224" y="612"/>
			<point x="318" y="682"/>
			<point x="383" y="682" type="qcurve"/>
			<point x="440" y="682"/>
			<point x="506" y="624"/>
			<point x="506" y="571" type="qcurve"/>
			<point x="506" y="563"/>
			<point x="504" y="544"/>
			<point x="502" y="534" type="qcurve"/>
		</contour>
	</outline>
</glyph>
<glyph name="uni1FCC" format="2">
	<unicode hex="1FCC"/>
	<advance width="500"/>
	<outline>
		<contour>
			<point x="480" y="-12" type="line"/>
			<point x="418" y="-6"/>
			<point x="371" y="44"/>
			<point x="371" y="85" type="qcurve"/>
			<point x="371" y="101"/>
			<point x="377" y="136"/>
			<point x="382" y="156" type="qcurve"/>
			<point x="457" y="470" type="line"/>
			<point x="554" y="470" type="line"/>
			<point x="476" y="145" type="line"/>
			<point x="470" y="122"/>
			<point x="470" y="108" type="qcurve"/>
			<point x="470" y="94"/>
			<point x="485" y="77"/>
			<point x="503" y="74" type="qcurve"/>
		</contour>
		<contour>
			<point x="447" y="619" type="line"/>
			<point x="298" y="0" type="line"/>
			<point x="202" y="0" type="line"/>
			<point x="269" y="282" type="line"/>
			<point x="167" y="282" type="line"/>
			<point x="100" y="0" type="line"/>
			<point x="4" y="0" type="line"/>
			<point x="152" y="619" type="line"/>
			<point x="248" y="619" type="line"/>
			<point x="188" y="366" type="line"/>
			<point x="289" y="366" type="line"/>
			<point x="350" y="619" type="line"/>
		</contour>
	</outline>
</glyph>
<glyph name="uni1FCD" format="2">
	<unicode hex="1FCD"/>
	<advance width="500"/>
	<outline>
		<contour>
			<point x="461" y="740" type="line"/>
			<point x="528" y="553" type="line"/>
			<point x="463" y="520" type="line"/>
			<point x="373" y="697" type="line"/>
		</contour>
		<contour>
			<point x="169" y="558" type="line"/>
			<point x="192" y="576"/>
			<point x="222" y="606"/>
			<point x="238" y="627" type="qcurve"/>
			<point x="219" y="637"/>
			<point x="205" y="665"/>
			<point x="205" y="680" type="qcurve"/>
			<point x="205" y="712"/>
			<point x="246" y="742"/>
			<point x="271" y="742" type="qcurve"/>
			<point x="297" y="742"/>
			<point x="335" y="711"/>
			<point x="335" y="678" type="qcurve"/>
			<point x="335" y="643"/>
			<point x="276" y="565"/>
			<point x="209" y="520" type="qcurve"/>
		</contour>
	</outline>
</glyph>
